SplineFontDB: 3.0
FontName: LinBiolinumOB
FullName: Linux Biolinum O Bold
FamilyName: Linux Biolinum O
Weight: Bold
Copyright: Linux Libertine by Philipp H. Poll,\nOpen Font under Terms of following Free Software Licenses:\nGPL (General Public License) with font-exception and OFL (Open Font License).\nCreated with FontForge (http://fontforge.sf.net)\nSept 2003, 2004, 2005, 2006, 2007, 2008, 2009, 2010, 2011,2012
UComments: "2003-08-29: Created.+AAoA-2004-07-25: v(1.0) release candidate+AAoA-2005-12-28: v(1.1.0) stable+AAoA-2006-01-01: v(2.0.0) stable+AAoA-2006-09-05: v(2.2.0) stable+AAoA-2006-12-04: v(2.3.0) stable+AAoA-2007-03-11: v(2.4.0) stable+AAoA-2007-12-00: v(2.7.0) stable+AAoA-2008-06-00: v(2.8.14) stable+AAoA" 
Version: 1.3.2
ItalicAngle: 0
UnderlinePosition: -98
UnderlineWidth: 40
Ascent: 754
Descent: 246
LayerCount: 2
Layer: 0 0 "Back"  1
Layer: 1 0 "Fore"  0
XUID: [1021 993 1524925707 2876416]
FSType: 0
OS2Version: 3
OS2_WeightWidthSlopeOnly: 0
OS2_UseTypoMetrics: 0
CreationTime: 1156455862
PfmFamily: 33
TTFWeight: 700
TTFWidth: 5
LineGap: 0
VLineGap: 0
OS2TypoAscent: 894
OS2TypoAOffset: 0
OS2TypoDescent: -246
OS2TypoDOffset: 0
OS2TypoLinegap: 0
OS2WinAscent: 894
OS2WinAOffset: 0
OS2WinDescent: 246
OS2WinDOffset: 0
HheadAscent: 894
HheadAOffset: 0
HheadDescent: -246
HheadDOffset: 0
OS2FamilyClass: 2050
OS2Vendor: 'PfEd'
Lookup: 1 0 0 "'sups' Hochgestellte"  {"'sups' Hochgestellte 1" ("superior" ) } ['sups' ('DFLT' <'dflt' > 'cyrl' <'dflt' > 'grek' <'dflt' > 'latn' <'AZE ' 'CRT ' 'DEU ' 'MOL ' 'ROM ' 'TRK ' 'dflt' > ) ]
Lookup: 1 0 0 "'sinf' Tiefgestellte"  {"'sinf' Wissenschaftliche Indices 1" ("inferior" ) } ['sinf' ('DFLT' <'dflt' > 'cyrl' <'dflt' > 'grek' <'dflt' > 'latn' <'AZE ' 'CRT ' 'DEU ' 'MOL ' 'ROM ' 'TRK ' 'dflt' > ) ]
Lookup: 260 0 0 "'mark' Markenpositionierung"  {"'mark' Mark Positioning lookup 3"  } ['mark' ('DFLT' <'dflt' > 'cyrl' <'dflt' > 'grek' <'dflt' > 'latn' <'AZE ' 'CRT ' 'DEU ' 'MOL ' 'ROM ' 'TRK ' 'dflt' > ) ]

StartChar: u1D5D4
Encoding: 120276 120276 0
Width: 701
Flags: MW
TopAccentHorizontal: 344
HStem: -3 21G<26 69.8553 115 128.893 503.999 515.5 654 670.5> 221 53<223.642 411.509> 633 20G<264.499 448>
DStem2: 315 653 223.642 275.917 0.410133 0.912026<-381.378 -144.166> 405 653 323.043 494 0.385414 -0.922744<115.129 351.246>
AnchorPoint: "unten_punkt" 272 -108 basechar 0
LayerCount: 2
Fore
SplineSet
411.5 275.1 m 1
 387.3 338.5 358.7 412 323 494 c 1
 317.1 494 l 1
 223.6 275.9 l 1
 255 274.5 299.1 274 328 274 c 0
 351.7 274 383.1 274.5 411.5 275.1 c 1
200.3 219.2 m 1
 166.2 135.1 136.8 56.2 121 -3 c 1
 109 0 87 0 76 0 c 0
 65 0 32 0 20 -3 c 1
 121 218 219 431 315 653 c 1
 405 653 l 1
 491 434 629 98 679 -3 c 1
 662 0 605 0 588 0 c 0
 571 0 524 0 507 -3 c 1
 501 18.7 479.3 93.7 432.5 219.7 c 1
 399.8 220.4 365.1 221 333 221 c 0
 297.3 221 238.3 220.1 200.3 219.2 c 1
EndSplineSet
EndChar

StartChar: u1D5D5
Encoding: 120277 120277 1
Width: 675
VWidth: 999
Flags: W
TopAccentHorizontal: 302
HStem: -3 53<215.709 439.082> 322 53<245 401.023> 595 53<214.342 397.138>
VStem: 103 142<61.1856 322 375 585.479> 426 149<431.082 565.301> 473 161<105.896 265.022>
AnchorPoint: "unten_punkt" 288 -108 basechar 0
LayerCount: 2
Fore
SplineSet
245 550 m 2xf8
 245 375 l 1
 323 375 l 2
 406 375 426 408 426 481 c 0
 426 568.3 392 595 336 595 c 0
 255 595 245 583 245 550 c 2xf8
245 322 m 1
 245 97 l 2
 245 64 262 50 332 50 c 0
 466 50 473 96 473 165 c 0xf4
 473 236.2 455 322 338 322 c 2
 245 322 l 1
177 645 m 0
 240 645 304 648 339 648 c 0
 525 648 575 560 575 493 c 0xf8
 575 438 523 385 472 360 c 1
 559 335 634 280 634 184 c 0
 634 98 560 -3 361 -3 c 0
 272 -3 249 0 177 0 c 0
 142 0 92 -3 92 -3 c 1
 91 0 l 1
 99 54 103 125 103 200 c 2
 103 445 l 2
 103 520 99 588 91 645 c 1
 93 648 l 1
 93 648 143 645 177 645 c 0
EndSplineSet
EndChar

StartChar: u1D5D6
Encoding: 120278 120278 2
Width: 706
VWidth: 999
Flags: W
TopAccentHorizontal: 401
HStem: -10 60<328.903 508.738> 603 55<330.62 500.335>
VStem: 52 163<192.642 437.454>
AnchorPoint: "unten_punkt" 404 -110 basechar 0
LayerCount: 2
Fore
SplineSet
414 658 m 0
 536 658 639 613 639 613 c 1
 641 610 l 1
 629.2 560.7 624.6 531 621 480 c 1
 591 479 l 1
 550 561 497 603 407 603 c 0
 325 603 215 532 215 329 c 0
 215 158.8 297 50 406 50 c 0
 499 50 554 67 629 139 c 1
 653 105 l 1
 569 18 469.2 -10 380 -10 c 0
 295.2 -10 235.1 7.7 175 48 c 0
 96 101 52 205 52 310 c 0
 52 419.9 97.1 522.3 176 584 c 0
 238.5 632.8 323 658 414 658 c 0
EndSplineSet
EndChar

StartChar: u1D5D7
Encoding: 120279 120279 3
Width: 761
VWidth: 999
Flags: W
TopAccentHorizontal: 385
HStem: -2 53<216.796 465.099> 595 53<215.537 433.76>
VStem: 101 144<64.2018 582.482> 548 161<189.196 434.615>
AnchorPoint: "unten_punkt" 381 -113 basechar 0
LayerCount: 2
Fore
SplineSet
245 101 m 2
 245 69 266.9 51 343 51 c 0
 484 51 548 92 548 294 c 0
 548 448 534 595 318 595 c 0
 269 595 245 580 245 545 c 2
 245 101 l 2
175 645 m 0
 245.6 645 285.4 648 356 648 c 0
 548 648 709 514.5 709 318 c 0
 709 72 515 -2 374 -2 c 0
 286.9 -2 252.6 0 175 0 c 0
 140 0 90 -3 90 -3 c 1
 89 0 l 1
 97 54 101 125 101 200 c 2
 101 445 l 2
 101 520 97 588 89 645 c 1
 91 648 l 1
 91 648 141 645 175 645 c 0
EndSplineSet
EndChar

StartChar: u1D5D8
Encoding: 120280 120280 4
Width: 594
VWidth: 999
Flags: W
TopAccentHorizontal: 300
HStem: 0 73<244.435 485.676> 311 61<240 465.912> 577 68<244.435 478.84>
VStem: 96 144<74.1699 311 372 575.826>
AnchorPoint: "unten_punkt" 299 -107 basechar 0
LayerCount: 2
Fore
SplineSet
240 200 m 2
 240 183 241 97 248 73 c 1
 382 73 544 95 544 95 c 1
 546 91 l 1
 545 83 544 46 544 36 c 0
 544 26 544.5 13.2 546 0 c 1
 544 -3 l 1
 528 -1 505 0 484 0 c 2
 170 0 l 2
 135 0 85 -3 85 -3 c 1
 84 0 l 1
 92 54 96 125 96 200 c 2
 96 445 l 2
 96 520 92 588 84 645 c 1
 86 648 l 1
 86 648 136 645 170 645 c 2
 474 645 l 2
 495 645 518 646 534 648 c 1
 536 645 l 1
 534.8 631 534 618 534 610 c 0
 534 601 535 577 536 569 c 1
 534 565 l 1
 534 565 382 577 248 577 c 1
 241 553 240 462 240 445 c 2
 240 372 l 1
 358 372 418 377 477 382 c 1
 480 379 l 1
 478 370 477 351 477 342 c 0
 477 333 478 313 480 304 c 1
 477 301 l 1
 408 308 288 311 240 311 c 1
 240 200 l 2
EndSplineSet
EndChar

StartChar: u1D5D9
Encoding: 120281 120281 5
Width: 554
VWidth: 999
Flags: W
TopAccentHorizontal: 307
HStem: -3 21G<86 172 172 252> 301 61<242 467.912> 577 68<246.435 481.471>
VStem: 98 144<2.67992 301 362 575.826>
AnchorPoint: "unten_punkt" 221 -111 basechar 0
LayerCount: 2
Fore
SplineSet
468 645 m 2
 492 645 515 646 531 648 c 1
 533 645 l 1
 532 631 531 618 531 610 c 0
 531 601 532 567 533 559 c 1
 531 555 l 1
 531 555 384 577 250 577 c 1
 243 553 242 462 242 445 c 2
 242 362 l 1
 360 362 420 367 479 372 c 1
 482 369 l 1
 480 360 479 341 479 332 c 0
 479 323 480 303 482 294 c 1
 479 291 l 1
 410 298 290 301 242 301 c 1
 242 200 l 2
 242 125 244 57 252 0 c 1
 250 -3 l 1
 250 -3 206 0 172 0 c 0
 137 0 87 -3 87 -3 c 1
 86 0 l 1
 94 54 98 125 98 200 c 2
 98 445 l 2
 98 520 94 588 86 645 c 1
 88 648 l 1
 88 648 138 645 172 645 c 2
 468 645 l 2
EndSplineSet
EndChar

StartChar: u1D5DA
Encoding: 120282 120282 6
Width: 753
VWidth: 999
Flags: W
TopAccentHorizontal: 372
HStem: -10 55<333.527 517.526> 602 56<305.722 489.285>
VStem: 52 161<198.564 433.211> 539 138<83.3557 304.327>
AnchorPoint: "unten_punkt" 374 -111 basechar 0
LayerCount: 2
Fore
SplineSet
539 117 m 2
 539 192 537 250 529 307 c 1
 531 310 l 1
 531 310 579 307 613 307 c 0
 648 307 686 310 686 310 c 1
 687 307 l 1
 679 254 677 212 677 137 c 0
 677 104.6 680.9 90.5 687 83 c 1
 687 80 l 1
 619.5 23.4 506.5 -10 390 -10 c 0
 307.7 -10 253.8 7.6 194 48 c 0
 107.8 106.3 52 204.8 52 307 c 0
 52 420 96.4 515.5 171 575 c 0
 240 630 305 658 405 658 c 0
 527 658 644 613 644 613 c 1
 646 610 l 1
 634.2 560.7 629.6 531 626 480 c 1
 596 479 l 1
 555 561 469.1 602 391 602 c 0
 256 602 213 488 213 327 c 0
 213 195 277 45 413 45 c 0
 467 45 505 51 539 83 c 1
 539 117 l 2
EndSplineSet
EndChar

StartChar: u1D5DB
Encoding: 120283 120283 7
Width: 764
VWidth: 999
Flags: W
TopAccentHorizontal: 384
HStem: -3 21<81 165 165 249 515 599 599 683> 311 52<227 539> 628 20<81 165 165 249 515 599 599 683>
VStem: 93 144<2.67992 642.32> 527 144<2.67992 642.32>
AnchorPoint: "unten_punkt" 380 -107 basechar 0
LayerCount: 2
Fore
SplineSet
527 445 m 2
 527 520 523 588 515 645 c 1
 517 648 l 1
 517 648 565 645 599 645 c 0
 634 645 682 648 682 648 c 1
 683 645 l 1
 675 592 671 520 671 445 c 2
 671 200 l 2
 671 125 675 57 683 0 c 1
 681 -3 l 1
 681 -3 633 0 599 0 c 0
 564 0 516 -3 516 -3 c 1
 515 0 l 1
 523 54 527 125 527 200 c 2
 527 311 l 1
 237 311 l 1
 237 200 l 2
 237 125 241 57 249 0 c 1
 247 -3 l 1
 247 -3 199 0 165 0 c 0
 130 0 82 -3 82 -3 c 1
 81 0 l 1
 89 54 93 125 93 200 c 2
 93 445 l 2
 93 520 89 588 81 645 c 1
 83 648 l 1
 83 648 131 645 165 645 c 0
 200 645 248 648 248 648 c 1
 249 645 l 1
 241 592 237 520 237 445 c 2
 237 363 l 1
 527 363 l 1
 527 445 l 2
EndSplineSet
Colour: ff80cc
EndChar

StartChar: u1D5DC
Encoding: 120284 120284 8
Width: 330
VWidth: 999
Flags: W
TopAccentHorizontal: 169
HStem: -3 21G<81 165 165 249> 628 20G<81 165 165 249>
VStem: 93 144<2.67992 642.32>
AnchorPoint: "unten_punkt" 166 -109 basechar 0
LayerCount: 2
Fore
SplineSet
93 445 m 2
 93 520 89 588 81 645 c 1
 83 648 l 1
 83 648 131 645 165 645 c 0
 200 645 248 648 248 648 c 1
 249 645 l 1
 241 592 237 520 237 445 c 2
 237 200 l 2
 237 125 241 57 249 0 c 1
 247 -3 l 1
 247 -3 199 0 165 0 c 0
 130 0 82 -3 82 -3 c 1
 81 0 l 1
 89 54 93 125 93 200 c 2
 93 445 l 2
EndSplineSet
EndChar

StartChar: u1D5DD
Encoding: 120285 120285 9
Width: 375
VWidth: 999
Flags: W
TopAccentHorizontal: 218
HStem: -201 82<15.5 123.431> 628 20G<130 214 214 294>
VStem: 140 144<-41.4028 642.32>
LayerCount: 2
Fore
SplineSet
140 155 m 2
 140 445 l 2
 140 520 138 588 130 645 c 1
 132 648 l 1
 132 648 180 645 214 645 c 0
 249 645 293 648 293 648 c 1
 294 645 l 1
 286 592 285 522 284 445 c 0
 282.5 329.9 281.8 226 284 117 c 0
 286.4 0 263 -61 221 -110 c 0
 166.2 -174 88 -201 25 -201 c 0
 6 -201 -42 -197 -50 -192 c 1
 -51 -189 l 1
 -40 -170 -24 -97 -24 -68 c 1
 5 -62 l 1
 16 -82 52.9 -119 91 -119 c 0
 125 -119 142 -66.1 142 -24 c 0
 142 45.8 140 114 140 155 c 2
EndSplineSet
EndChar

StartChar: u1D5DE
Encoding: 120286 120286 10
Width: 712
VWidth: 999
Flags: W
TopAccentHorizontal: 355
HStem: -3 21G<81 165 165 249 468 521.5 688.746 697.5> 319 35<233 258.714> 628 20G<81 165 165 249 482.5 533.5 653 689>
VStem: 93 144<2.67992 642.32>
AnchorPoint: "unten_punkt" 362 -109 basechar 0
LayerCount: 2
Fore
SplineSet
93 445 m 2
 93 520 89 588 81 645 c 1
 83 648 l 1
 83 648 131 645 165 645 c 0
 200 645 248 648 248 648 c 1
 249 645 l 1
 241 592 237 520 237 445 c 2
 237 354 l 2
 237.3 354 237.7 354 238 354 c 0
 242 354 254 356 262 363 c 0
 350 440 438 546 527 648 c 1
 540 645 593 645 606 645 c 0
 621 645 681 645 697 648 c 1
 609 571 451 433 383 354 c 1
 383 352 l 1
 707 -3 l 1
 688 0 624 0 605 0 c 0
 588 0 530 0 513 -3 c 1
 423 108 300 271 259 312 c 0
 253 317 240 319 237 319 c 1
 237 200 l 2
 237 125 241 57 249 0 c 1
 247 -3 l 1
 247 -3 199 0 165 0 c 0
 130 0 82 -3 82 -3 c 1
 81 0 l 1
 89 54 93 125 93 200 c 2
 93 445 l 2
EndSplineSet
Colour: ff80cc
EndChar

StartChar: u1D5DF
Encoding: 120287 120287 11
Width: 588
VWidth: 999
Flags: W
TopAccentHorizontal: 177
HStem: 0 81<251.435 501.657> 628 20G<92 173 173 257>
VStem: 103 144<82.6682 642.32>
AnchorPoint: "unten_punkt" 280 -110 basechar 0
LayerCount: 2
Fore
SplineSet
247 210 m 2
 247 193 248 105 255 81 c 1
 389 81 541 103 541 103 c 1
 543 99 l 1
 542 91 541 52 541 42 c 0
 541 32 542 14 543 0 c 1
 541 -3 l 1
 525 -1 502 0 481 0 c 2
 177 0 l 2
 143 0 94 -3 94 -3 c 1
 93 0 l 1
 101 54 103 125 103 200 c 2
 103 445 l 2
 103 520 100 588 92 645 c 1
 94 648 l 1
 94 648 139 645 173 645 c 0
 208 645 256 648 256 648 c 1
 257 645 l 1
 249 592 247 520 247 445 c 2
 247 210 l 2
EndSplineSet
EndChar

StartChar: u1D5E0
Encoding: 120288 120288 12
Width: 921
Flags: W
TopAccentHorizontal: 416
HStem: -3 21G<34.5 50.4502 125.5 132.95 352.45 479.5 723 737.5 865.5 873.5> 633 20G<142.95 292.95 702.247 815>
VStem: 730 151<-3 155.834>
AnchorPoint: "unten_punkt" 413 -110 basechar 0
LayerCount: 2
Fore
SplineSet
161 653 m 1
 263 653 l 1
 322.9 492 380.9 346 459 188 c 1
 463 188 l 1
 713 653 l 1
 802 653 l 1
 828 407 850 214 881 -3 c 1
 866 0 823 0 808 0 c 0
 793 0 745 0 730 -3 c 1
 716 163 703 312 684 470 c 1
 681 470 l 1
 596.9 316.5 516 166 443 0 c 1
 379 0 l 1
 325.9 149.5 261.9 309 189 469 c 1
 186 470 l 1
 159.9 314.5 134.9 102.5 131 -3 c 1
 120 0 86 0 75 0 c 0
 63 0 40 0 29 -3 c 1
 71.9 188 124.9 439 161 653 c 1
EndSplineSet
EndChar

StartChar: u1D5E1
Encoding: 120289 120289 13
Width: 748
VWidth: 999
Flags: MW
TopAccentHorizontal: 365
HStem: -3 21G<80 126 126 172 499.5 565.25 652.875 661.268> 628 20G<91 153 153 258 574 626 626 677>
VStem: 96 70<2.67778 452.011> 587 74<200 642.32>
DStem2: 202 648 176 455 0.639524 -0.768771<131.745 588.456>
AnchorPoint: "unten_punkt" 368 -109 basechar 0
LayerCount: 2
Fore
SplineSet
101 445 m 2
 103 520 99 588 91 645 c 1
 93 648 l 1
 93 648 129.7 645 153 645 c 0
 171.3 645 202 648 202 648 c 1
 314 500.9 459.2 331.9 584 200.3 c 1
 587 200 l 1
 587 445 l 1
 584.9 520 582 588 574 645 c 1
 576 648 l 1
 576 648 601.7 645 626 645 c 0
 648.3 645 675 648 675 648 c 1
 677 645 l 1
 669 592 667 520 667 445 c 1
 661 -3 l 1
 644.8 -1 629 0 613 0 c 0
 596.8 0 573.5 -1.5 557 -3 c 1
 442 144.9 307 303.9 176 455 c 1
 170 455 l 1
 166 200 l 2
 164.8 122 164 57 172 0 c 1
 170 -3 l 1
 170 -3 150.3 0 126 0 c 0
 103.7 0 81 -3 81 -3 c 1
 80 0 l 1
 88 53 92.8 122.2 96 200 c 1
 101 445 l 2
EndSplineSet
EndChar

StartChar: u1D5E2
Encoding: 120290 120290 14
Width: 799
VWidth: 999
Flags: W
TopAccentHorizontal: 385
HStem: -10 55<326.227 500.597> 603 55<304.21 483.294>
VStem: 52 161<195.41 434.488> 586 161<199.404 453.39>
AnchorPoint: "unten_punkt" 381 -113 basechar 0
LayerCount: 2
Fore
SplineSet
384 603 m 0
 288 603 213 537 213 327 c 0
 213 135 298 45 418 45 c 0
 532 45 586 131 586 310 c 0
 586 518 525 603 384 603 c 0
747 329 m 0
 747 129 612.1 -10 398 -10 c 0
 200 -10 52 122 52 310 c 0
 52 506 194 658 397 658 c 0
 610 658 747 527 747 329 c 0
EndSplineSet
EndChar

StartChar: u1D5E3
Encoding: 120291 120291 15
Width: 598
VWidth: 999
Flags: W
TopAccentHorizontal: 296
HStem: -3 21G<81 165 165 247> 274 51<235.835 380.582> 604 48<202.526 387.538>
VStem: 93 142<2.67993 284 329.159 597.193> 422 151<399.424 566.15>
AnchorPoint: "unten_punkt" 260 -110 basechar 0
LayerCount: 2
Fore
SplineSet
235 560 m 2
 235 335 l 1
 248 328 289 325 314 325 c 0
 372.1 325 422 367 422 468 c 0
 422 587 374 604 315 604 c 0
 243 604 235 589 235 560 c 2
93 445 m 2
 93 520 89 588 81 645 c 1
 83 648 l 1
 83 648 131 645 165 645 c 0
 195 645 316 652 342 652 c 0
 413.1 652 467.7 642.6 503 618 c 0
 559 579 573 522.3 573 486 c 0
 573 383 507 274 325 274 c 0
 290 274 257 277 235 284 c 1
 235 200 l 2
 235 125 239 57 247 0 c 1
 245 -3 l 1
 245 -3 199 0 165 0 c 0
 130 0 82 -3 82 -3 c 1
 81 0 l 1
 89 54 93 125 93 200 c 2
 93 445 l 2
EndSplineSet
EndChar

StartChar: u1D5E4
Encoding: 120292 120292 16
Width: 799
VWidth: 999
Flags: W
ItalicCorrection: 31
TopAccentHorizontal: 346
HStem: -10 55<326.227 500.597> 603 55<304.21 483.294>
VStem: 52 161<195.41 434.488> 586 161<199.404 453.39>
LayerCount: 2
Fore
SplineSet
384 603 m 0
 288 603 213 537 213 327 c 0
 213 135 298 45 418 45 c 0
 532 45 586 131 586 310 c 0
 586 518 525 603 384 603 c 0
590.3 37.2 m 1
 645.3 4.7 717.9 -40.6 810 -72 c 1
 810 -78 l 1
 774 -97 715 -129 696 -144 c 1
 589.6 -83.5 593.2 -65.1 478.3 -2.9 c 1
 453 -7.5 426.2 -10 398 -10 c 0
 200 -10 52 122 52 310 c 0
 52 506 194 658 397 658 c 0
 610 658 747 527 747 329 c 0
 747 198.6 689.6 94.1 590.3 37.2 c 1
EndSplineSet
Colour: ff80cc
EndChar

StartChar: u1D5E5
Encoding: 120293 120293 17
Width: 687
VWidth: 999
Flags: W
TopAccentHorizontal: 288
HStem: -3 21G<91 173 173 255 483.5 498.5 650 662> 296 56<245 372.037> 602 50<216.035 416.763>
VStem: 103 142<2.67993 296 352 588.462> 442 155<399.597 572.436>
AnchorPoint: "unten_punkt" 278 -111 basechar 0
LayerCount: 2
Fore
SplineSet
334 602 m 0
 263 602 245 582 245 553 c 2
 245 352 l 1
 299 352 l 2
 396 352 442 357 442 482 c 0
 442 600 395 602 334 602 c 0
245 296 m 1
 245 200 l 2
 245 125 247 57 255 0 c 1
 253 -3 l 1
 253 -3 207 0 173 0 c 0
 138 0 92 -3 92 -3 c 1
 91 0 l 1
 99 54 103 125 103 200 c 2
 103 445 l 2
 103 520 99 588 91 645 c 1
 93 648 l 1
 93 648 143 645 177 645 c 0
 207 645 328 652 353 652 c 0
 418.9 652 485.7 648 532 618 c 0
 572.7 591.6 597 547.8 597 483 c 0
 597 382.7 528.6 336.1 444.3 314.5 c 1
 507.3 231 611 57.7 662 0 c 1
 660 -3 l 1
 640 0 587 0 567 0 c 0
 548 0 508 0 489 -3 c 1
 478 31 434 104 384 176 c 0
 356.7 214.8 330.1 262.1 301.6 296.8 c 1
 281.9 296.1 262.8 296 245 296 c 1
EndSplineSet
EndChar

StartChar: u1D5E6
Encoding: 120294 120294 18
Width: 542
VWidth: 999
Flags: W
TopAccentHorizontal: 264
HStem: -10 52<182.819 316.888> 609 49<216.112 333.131>
VStem: 47 136<442.917 561.704> 346 137<103.835 197.396>
AnchorPoint: "unten_punkt" 247 -111 basechar 0
LayerCount: 2
Fore
SplineSet
253 42 m 0
 313.2 42 346 74 346 145 c 0
 346 186 306 226 259 250 c 0
 201.7 279.3 124.3 316.7 78 377 c 0
 54.2 408 47 446.9 47 485 c 0
 47 591 150 658 263 658 c 0
 385 658 467 613 467 613 c 1
 469 610 l 1
 460 580 453 526 449 490 c 1
 419 489 l 1
 393 538 334 609 274 609 c 0
 219.5 609 183 562 183 512 c 0
 183 438.9 231 414 285 389 c 0
 365.9 351.5 483 295 483 186 c 0
 483 84 391 -10 244 -10 c 0
 122 -10 29 35 29 35 c 1
 27 38 l 1
 35 68 43 124 47 160 c 1
 73 161 l 1
 108 108 192 42 253 42 c 0
EndSplineSet
EndChar

StartChar: u1D5E7
Encoding: 120295 120295 19
Width: 602
VWidth: 999
Flags: W
TopAccentHorizontal: 288
HStem: -3 21G<219 301 301 383> 567 78<17.7551 224.565 377.435 584.245>
VStem: 229 144<2.67992 565.827>
AnchorPoint: "unten_punkt" 293 -107 basechar 0
LayerCount: 2
Fore
SplineSet
229 436 m 2
 229 453 228 543 221 567 c 1
 87 567 17 545 17 545 c 1
 15 549 l 1
 17 564 17 617 15 645 c 1
 17 648 l 1
 33 646 56 645 77 645 c 2
 525 645 l 2
 546 645 569 646 585 648 c 1
 587 645 l 1
 585 617 585 564 587 549 c 1
 585 545 l 1
 585 545 515 567 381 567 c 1
 374 543 373 453 373 436 c 2
 373 200 l 2
 373 125 375 57 383 0 c 1
 381 -3 l 1
 381 -3 335 0 301 0 c 0
 266 0 220 -3 220 -3 c 1
 219 0 l 1
 227 54 229 125 229 200 c 2
 229 436 l 2
EndSplineSet
EndChar

StartChar: u1D5E8
Encoding: 120296 120296 20
Width: 719
VWidth: 999
Flags: W
TopAccentHorizontal: 365
HStem: -10 65<304.406 470.785> 628 20G<76 156 156 240 537 590 590 642>
VStem: 86 144<144.56 642.32> 547 85<148.731 642.32>
AnchorPoint: "unten_punkt" 348 -109 basechar 0
LayerCount: 2
Fore
SplineSet
547 445 m 2
 547 520 545 588 537 645 c 1
 539 648 l 1
 539 648 565.7 645 590 645 c 0
 612.3 645 641 648 641 648 c 1
 642 645 l 1
 634 592 632 520 632 445 c 2
 632 295 l 2
 632 108 556 -10 358 -10 c 0
 253.7 -10 86 32 86 236 c 2
 86 445 l 2
 86 520 84 588 76 645 c 1
 78 648 l 1
 78 648 122 645 156 645 c 0
 191 645 239 648 239 648 c 1
 240 645 l 1
 232 592 230 520 230 445 c 2
 230 269 l 2
 230 194 246 55 379 55 c 0
 524.2 55 547 165 547 277 c 2
 547 445 l 2
EndSplineSet
EndChar

StartChar: u1D5E9
Encoding: 120297 120297 21
Width: 672
Flags: W
TopAccentHorizontal: 349
HStem: -10 21G<244 407> 628 20G<24.5 41 184.5 197.679 532.381 554 603.5 648>
AnchorPoint: "unten_punkt" 323 -108 basechar 0
LayerCount: 2
Fore
SplineSet
364.1 178.8 m 1
 432.9 337.7 516.8 531.1 548 648 c 1
 560 645 595 645 606 645 c 0
 617 645 642 645 654 648 c 1
 553 427 455 215 359 -7 c 1
 290 -7 l 1
 198 212 66 547 16 648 c 1
 33 645 100 645 117 645 c 0
 134 645 176 645 193 648 c 1
 202.4 615.2 247.7 454.2 364.1 178.8 c 1
EndSplineSet
EndChar

StartChar: u1D5EA
Encoding: 120298 120298 22
Width: 1043
Flags: W
TopAccentHorizontal: 459
HStem: -10 21G<254 398.967 615 778> 628 20G<24.5 41 179.5 193 405.5 422 565.5 579 902 925 974.5 1019>
AnchorPoint: "unten_punkt" 479 -107 basechar 0
LayerCount: 2
Fore
SplineSet
735.2 178.6 m 1
 804.3 337.5 888.1 530.7 919 648 c 1
 931 645 959 645 970 645 c 0
 981 645 1013 645 1025 648 c 1
 924 427 826 215 730 -7 c 1
 661 -7 l 1
 621.5 87.1 576.4 202.5 533.9 311.6 c 1
 390 -7 l 1
 300 -7 l 1
 208 212 66 547 16 648 c 1
 33 645 100 645 117 645 c 0
 134 645 171 645 188 648 c 1
 197.8 613.8 257.1 442.5 385.5 145 c 1
 420.4 225.8 460.8 318.4 496.9 406.5 c 1
 455.4 512.6 419.1 603.3 397 648 c 1
 414 645 461 645 478 645 c 0
 495 645 557 645 574 648 c 1
 583.5 614.8 619.9 454.1 735.2 178.6 c 1
EndSplineSet
EndChar

StartChar: u1D5EB
Encoding: 120299 120299 23
Width: 672
Flags: W
TopAccentHorizontal: 351
HStem: -3 21G<17 62.2651 128 159.076 443.368 477 610.089 651> 628 20G<24.5 67.1636 196 220.128 481.034 514 608.918 626>
AnchorPoint: "unten_punkt" 327 -107 basechar 0
LayerCount: 2
Fore
SplineSet
661 -3 m 1
 641 0 593 0 573 0 c 0
 553 0 487 0 467 -3 c 1
 419.7 78.2 359.5 176.4 311.3 250.7 c 0
 308.3 256.6 305.9 255.2 303.7 252.3 c 0
 250.1 177.8 184.2 79.8 134 -3 c 1
 122 0 94 0 81 0 c 0
 69 0 23 0 11 -3 c 1
 113.5 132.7 196.4 239.9 253.5 314 c 1
 193.5 402.2 119.3 505.9 15 648 c 1
 34 645 105 645 124 645 c 0
 143 645 186 645 206 648 c 1
 234.3 595.4 275.1 532.8 340.9 437 c 0
 349 426.3 351 424 356.4 428.9 c 1
 426.9 520.9 454.1 559.4 508 648 c 1
 520 645 562 645 574 645 c 0
 586 645 620 645 632 648 c 1
 585.8 590 500.5 489.9 404.3 365 c 1
 466.8 275 559.2 144.7 661 -3 c 1
EndSplineSet
EndChar

StartChar: u1D5EC
Encoding: 120300 120300 24
Width: 653
Flags: W
TopAccentHorizontal: 313
HStem: -3 21G<251.856 257 406 411.839> 628 20G<24.5 35.9923 183.5 217.394 497.341 527 570.247 619.5>
VStem: 256 150.2<2.08823 307.334>
AnchorPoint: "unten_punkt" 315 -109 basechar 0
LayerCount: 2
Fore
SplineSet
406.2 304.2 m 1
 406.9 205.1 409.7 48 414 -3 c 1
 398 0 346 0 331 0 c 0
 316 0 265 0 249 -3 c 1
 254.7 52.5 255.8 177.5 256 275.1 c 1
 217.9 340.2 56 588 16 648 c 1
 33 645 97 645 114 645 c 0
 131 645 175 645 192 648 c 1
 242.8 548.3 297.9 458.8 357.2 357.5 c 1
 412.3 445.1 473.7 549.7 521 648 c 1
 533 645 566 645 579 645 c 0
 591 645 613 645 626 648 c 1
 514.5 477.5 448 380.9 406.2 304.2 c 1
EndSplineSet
EndChar

StartChar: u1D5ED
Encoding: 120301 120301 25
Width: 645
VWidth: 999
Flags: W
TopAccentHorizontal: 339
HStem: 0 63<208 433.216> 561 84<60 305.738>
AnchorPoint: "unten_punkt" 307 -107 basechar 0
LayerCount: 2
Fore
SplineSet
208 63 m 1
 339 63 608 84 608 84 c 1
 610 81 l 1
 609 73 608 48 608 38 c 0
 608 28 609 14 610 0 c 1
 608 -3 l 1
 592 -1 572.8 0 537 0 c 2
 154 0 l 2
 124 0 5 -3 5 -3 c 1
 2 1 l 1
 13 15 22 30 28 38 c 2
 419.5 582.6 l 2
 419.4 582.5 60 561 60 561 c 2
 58 564 l 1
 59 572 60 597 60 607 c 0
 60 617 59 631 58 645 c 1
 60 648 l 1
 76 646 99 645 121 645 c 2
 486 645 l 2
 517 645 595.5 648.8 612 651 c 0
 616.5 651 618 649 618 645 c 0
 618 634 608 619 588 591 c 0
 211.1 69.4 208 66.8 208 63 c 1
EndSplineSet
EndChar

StartChar: u1D5EE
Encoding: 120302 120302 26
Width: 516
VWidth: 999
Flags: W
TopAccentHorizontal: 249
HStem: -10 60<136 258.155 437.552 489.224> 385 54<175.656 291.674>
VStem: 34 134<62.0884 164.206> 311 130<84.3444 222 271.049 367.104>
DStem2: 188 240 231 201 0.966645 0.25612<-22.5783 114.287>
AnchorPoint: "unten_punkt" 235 -108 basechar 0
LayerCount: 2
Fore
SplineSet
311 222 m 1
 231 201 l 2
 180.8 187.8 168 143.1 168 107 c 0
 168 80 190 50 220 50 c 0
 248 50 271 61 294 84 c 0
 301.1 91.1 309 116 309 129 c 2
 311 222 l 1
437 80 m 0
 437 47 458 44 498 44 c 1
 504 39 506.7 31.7 508 23 c 1
 478 0 428.1 -10 389 -10 c 0
 346 -10 324 7 310 48 c 1
 308 48 l 1
 263 3 210.1 -10 171 -10 c 0
 101 -10 34 29 34 98 c 0
 34 166 92 217 188 240 c 1
 305 271 l 2
 308 272 311 276 311 283 c 0
 311 360.1 286 385 242 385 c 0
 197 385 153 356 119 306 c 1
 86 307 l 1
 66 382 l 1
 69 386 l 1
 93 407 189 439 261 439 c 0
 309.1 439 369.3 427.5 401 399.1 c 0
 428.6 374.3 441 337.1 441 277 c 0
 441 266 437 109 437 80 c 0
EndSplineSet
Substitution2: "'sups' Hochgestellte 1" u1D5EE.superior
Substitution2: "'sinf' Wissenschaftliche Indices 1" u1D5EE.inferior
EndChar

StartChar: u1D5EF
Encoding: 120303 120303 27
Width: 586
VWidth: 999
Flags: W
TopAccentHorizontal: 318
HStem: -10 50<227.069 365.494> 371 68<269.478 368.418> 678 20G<208.465 224.167>
VStem: 86 132<52.4208 342.501 384 659.981> 406 142<129.939 327.644>
AnchorPoint: "unten_punkt" 300 -108 basechar 0
LayerCount: 2
Fore
SplineSet
235.3 53.8 m 0
 250.6 44 274 40 308 40 c 0
 336.3 40 366.5 51.5 384 87.5 c 0
 399.4 119.1 406 165.2 406 222 c 0
 406 319 373 371 312 371 c 0
 287.9 371 267 363 218 328 c 1
 218 108 l 2
 218 80.4 220.9 63 235.3 53.8 c 0
218 500 m 2
 218 384 l 1
 278 429 313 439 356 439 c 0
 409.1 439 453.6 425.2 493 389 c 0
 529.8 355.2 548 301 548 242 c 0
 548 152.6 512.5 84.6 464 43 c 0
 420.2 5.5 366.2 -10 314 -10 c 0
 278.4 -10 233.8 -8.7 217.7 -2 c 0
 201.7 4.6 171.7 11 161 11 c 0
 146.5 11 101.2 -9 89 -11 c 1
 83 -9.7 80.7 -8 78 -6 c 1
 82.2 15.8 86 95 86 134 c 2
 86 474 l 2
 86 550 81.7 619.3 74 662 c 1
 76 665 l 1
 116.5 668 195.9 688 221 698 c 1
 227.3 698 230 695 230 688 c 0
 222.3 626.7 218 574 218 500 c 2
EndSplineSet
Substitution2: "'sinf' Wissenschaftliche Indices 1" u1D5EF.inferior
Substitution2: "'sups' Hochgestellte 1" u1D5EF.superior
EndChar

StartChar: u1D5F0
Encoding: 120304 120304 28
Width: 472
VWidth: 999
Flags: MW
TopAccentHorizontal: 301
HStem: -10 50<243.195 382.695> 389 50<230.105 344.258>
VStem: 42 139<109.909 310.735>
AnchorPoint: "unten_punkt" 292 -113 basechar 0
LayerCount: 2
Fore
SplineSet
297 389 m 0
 261.8 389 227.7 372.2 208.4 341 c 0
 191.5 313.8 184 275.6 184 228 c 0
 184 170.8 196 123 214 94 c 0
 232 65 272 40 301 40 c 0
 341 40 390 54 418 88 c 1
 434 83 l 1
 434 67 436.8 53.5 439 44 c 1
 394 6 350.4 -10 274 -10 c 0
 198.8 -10 131.7 15 96 54 c 0
 62.4 90.7 42 139.5 42 202 c 0
 42 359 154 439 288 439 c 0
 338 439 406 422 437 406 c 1
 439 403 l 1
 415 306 l 1
 387 305 l 1
 365 360 335.5 389 297 389 c 0
EndSplineSet
Substitution2: "'sinf' Wissenschaftliche Indices 1" u1D5F0.inferior
Substitution2: "'sups' Hochgestellte 1" u1D5F0.superior
EndChar

StartChar: u1D5F1
Encoding: 120305 120305 29
Width: 591
VWidth: 999
Flags: W
TopAccentHorizontal: 282
HStem: -10 58<224.3 328.638> -3 21G<386 395.667 515.5 524> 389 50<223.989 336.055> 678 20G<493.465 509.167>
VStem: 44 142<98.9094 311.576> 373 132<90.6895 351.125 394 659.981>
AnchorPoint: "unten_punkt" 322 -107 basechar 0
LayerCount: 2
Fore
SplineSet
373 133 m 1xbc
 373 303 l 1
 362.5 354.5 325 389 278 389 c 0
 229.6 389 186 356 186 221 c 0
 186 96 222 48 276 48 c 0
 316.5 48 348.5 69 373 133 c 1xbc
373 54 m 1
 346 7.5 293 -10 230 -10 c 0xbc
 119 -10 44 80 44 203 c 0
 44 274.9 68 347.5 130 392.5 c 0
 175.9 425.8 212 439 279 439 c 0
 307.5 439 354 421 373 394 c 1
 373 474 l 2
 373 550 368.7 619.3 361 662 c 1
 363 665 l 1
 403.5 668 480.9 688 506 698 c 1
 512.3 698 517 695 517 688 c 0
 509.3 626.7 505 574 505 500 c 2
 505 192 l 2
 505 117 516 43 524 0 c 1
 522 -3 l 1
 509 -1 465.1 0 452.5 0 c 0
 438 0 402.3 -1.3 389 -3 c 0x7c
 383 -3 380 -2 380 0 c 2
 375 54 l 1
 373 54 l 1
EndSplineSet
Substitution2: "'sinf' Wissenschaftliche Indices 1" u1D5F1.inferior
Substitution2: "'sups' Hochgestellte 1" u1D5F1.superior
EndChar

StartChar: u1D5F2
Encoding: 120306 120306 30
Width: 508
Flags: W
TopAccentHorizontal: 277
HStem: -10 76<225.576 374.714> 210 45<173 329> 389 50<210.825 301.147>
VStem: 35 134<120.612 210 255 310.715> 329 131<255 344.57>
AnchorPoint: "unten_punkt" 258.9 -108 basechar 0
LayerCount: 2
Fore
SplineSet
173 255 m 1
 329 255 l 1
 329 342.5 304.9 389 264 389 c 0
 235.7 389 216.2 376.3 203.5 359 c 0
 188.7 338.8 176.5 304 173 255 c 1
448 107 m 1
 458 107 464 89 464 76 c 1
 409.5 13 338 -10 266 -10 c 0
 191 -10 132.2 6.5 98 42 c 0
 56.7 84.9 35 147 35 206 c 0
 35 288.9 68 349 116.5 389 c 0
 156.2 421.7 216 439 271 439 c 0
 425 439 460 339 460 214 c 1
 454 208 l 1
 454 208 368.5 210 268.5 210 c 2
 169 210 l 1
 169 164.1 180.2 129 202.2 105 c 0
 226 79.1 262.4 66 311 66 c 0
 353 66 401.5 69.5 448 107 c 1
EndSplineSet
Substitution2: "'sups' Hochgestellte 1" u1D5F2.superior
Substitution2: "'sinf' Wissenschaftliche Indices 1" u1D5F2.inferior
EndChar

StartChar: u1D5F3
Encoding: 120307 120307 31
Width: 366
VWidth: 999
Flags: W
ItalicCorrection: 70
TopAccentHorizontal: 300
HStem: -3 21G<86 162 162 233> 379 50<29.5626 93 222 336.312> 580 104<352.294 396.013> 629 69<241.074 347.239>
VStem: 93 129<2.72528 378.996 429.011 533.948> 363 30<580 605.498>
AnchorPoint: "unten_punkt" 161 -111 basechar 0
LayerCount: 2
Fore
SplineSet
222 379 m 1xdc
 225 200 l 2
 226.3 124.9 226 58 233 0 c 1
 231 -3 l 1
 231 -3 196.3 0 162 0 c 0
 127 0 87 -3 87 -3 c 1
 86 0 l 1
 93 51 93 125 93 200 c 2
 93 379 l 1
 70.2 378.9 39.2 378.3 22 377 c 1
 17 384 l 1
 26.7 399 33.5 415 39 432 c 1
 51.4 430.4 72.5 429.1 93 429 c 1
 93 459 l 2
 93 520 118 583 162 629 c 0
 204 672.9 264.4 698 340 698 c 0xdc
 371.4 698 407 689 415 684 c 1
 416 681 l 1
 407 660.5 396 608 393 580 c 1xec
 363 579 l 1
 355.4 607.9 328 629 299 629 c 0
 245 629 215 590.2 215 535 c 0
 215 513 222 464.5 222 439 c 2
 222 429 l 1
 269 429 l 2
 292 429 320.4 430.4 339 432 c 1
 344 424 l 1
 338 409.3 333.5 392 332 377 c 1
 318.7 378.3 284 379 260 379 c 2
 222 379 l 1xdc
EndSplineSet
Substitution2: "'sups' Hochgestellte 1" u1D5F3.superior
Substitution2: "'sinf' Wissenschaftliche Indices 1" u1D5F3.inferior
EndChar

StartChar: u1D5F4
Encoding: 120308 120308 32
Width: 561
VWidth: 999
Flags: W
TopAccentHorizontal: 240
HStem: -238 45<186.075 347.737> -18 77<180.026 292.771> -17 83<218.306 376.027> 141 40<204.851 304.686> 399 40<209.818 307.53>
VStem: 32 119<-160.411 -47.0122> 54 133<213.662 359.842> 59 112<65.7191 118.083> 326 133<216.765 354.388> 400 130<-132.575 -41.5108>
AnchorPoint: "unten_punkt" 245 -88 basechar 0
LayerCount: 2
Fore
SplineSet
459 289 m 0xba80
 459 195.9 374 141 258 141 c 0
 223.9 141 196.8 146 182.5 152 c 1
 171.5 135 171 123.1 171 107 c 0
 171 64 201 59 229 59 c 0xd980
 234 59 234 60 248 61 c 0
 271 64 294 66 311 66 c 0
 403 66 530 46 530 -68 c 0
 530 -121.4 485.5 -171.5 426.5 -200.5 c 0
 366.1 -230.2 290.3 -238 225 -238 c 0
 135.8 -238 32 -211 32 -124 c 0xbc40
 32 -99.2 37 -68 54 -46 c 1xba
 78 -32 116.4 -17.6 138 -4 c 1
 82.5 4.5 59 32 59 74 c 0xb9
 59 106.8 101.5 145 146 160 c 1
 148 165 l 1
 148 165 123.3 172.6 108.5 183 c 0
 82.8 201 54 229 54 285 c 0
 54 381 143 439 251 439 c 0
 272.5 439 305.4 436 323.3 430.4 c 1
 397.9 434.3 461.2 434.9 509 439 c 1
 512 436 l 1
 510 427 509 416 509 407 c 0
 509 398 510 389 512 380 c 1
 509 377 l 1
 474.2 379.4 437.7 385.1 407.9 385.6 c 1
 439 364.6 459 323.5 459 289 c 0xba80
326 288 m 0
 326 363 315 399 255 399 c 0
 203 399 187 356 187 290 c 0x9a80
 187 217 197 181 258 181 c 0
 306 181 326 217 326 288 c 0
183 -16 m 1
 157 -43 151 -70.9 151 -104 c 0
 151 -172 219 -193 253 -193 c 0
 339 -193 400 -152 400 -91 c 0
 400 -21.8 332 -17 276 -17 c 0xbc40
 262.2 -17 235.5 -18 206 -18 c 0xdc40
 197 -18 189.4 -16.8 183 -16 c 1
EndSplineSet
Substitution2: "'sinf' Wissenschaftliche Indices 1" u1D5F4.inferior
Substitution2: "'sups' Hochgestellte 1" u1D5F4.superior
EndChar

StartChar: u1D5F5
Encoding: 120309 120309 33
Width: 606
VWidth: 999
Flags: W
TopAccentHorizontal: 355
HStem: -3 21G<74 155 155 224 380 465 465 528> 362 77<304.364 434> 678 20G<206.465 222.167>
VStem: 86 132<2.6647 307.95 351 659.981> 386 132<2.6647 348.673>
AnchorPoint: "unten_punkt" 340 -111 basechar 0
LayerCount: 2
Fore
SplineSet
86 474 m 2
 86 550 81.7 619.3 74 662 c 1
 76 665 l 1
 116.5 668 193.9 688 219 698 c 1
 225.3 698 228 695 228 688 c 0
 220.3 626.7 218 575 218 500 c 2
 218 438 l 1
 214 351 l 1
 218 349 l 1
 264 408 338 439 389 439 c 0
 479 439 518 381 518 291 c 2
 518 180 l 2
 518 104 519 57 528 0 c 1
 526 -3 l 1
 526 -3 499 0 465 0 c 0
 430 0 381 -3 381 -3 c 1
 380 0 l 1
 386 53 386 105 386 180 c 2
 386 269 l 2
 386 342 361 362 334 362 c 0
 298 362 256 332 218 282 c 1
 218 180 l 2
 218 104 219 57 224 0 c 1
 222 -3 l 1
 222 -3 189.3 0 155 0 c 0
 120 0 75 -3 75 -3 c 1
 74 0 l 1
 82.5 53.5 86 105 86 180 c 2
 86 474 l 2
EndSplineSet
Substitution2: "'sinf' Wissenschaftliche Indices 1" u1D5F5.inferior
Substitution2: "'sups' Hochgestellte 1" u1D5F5.superior
EndChar

StartChar: u1D5F6
Encoding: 120310 120310 34
Width: 312
VWidth: 999
Flags: W
TopAccentHorizontal: 156
HStem: -3 21<80 92.3333 80 92.3333 220.667 232 220.667 232> 412 20<80 91.8333 80 91.8333 216.167 226 216.167 226> 538 138<104.319 207.681 104.319 207.681 104.319 207.681 104.319 207.681>
VStem: 85 142<557.092 656.908 557.092 656.908 557.092 656.908 557.092 656.908> 90 132<2.6647 421.2 2.6647 421.2>
AnchorPoint: "unten_punkt" 136 -107 basechar 0
LayerCount: 2
Fore
SplineSet
85 607 m 0xf0
 85 645 116 676 156 676 c 0
 196 676 227 645 227 607 c 0
 227 569 196 538 156 538 c 0
 116 538 85 569 85 607 c 0xf0
90 235 m 2xe8
 90 310 88 385 80 428 c 1
 83 432 l 1
 100.7 430.7 128 429 154 429 c 0
 182 429 209.3 432 223 434 c 0
 229 434 232 431 232 424 c 0
 225.7 364 222 321 222 246 c 2
 222 180 l 2
 222 104 224 57 232 0 c 1
 230 -3 l 1
 211.3 -1 190 0 156 0 c 0
 121 0 102.7 -0.7 82 -3 c 1
 80 0 l 1
 88 54 90 105 90 180 c 2
 90 235 l 2xe8
EndSplineSet
Substitution2: "'sups' Hochgestellte 1" u1D5F6.superior
Substitution2: "'sinf' Wissenschaftliche Indices 1" u1D5F6.inferior
Colour: ff00ff
EndChar

StartChar: u1D5F7
Encoding: 120311 120311 35
Width: 350
VWidth: 999
Flags: W
TopAccentHorizontal: 191
HStem: -232 88<14.6589 93.1461> 412 20<117 129.237 253.006 263> 538 138<141.319 244.681 141.319 244.681>
VStem: 122 142<557.092 656.908 557.092 656.908> 126 132<-101.067 421.154>
LayerCount: 2
Fore
SplineSet
122 607 m 0xf0
 122 645 153 676 193 676 c 0
 233 676 264 645 264 607 c 0
 264 569 233 538 193 538 c 0
 153 538 122 569 122 607 c 0xf0
127 235 m 2
 127.6 310.5 125 385 117 428 c 1
 120 432 l 1
 138.5 431.5 165 429 191 429 c 0
 219 429 246 432.4 260 434 c 0
 266 434 269 431 269 424 c 0
 264 363 260.7 321 260 246 c 2
 258 29 l 2
 257.3 -44 242 -111 209 -158 c 0
 176.1 -204.8 102 -232 44 -232 c 0
 26 -232 -27 -228 -34 -224 c 1
 -35 -221 l 1
 -30 -203 -30 -141 -30 -108 c 1
 -3 -101 l 1
 7 -119 34 -144 61 -144 c 0
 123.1 -144 125.1 11.5 126 116 c 2xe8
 127 235 l 2
EndSplineSet
Substitution2: "'sups' Hochgestellte 1" u1D5F7.superior
Substitution2: "'sinf' Wissenschaftliche Indices 1" u1D5F7.inferior
Colour: ff00ff
EndChar

StartChar: u1D5F8
Encoding: 120312 120312 36
Width: 582
VWidth: 999
Flags: W
TopAccentHorizontal: 266
HStem: -3 21G<74 152 152 230 362.45 396.667 568.5 575> 215 34<209 243.571> 412 20G<542.5 554> 678 20<206.465 222.167>
VStem: 86 132<2.67975 659.981>
AnchorPoint: "unten_punkt" 253 -107 basechar 0
LayerCount: 2
Fore
SplineSet
86 200 m 2
 86 474 l 2
 86 550 81.7 619.3 74 662 c 1
 76 665 l 1
 116.5 668 193.9 688 219 698 c 1
 225.3 698 230 695 230 688 c 0
 222.3 626.7 218 575 218 500 c 2
 218 249.6 l 1
 231.7 251.2 252.7 256.1 263 264 c 0
 302.6 294.5 356 364 395 429 c 1
 422 429 533 429 552 432 c 1
 554 429 l 1
 472.9 367.9 388.5 293 352 252 c 1
 447 136.5 500.6 78.6 575 0 c 1
 573 -3 l 1
 564 -1.2 485.7 0 469 0 c 0
 452 0 404.3 -1.2 389 -3 c 1
 335.9 92.9 305.9 136.9 244 206 c 0
 237.7 211.6 226.5 213.8 218 214.6 c 1
 218 200 l 2
 218 124.8 221.5 57 230 0 c 1
 228 -3 l 1
 228 -3 186.3 0 152 0 c 0
 117 0 75 -3 75 -3 c 1
 74 0 l 1
 82.5 53.5 86 125 86 200 c 2
EndSplineSet
Substitution2: "'sinf' Wissenschaftliche Indices 1" u1D5F8.inferior
Substitution2: "'sups' Hochgestellte 1" u1D5F8.superior
Colour: ff80cc
EndChar

StartChar: u1D5F9
Encoding: 120313 120313 37
Width: 304
VWidth: 999
Flags: W
TopAccentHorizontal: 152
HStem: -3 21G<74 152 152 230> 678 20G<206.465 222.167>
VStem: 86 132<2.67975 659.981>
AnchorPoint: "unten_punkt" 153 -107 basechar 0
LayerCount: 2
Fore
SplineSet
86 200 m 2
 86 474 l 2
 86 550 81.7 619.3 74 662 c 1
 76 665 l 1
 116.5 668 193.9 688 219 698 c 1
 225.3 698 230 695 230 688 c 0
 222.3 626.7 218 575 218 500 c 2
 218 200 l 2
 218 124.8 221.5 57 230 0 c 1
 228 -3 l 1
 228 -3 186.3 0 152 0 c 0
 117 0 75 -3 75 -3 c 1
 74 0 l 1
 82.5 53.5 86 125 86 200 c 2
EndSplineSet
Substitution2: "'sups' Hochgestellte 1" u1D5F9.superior
Substitution2: "'sinf' Wissenschaftliche Indices 1" u1D5F9.inferior
EndChar

StartChar: u1D5FA
Encoding: 120314 120314 38
Width: 892
VWidth: 999
Flags: MW
TopAccentHorizontal: 450
HStem: -3 21G<68 146 146 222 365 446 446 521 660 741 741 816> 362 77<295.113 410.324 576.6 713.201>
VStem: 80 132<2.6647 303.408> 377 132<2.6647 297.443> 672 132<2.6647 347.031>
AnchorPoint: "unten_punkt" 444 -105 basechar 0
LayerCount: 2
Fore
SplineSet
216 349 m 1
 254 398 316 439 365 439 c 0
 454.6 439 482 409 502 359 c 1
 559 419 611 439 661 439 c 0
 769 439 804 380 804 280 c 2
 804 180 l 2
 804 104 808 57 816 0 c 1
 814 -3 l 1
 814 -3 775 0 741 0 c 0
 706 0 661 -3 661 -3 c 1
 660 0 l 1
 668 54 672 105 672 180 c 2
 672 273 l 2
 672 340 649 362 617 362 c 0
 578 362 556 351 508 298 c 1
 509 286 509 282 509 268 c 2
 509 180 l 2
 509 104 513 57 521 0 c 1
 519 -3 l 1
 519 -3 480 0 446 0 c 0
 411 0 366 -3 366 -3 c 1
 365 0 l 1
 373 54 377 105 377 180 c 2
 377 281 l 2
 377 348 356 362 318 362 c 0
 290 362 254 332 212 281 c 1
 212 180 l 2
 212 104 214 57 222 0 c 1
 220 -3 l 1
 220 -3 180 0 146 0 c 0
 111 0 69 -3 69 -3 c 1
 68 0 l 1
 76 54 80 105 80 180 c 2
 80 235 l 2
 80 309.7 76.7 386.3 69 429 c 1
 71 432 l 1
 106 430.3 171 430.3 200 435 c 1
 206.3 435 207.8 431.9 209 425 c 0
 210.5 416.5 211.8 374.8 211.8 352 c 1
 216 349 l 1
EndSplineSet
Substitution2: "'sinf' Wissenschaftliche Indices 1" u1D5FA.inferior
Substitution2: "'sups' Hochgestellte 1" u1D5FA.superior
EndChar

StartChar: u1D5FB
Encoding: 120315 120315 39
Width: 600
VWidth: 999
Flags: MW
TopAccentHorizontal: 289
HStem: -3 21G<68 153 153 218 374 443 443 524> 362 77<293.03 418>
VStem: 80 132<2.6647 306.328> 380 132<2.6647 347.469>
AnchorPoint: "unten_punkt" 289 -111 basechar 0
LayerCount: 2
Fore
SplineSet
512 180 m 2
 512 104 514 57 523 0 c 1
 521 -3 l 1
 521 -3 477 0 443 0 c 0
 408 0 376 -3 376 -3 c 1
 374 0 l 1
 380 53 380 105 380 180 c 2
 380 269 l 2
 380 342 355 362 328 362 c 0
 292 362 250 332 212 282 c 1
 212 180 l 2
 212 104 213 57 218 0 c 1
 215 -3 l 1
 215 -3 187.3 0 153 0 c 0
 118 0 71 -3 71 -3 c 1
 69 0 l 1
 77.5 53.5 80 105 80 180 c 2
 80 235 l 2
 80 309.7 76.7 386.3 69 429 c 1
 71 432 l 1
 106 430.3 171 430.3 200 435 c 1
 206.3 435 207.8 431.9 209 425 c 0
 210.5 416.5 211.8 374.8 211.8 352 c 1
 216 349 l 1
 262 408 322 439 373 439 c 0
 463 439 512 396 512 291 c 2
 512 180 l 2
EndSplineSet
Substitution2: "'sinf' Wissenschaftliche Indices 1" u1D5FB.inferior
Substitution2: "'sups' Hochgestellte 1" u1D5FB.superior
EndChar

StartChar: u1D5FC
Encoding: 120316 120316 40
Width: 566
VWidth: 999
Flags: W
TopAccentHorizontal: 297
HStem: -10 50<234.308 349.488> 389 50<218.541 339.619>
VStem: 41 142<105.349 313.144> 383 142<109.544 320.837>
AnchorPoint: "unten_punkt" 298.8 -107 basechar 0
LayerCount: 2
Fore
SplineSet
41 205 m 0
 41 360 142 439 285 439 c 0
 454 439 525 340 525 214 c 0
 525 75.8 436 -10 283 -10 c 0
 134 -10 41 72 41 205 c 0
278 389 m 0
 192 389 183 315 183 228 c 0
 183 151 193 40 297 40 c 0
 342 40 383 72 383 187 c 0
 383 326 363 389 278 389 c 0
EndSplineSet
Substitution2: "'sups' Hochgestellte 1" u1D5FC.superior
Substitution2: "'sinf' Wissenschaftliche Indices 1" u1D5FC.inferior
EndChar

StartChar: u1D5FD
Encoding: 120317 120317 41
Width: 585
VWidth: 999
Flags: W
TopAccentHorizontal: 291
HStem: -235 21G<70 145 145 222> -10 50<231.383 353.443> 369 70<283.175 393.316>
VStem: 80 132<-229.32 18 60.1516 315.941> 401 142<127.774 336.484>
LayerCount: 2
Fore
SplineSet
212 282 m 1
 212 76 l 1
 249 45 276 40 301 40 c 0
 357 40 401 101.5 401 208 c 0
 401 304.5 385 369 324 369 c 0
 290 369 234 335 212 282 c 1
216 358 m 1
 265 425 328 439 371 439 c 0
 414.5 439 449.1 426.7 472.5 406.5 c 0
 520 365.5 543 309.5 543 235 c 0
 543 94.1 445.1 -10 319 -10 c 0
 282 -10 245 -3 212 18 c 1
 212 -32 l 2
 212 -107 213.5 -175 222 -232 c 1
 220 -235 l 1
 220 -235 179.3 -232 145 -232 c 0
 110 -232 71 -235 71 -235 c 1
 70 -232 l 1
 78.5 -178.5 80 -106.5 80 -32 c 2
 80 235 l 2
 80 309.7 76.7 386.3 69 429 c 1
 71 432 l 1
 106 430.3 171 430.3 200 435 c 1
 206.3 435 207.8 431.9 209 425 c 0
 210.5 416.5 211.8 383.8 211.8 361 c 1
 216 358 l 1
EndSplineSet
Substitution2: "'sinf' Wissenschaftliche Indices 1" u1D5FD.inferior
Substitution2: "'sups' Hochgestellte 1" u1D5FD.superior
EndChar

StartChar: u1D5FE
Encoding: 120318 120318 42
Width: 595
VWidth: 999
Flags: W
TopAccentHorizontal: 263
HStem: -235 21G<373 450 450 525> -10 59<239.711 345.027> 389 50<234.343 381.841>
VStem: 54 142<99.6172 309.326> 383 132<-229.32 38 74.2631 377.29>
LayerCount: 2
Fore
SplineSet
383 367 m 1
 353.5 385.5 328 389 286 389 c 0
 216 389 196 316 196 222 c 0
 196 78 247 49 305 49 c 0
 324 49 357 70 383 90 c 1
 383 367 l 1
404 433 m 0
 448.5 430 489 430.3 524 432 c 1
 526 429 l 1
 518.3 386.3 515 309.7 515 235 c 2
 515 -32 l 2
 515 -107.2 516.5 -175 525 -232 c 1
 523 -235 l 1
 523 -235 484.3 -232 450 -232 c 0
 415 -232 374 -235 374 -235 c 1
 373 -232 l 1
 381.5 -178.5 383 -106 383 -32 c 2
 383 38 l 1
 350 10 310.4 -10 262 -10 c 0
 195 -10 150 1 113 41 c 0
 78.9 77.9 54 136.2 54 207 c 0
 54 339 146 439 287 439 c 0
 313.9 439 362.3 435.8 404 433 c 0
EndSplineSet
Substitution2: "'sinf' Wissenschaftliche Indices 1" u1D5FE.inferior
Substitution2: "'sups' Hochgestellte 1" u1D5FE.superior
EndChar

StartChar: u1D5FF
Encoding: 120319 120319 43
Width: 421
VWidth: 999
Flags: MW
TopAccentHorizontal: 249
HStem: -3 21G<79 147 147 231> 342 97<286.631 375.231>
VStem: 89 132<2.6647 312.309>
AnchorPoint: "unten_punkt" 192 -108 basechar 0
LayerCount: 2
Fore
SplineSet
225 349 m 1
 251 388 299 439 346 439 c 0
 364 439 380 437 397 432 c 1
 401 428 l 1
 381 325 l 1
 363 323 l 1
 345 337 324 342 305 342 c 0
 289.9 342 221 330.4 221 253 c 2
 221 180 l 2
 221 104 223 57 231 0 c 1
 229 -3 l 1
 229 -3 181 0 147 0 c 0
 112 0 80 -3 80 -3 c 1
 79 0 l 1
 87 54 89 105 89 180 c 2
 89 235 l 2
 89 309.7 85.7 386.3 78 429 c 1
 80 432 l 1
 115 430.3 180 430.3 209 435 c 1
 215.3 435 216.8 431.9 218 425 c 0
 219.5 416.5 220.8 374.8 220.8 352 c 1
 225 349 l 1
EndSplineSet
Substitution2: "'sinf' Wissenschaftliche Indices 1" u1D5FF.inferior
Substitution2: "'sups' Hochgestellte 1" u1D5FF.superior
EndChar

StartChar: u1D600
Encoding: 120320 120320 44
Width: 419
VWidth: 999
Flags: W
TopAccentHorizontal: 220
HStem: -10 44<131.293 254.525> 17 96<54 96.2354> 394 45<182.566 279.271>
VStem: 59 118<302.661 380.5> 260 119<54.1736 131.815>
AnchorPoint: "unten_punkt" 220 -111 basechar 0
LayerCount: 2
Fore
SplineSet
54 113 m 1x78
 84 114 l 1
 114 56 155.9 34 191 34 c 0
 229 34 260 36 260 83 c 0
 260 123 238 141 165 181 c 0
 108.1 212.2 59 248 59 318 c 0
 59 395 138 439 228 439 c 0
 276 439 334 428 361 413 c 1
 363 410 l 1
 344 320 l 1
 317 319 l 1
 304 347 275 394 226 394 c 0
 187 394 177 373 177 345 c 0
 177 313 204.4 295.5 237 278 c 0
 308 240 379 212.1 379 122 c 0
 379 53 324 -10 194 -10 c 0xb8
 158 -10 92 -3 38 17 c 1
 54 113 l 1x78
EndSplineSet
Substitution2: "'sinf' Wissenschaftliche Indices 1" u1D600.inferior
Substitution2: "'sups' Hochgestellte 1" u1D600.superior
EndChar

StartChar: u1D601
Encoding: 120321 120321 45
Width: 354
VWidth: 999
Flags: MW
TopAccentHorizontal: 164
HStem: -9.9 61<149 301.556> 379 50<26.5626 90 219 333.312>
VStem: 84 132<57.2573 378.996 429.011 528.061>
AnchorPoint: "unten_punkt" 200 -106.9 basechar 0
LayerCount: 2
Fore
SplineSet
90 429 m 1
 90 468.7 90.7 503.3 94 530 c 1
 96 533 l 1
 136 542 190 568 215 578 c 1
 221 578 224 575 224 568 c 0
 219.5 515 219 485 219 429 c 1
 266 429 l 2
 289 429 317.4 430.4 336 432 c 1
 341 424 l 1
 335 409.3 330.5 392 329 377 c 1
 315.7 378.3 281 379 257 379 c 2
 219 379 l 1
 217 272.1 l 2
 215.9 212.1 216 161.1 216 131.1 c 0
 216 90.1 226 51.1 253 51.1 c 0
 279 51.1 289 52.1 311 63.1 c 1
 322 56.1 328 41.1 328 25.1 c 1
 285 -0.9 233 -9.9 181 -9.9 c 0
 117 -9.9 84 41.1 84 88.1 c 0
 84 118.1 85.5 201.1 87 261.1 c 2
 90 379 l 1
 67.2 378.9 36.2 378.3 19 377 c 1
 14 384 l 1
 23.7 399 30.5 415 36 432 c 1
 48.4 430.4 69.5 429.1 90 429 c 1
EndSplineSet
Substitution2: "'sups' Hochgestellte 1" u1D601.superior
Substitution2: "'sinf' Wissenschaftliche Indices 1" u1D601.inferior
EndChar

StartChar: u1D602
Encoding: 120322 120322 46
Width: 591
VWidth: 999
Flags: W
TopAccentHorizontal: 324
HStem: -10 77<154.5 299.051> -3 21G<385 394.65 512.5 521> 412 20G<65 137 137 213 365 435 435 513>
VStem: 71 132<78.6508 426.332> 372 132<116.229 426.381>
AnchorPoint: "unten_punkt" 270 -111 basechar 0
LayerCount: 2
Fore
SplineSet
372 64 m 1x78
 316 4 245 -10 204 -10 c 0
 105 -10 70 57 71 126 c 2
 73 249 l 2
 74.2 321 71 372 65 429 c 1
 67 432 l 1
 67 432 103 429 137 429 c 0
 172 429 212 432 212 432 c 1
 213 429 l 1
 208 377.5 206.7 324 205 249 c 2
 203 159 l 2
 201 77 230 67 260 67 c 0xb8
 304.8 67 372 111 372 169 c 2
 372 249 l 2
 372 325 372 373 365 429 c 1
 367 432 l 1
 367 432 401 429 435 429 c 0
 470 429 512 432 512 432 c 1
 513 429 l 1
 504 376 504 324 504 249 c 2
 504 192 l 2
 504 117 513 43 521 0 c 1
 519 -3 l 1
 506 -1 458.1 0 445.5 0 c 0
 431 0 401.3 -1.3 388 -3 c 0
 382 -3 379 -2 379 0 c 2
 374 64 l 1
 372 64 l 1x78
EndSplineSet
Substitution2: "'sinf' Wissenschaftliche Indices 1" u1D602.inferior
Substitution2: "'sups' Hochgestellte 1" u1D602.superior
EndChar

StartChar: u1D603
Encoding: 120323 120323 47
Width: 550
Flags: W
TopAccentHorizontal: 326
HStem: -3 21G<186 219.5 306.75 342.25> 412 20G<28 55.5 174.5 195.946 414.29 434.5 492.25 525.5>
AnchorPoint: "unten_punkt" 303 -113 basechar 0
LayerCount: 2
Fore
SplineSet
214 -3 m 1
 158 143 91 285 20 432 c 1
 36 429 91 429 107 429 c 0
 121 429 168 429 181 432 c 1
 210.9 337.6 254.4 217.5 294 123 c 1
 300.3 122.5 l 1
 346.5 205 398.6 340.8 430 432 c 1
 439 429 463 429 473 429 c 0
 483 429 521 429 530 432 c 1
 454.5 288.5 373.5 132.5 311 -3 c 1
 302.5 -1 279 0 269 0 c 0
 259 0 225 -1 214 -3 c 1
EndSplineSet
Substitution2: "'sinf' Wissenschaftliche Indices 1" u1D603.inferior
Substitution2: "'sups' Hochgestellte 1" u1D603.superior
EndChar

StartChar: u1D604
Encoding: 120324 120324 48
Width: 811
Flags: W
TopAccentHorizontal: 413
HStem: -4 22G<173.5 205.5 296 321 478 508.5 596 628> 412 20G<25 51 164 185.997 338 362.75 477 495.5 676 694 751.5 779>
VStem: 690 93<384.847 432>
AnchorPoint: "unten_punkt" 419 -111 basechar 0
LayerCount: 2
Fore
SplineSet
201 -4 m 1
 146 142 84 283 18 431 c 1
 32 428 92 428 106 428 c 0
 119 428 158 428 170 431 c 1
 202 319.5 238.7 210.8 281.9 99.5 c 1
 287.5 99.5 l 1
 316.2 161.3 349.9 240.8 379.2 319 c 1
 363.5 356.5 347.5 394.2 331 432 c 1
 345 430 400 429 414 429 c 0
 427 429 471 430 483 432 c 1
 508 321 537 216.5 571 110 c 1
 575 110 l 1
 619 203.5 667 326.5 700 432 c 1
 708 429 735 429 744 429 c 0
 753 429 785 429 793 432 c 1
 727 289 661 139 600 -3 c 1
 592 0 565 0 556 0 c 0
 547 0 513 0 504 -3 c 1
 474.6 79.4 443.6 160.9 410.6 242.5 c 1
 372.7 159.5 335.8 77.8 300 -4 c 1
 292 -1 263 -1 254 -1 c 0
 245 -1 210 -1 201 -4 c 1
EndSplineSet
Substitution2: "'sinf' Wissenschaftliche Indices 1" u1D604.inferior
Substitution2: "'sups' Hochgestellte 1" u1D604.superior
EndChar

StartChar: u1D605
Encoding: 120325 120325 49
Width: 534
Flags: W
TopAccentHorizontal: 263
HStem: -3 21G<29 39.8686 128 151.393 330.482 355.5 484.68 506.5> 412 20G<28 35.1398 181.5 206.269 366.289 390.5 478.733 490.5>
AnchorPoint: "unten_punkt" 230 -110 basechar 0
LayerCount: 2
Fore
SplineSet
190.5 206.8 m 1
 185.8 213 l 1
 20 432 l 1
 36 429 101 429 117 429 c 0
 134 429 173 429 190 432 c 1
 218.4 384.9 249.5 339.7 282.7 293.9 c 1
 318.1 339.7 352.5 384.9 385 432 c 1
 396 429 440 429 451 429 c 0
 461 429 485 429 496 432 c 1
 331.7 241.7 l 1
 346 223 l 1
 398.5 147.4 455.4 72.7 514 -3 c 1
 499 0 459 0 444 0 c 0
 428 0 363 0 348 -3 c 1
 314.5 49.7 278.2 100.3 241.5 151.8 c 1
 204.7 100.3 168.2 49.7 133 -3 c 1
 123 0 89 0 79 0 c 0
 69 0 34 0 24 -3 c 1
 187.4 203 l 1
 190.5 206.8 l 1
EndSplineSet
Substitution2: "'sups' Hochgestellte 1" u1D605.superior
Substitution2: "'sinf' Wissenschaftliche Indices 1" u1D605.inferior
EndChar

StartChar: u1D606
Encoding: 120326 120326 50
Width: 539
Flags: W
TopAccentHorizontal: 267
HStem: -237 21G<111 128.595 214 238> 412 20G<27 42.25 164.5 187.732 397.039 418 502.5 514>
LayerCount: 2
Fore
SplineSet
20 432 m 1
 34 429 95 429 108 429 c 0
 122 429 158 429 171 432 c 1
 204.4 329.7 242.6 227.6 289 125 c 1
 298 124 l 1
 341 220 381.1 331.9 413 432 c 1
 423 429 460 429 470 429 c 0
 480 429 509 429 519 432 c 1
 486 365 257 -112 219 -237 c 1
 209 -234 180 -232 170 -232 c 0
 160 -232 116 -234 106 -237 c 1
 151.2 -161.7 195 -84.7 227 -10 c 1
 215.2 8.5 l 1
 177.1 109.2 64.5 341.1 20 432 c 1
EndSplineSet
Substitution2: "'sinf' Wissenschaftliche Indices 1" u1D606.inferior
Substitution2: "'sups' Hochgestellte 1" u1D606.superior
EndChar

StartChar: u1D607
Encoding: 120327 120327 51
Width: 484
VWidth: 999
Flags: W
TopAccentHorizontal: 221
HStem: 0 59<200 425.213> 370 59<59.7075 271>
DStem2: 42 32 200 59 0.560902 0.827882<110.975 408.271>
AnchorPoint: "unten_punkt" 207 -111 basechar 0
LayerCount: 2
Fore
SplineSet
271 370 m 1
 159 368 59 359 59 359 c 1
 57 362 l 1
 58 370 59 388 59 397 c 0
 59 406 58 416 57 429 c 1
 59 432 l 1
 74 430 95 429 115 429 c 2
 367 429 l 2
 396 429 443 435 448 435 c 0
 452 435 453 433 453 429 c 1
 447 422 440 412 423 387 c 2
 200 59 l 1
 320 60 444 70 444 70 c 1
 446 67 l 1
 445 59 444 41 444 32 c 0
 444 23 445 13 446 0 c 1
 444 -3 l 1
 429 -1 408 0 388 0 c 2
 162 0 l 2
 134 0 23 -3 23 -3 c 1
 21 7 l 1
 30 16 34 20 42 32 c 2
 271 370 l 1
EndSplineSet
Substitution2: "'sinf' Wissenschaftliche Indices 1" u1D607.inferior
Substitution2: "'sups' Hochgestellte 1" u1D607.superior
EndChar

StartChar: u1D756
Encoding: 120662 120662 52
Width: 701
VWidth: 999
Flags: W
TopAccentHorizontal: 344
HStem: -3 21G<26 70.5 115 128.9 504 515.5 654 670.5> 221 53<223.6 411.5> 633 20G<267 448>
VStem: 20 101<-3 38.3479>
LayerCount: 2
Fore
SplineSet
411.5 275.1 m 1
 387.3 338.5 358.7 412 323 494 c 1
 317.1 494 l 1
 223.6 275.9 l 1
 255 274.5 299.1 274 328 274 c 0
 351.7 274 383.1 274.5 411.5 275.1 c 1
200.3 219.2 m 1
 166.2 135.1 136.8 56.2 121 -3 c 1
 109 0 87 0 76 0 c 0
 65 0 32 0 20 -3 c 1
 121 218 219 431 315 653 c 1
 405 653 l 1
 491 434 629 98 679 -3 c 1
 662 0 605 0 588 0 c 0
 571 0 524 0 507 -3 c 1
 501 18.7 479.3 93.7 432.5 219.7 c 1
 399.8 220.4 365.1 221 333 221 c 0
 297.3 221 238.3 220.1 200.3 219.2 c 1
EndSplineSet
Colour: ff00ff
EndChar

StartChar: u1D757
Encoding: 120663 120663 53
Width: 675
VWidth: 999
Flags: W
TopAccentHorizontal: 302
HStem: -3 53<215.709 439.082> 322 53<245 401.023> 595 53<214.342 397.138>
VStem: 103 142<61.1856 322 375 585.479> 426 149<431.082 565.301> 473 161<105.896 265.022>
LayerCount: 2
Fore
SplineSet
245 550 m 2xf8
 245 375 l 1
 323 375 l 2
 406 375 426 408 426 481 c 0
 426 568.3 392 595 336 595 c 0
 255 595 245 583 245 550 c 2xf8
245 322 m 1
 245 97 l 2
 245 64 262 50 332 50 c 0
 466 50 473 96 473 165 c 0xf4
 473 236.2 455 322 338 322 c 2
 245 322 l 1
177 645 m 0
 240 645 304 648 339 648 c 0
 525 648 575 560 575 493 c 0xf8
 575 438 523 385 472 360 c 1
 559 335 634 280 634 184 c 0
 634 98 560 -3 361 -3 c 0
 272 -3 249 0 177 0 c 0
 142 0 92 -3 92 -3 c 1
 91 0 l 1
 99 54 103 125 103 200 c 2
 103 445 l 2
 103 520 99 588 91 645 c 1
 93 648 l 1
 93 648 143 645 177 645 c 0
EndSplineSet
Colour: ff00ff
EndChar

StartChar: u1D758
Encoding: 120664 120664 54
Width: 563
VWidth: 999
Flags: W
TopAccentHorizontal: 349
HStem: -3 21G<92 173 173 257> 564 81<251.435 501.657>
VStem: 103 144<2.67992 562.332>
LayerCount: 2
Fore
SplineSet
247 435 m 2
 247 200 l 2
 247 125 249 53 257 0 c 1
 256 -3 l 1
 256 -3 208 0 173 0 c 0
 139 0 94 -3 94 -3 c 1
 92 0 l 1
 100 57 103 125 103 200 c 2
 103 445 l 2
 103 520 101 591 93 645 c 1
 94 648 l 1
 94 648 143 645 177 645 c 2
 481 645 l 2
 502 645 525 646 541 648 c 1
 543 645 l 1
 542 631 541 613 541 603 c 0
 541 593 542 554 543 546 c 1
 541 542 l 1
 541 542 389 564 255 564 c 1
 248 540 247 452 247 435 c 2
EndSplineSet
EndChar

StartChar: u1D759
Encoding: 120665 120665 55
Width: 696
VWidth: 487
Flags: W
TopAccentHorizontal: 348
HStem: 0 54<105 482> 638 20G<272.006 422.555>
DStem2: 25 20 105 54 0.37114 0.928577<61.2628 591.424> 415 658 302 547 0.353372 -0.935483<63.9076 588.708>
LayerCount: 2
Fore
SplineSet
300 547 m 1
 105 54 l 1
 482 54 l 1
 302 547 l 1
 300 547 l 1
415 658 m 1
 656 20 l 2
 659 11 660 8 660 6 c 0
 660 2 656 0 639 0 c 2
 41 0 l 2
 28 0 20 1 20 7 c 0
 20 10 21 10 25 20 c 2
 280 658 l 1
 415 658 l 1
EndSplineSet
EndChar

StartChar: u1D75A
Encoding: 120666 120666 56
Width: 594
VWidth: 999
Flags: W
TopAccentHorizontal: 300
HStem: 0 73<244.435 487.022> 311 61<240 463.736> 577 68<244.435 479.755>
VStem: 96 144<74.1699 311 372 575.826>
LayerCount: 2
Fore
SplineSet
240 200 m 2
 240 183 241 97 248 73 c 1
 382 73 544 95 544 95 c 1
 546 91 l 1
 545 83 544 46 544 36 c 0
 544 26 544.5 13.2 546 0 c 1
 544 -3 l 1
 528 -1 505 0 484 0 c 2
 170 0 l 2
 135 0 85 -3 85 -3 c 1
 84 0 l 1
 92 54 96 125 96 200 c 2
 96 445 l 2
 96 520 92 588 84 645 c 1
 86 648 l 1
 86 648 136 645 170 645 c 2
 474 645 l 2
 495 645 518 646 534 648 c 1
 536 645 l 1
 534.8 631 534 618 534 610 c 0
 534 601 535 577 536 569 c 1
 534 565 l 1
 534 565 382 577 248 577 c 1
 241 553 240 462 240 445 c 2
 240 372 l 1
 358 372 418 377 477 382 c 1
 480 379 l 1
 478 370 477 351 477 342 c 0
 477 333 478 313 480 304 c 1
 477 301 l 1
 408 308 288 311 240 311 c 1
 240 200 l 2
EndSplineSet
Colour: ff00ff
EndChar

StartChar: u1D75B
Encoding: 120667 120667 57
Width: 645
VWidth: 999
Flags: W
TopAccentHorizontal: 339
HStem: 0 63<208 433.216> 561 84<60 305.738>
LayerCount: 2
Fore
SplineSet
208 63 m 1
 339 63 608 84 608 84 c 1
 610 81 l 1
 609 73 608 48 608 38 c 0
 608 28 609 14 610 0 c 1
 608 -3 l 1
 592 -1 572.8 0 537 0 c 2
 154 0 l 2
 124 0 5 -3 5 -3 c 1
 2 1 l 1
 13 15 22 30 28 38 c 2
 419.5 582.6 l 2
 419.4 582.5 60 561 60 561 c 2
 58 564 l 1
 59 572 60 597 60 607 c 0
 60 617 59 631 58 645 c 1
 60 648 l 1
 76 646 99 645 121 645 c 2
 486 645 l 2
 517 645 595.5 648.8 612 651 c 0
 616.5 651 618 649 618 645 c 0
 618 634 608 619 588 591 c 0
 211.1 69.4 208 66.8 208 63 c 1
EndSplineSet
Colour: ff00ff
EndChar

StartChar: u1D75C
Encoding: 120668 120668 58
Width: 764
VWidth: 999
Flags: W
TopAccentHorizontal: 384
HStem: -3 21<91 175 175 259 539 623 623 707> 311 52<237 563> 628 20<91 175 175 259 539 623 623 707>
VStem: 103 144<2.67992 642.32> 551 144<2.67992 642.32>
LayerCount: 2
Fore
SplineSet
527 445 m 2
 527 520 523 588 515 645 c 1
 517 648 l 1
 517 648 565 645 599 645 c 0
 634 645 682 648 682 648 c 1
 683 645 l 1
 675 592 671 520 671 445 c 2
 671 200 l 2
 671 125 675 57 683 0 c 1
 681 -3 l 1
 681 -3 633 0 599 0 c 0
 564 0 516 -3 516 -3 c 1
 515 0 l 1
 523 54 527 125 527 200 c 2
 527 311 l 1
 237 311 l 1
 237 200 l 2
 237 125 241 57 249 0 c 1
 247 -3 l 1
 247 -3 199 0 165 0 c 0
 130 0 82 -3 82 -3 c 1
 81 0 l 1
 89 54 93 125 93 200 c 2
 93 445 l 2
 93 520 89 588 81 645 c 1
 83 648 l 1
 83 648 131 645 165 645 c 0
 200 645 248 648 248 648 c 1
 249 645 l 1
 241 592 237 520 237 445 c 2
 237 363 l 1
 527 363 l 1
 527 445 l 2
EndSplineSet
Colour: ff00ff
EndChar

StartChar: u1D75D
Encoding: 120669 120669 59
Width: 799
VWidth: 487
Flags: W
TopAccentHorizontal: 399
HStem: -10 55<326.227 500.597> 294 65.9<261.486 539.009> 603 55<304.21 483.294>
VStem: 52 161<195.41 434.488> 586 161<199.404 453.39>
LayerCount: 2
Fore
SplineSet
259 284 m 1
 256 286 l 1
 256 286 259 302 259 317 c 0
 259 332 256 369 256 369 c 1
 259 370 l 1
 308.9 362.5 348.5 359.9 400.3 359.9 c 0
 487 359.9 519 367.1 540 370 c 1
 543 368 l 1
 543 368 540 332 540 317 c 0
 540 302 543 285 543 285 c 1
 540 284 l 1
 527.6 285.8 495.8 294 403.6 294 c 0
 352.4 294 312.2 291.5 259 284 c 1
384 603 m 0
 288 603 213 537 213 327 c 0
 213 135 298 45 418 45 c 0
 532 45 586 131 586 310 c 0
 586 518 525 603 384 603 c 0
747 329 m 0
 747 129 612.1 -10 398 -10 c 0
 200 -10 52 122 52 310 c 0
 52 506 194 658 397 658 c 0
 610 658 747 527 747 329 c 0
EndSplineSet
Colour: ff80cc
EndChar

StartChar: u1D75E
Encoding: 120670 120670 60
Width: 330
VWidth: 999
Flags: W
TopAccentHorizontal: 169
HStem: -3 21<94 178 178 262> 628 20<94 178 178 262>
VStem: 106 144<2.67992 642.32>
LayerCount: 2
Fore
SplineSet
93 445 m 2
 93 520 89 588 81 645 c 1
 83 648 l 1
 83 648 131 645 165 645 c 0
 200 645 248 648 248 648 c 1
 249 645 l 1
 241 592 237 520 237 445 c 2
 237 200 l 2
 237 125 241 57 249 0 c 1
 247 -3 l 1
 247 -3 199 0 165 0 c 0
 130 0 82 -3 82 -3 c 1
 81 0 l 1
 89 54 93 125 93 200 c 2
 93 445 l 2
EndSplineSet
Colour: ff00ff
EndChar

StartChar: u1D75F
Encoding: 120671 120671 61
Width: 712
VWidth: 999
Flags: W
TopAccentHorizontal: 355
HStem: -3 21<94 178 178 262 478 531.5 698.746 707.5> 319 35<243 268.714> 628 20<94 178 178 262 492.5 543.5 663 699>
VStem: 106 144<2.67992 642.32>
LayerCount: 2
Fore
SplineSet
93 445 m 2
 93 520 89 588 81 645 c 1
 83 648 l 1
 83 648 131 645 165 645 c 0
 200 645 248 648 248 648 c 1
 249 645 l 1
 241 592 237 520 237 445 c 2
 237 354 l 2
 237.3 354 237.7 354 238 354 c 0
 242 354 254 356 262 363 c 0
 350 440 438 546 527 648 c 1
 540 645 593 645 606 645 c 0
 621 645 681 645 697 648 c 1
 609 571 451 433 383 354 c 1
 383 352 l 1
 707 -3 l 1
 688 0 624 0 605 0 c 0
 588 0 530 0 513 -3 c 1
 423 108 300 271 259 312 c 0
 253 317 240 319 237 319 c 1
 237 200 l 2
 237 125 241 57 249 0 c 1
 247 -3 l 1
 247 -3 199 0 165 0 c 0
 130 0 82 -3 82 -3 c 1
 81 0 l 1
 89 54 93 125 93 200 c 2
 93 445 l 2
EndSplineSet
Colour: ff00ff
EndChar

StartChar: u1D760
Encoding: 120672 120672 62
Width: 625
VWidth: 487
Flags: W
TopAccentHorizontal: 297
HStem: -3 20<-25 19.5 69 90.619 425.321 438.5 582 598.5> 634 21<216 379>
LayerCount: 2
Fore
SplineSet
258.9 466.2 m 1
 190.1 307.3 106.2 113.9 75 -3 c 1
 63 0 28 0 17 0 c 0
 6 0 -19 0 -31 -3 c 1
 70 218 168 430 264 652 c 1
 333 652 l 1
 425 433 557 98 607 -3 c 1
 590 0 523 0 506 0 c 0
 489 0 447 0 430 -3 c 1
 420.6 29.8 375.3 190.8 258.9 466.2 c 1
EndSplineSet
Colour: ff00ff
EndChar

StartChar: u1D761
Encoding: 120673 120673 63
Width: 921
VWidth: 999
Flags: W
TopAccentHorizontal: 416
HStem: -3 21<46.5 59.5 132.5 138.487 372.88 499.552 743.173 757.5 874.5 882.5>
LayerCount: 2
Fore
SplineSet
161 653 m 1
 263 653 l 1
 322.9 492 380.9 346 459 188 c 1
 463 188 l 1
 713 653 l 1
 802 653 l 1
 828 407 850 214 881 -3 c 1
 866 0 823 0 808 0 c 0
 793 0 745 0 730 -3 c 1
 716 163 703 312 684 470 c 1
 681 470 l 1
 596.9 316.5 516 166 443 0 c 1
 379 0 l 1
 325.9 149.5 261.9 309 189 469 c 1
 186 470 l 1
 159.9 314.5 134.9 102.5 131 -3 c 1
 120 0 86 0 75 0 c 0
 63 0 40 0 29 -3 c 1
 71.9 188 124.9 439 161 653 c 1
EndSplineSet
Colour: ff00ff
EndChar

StartChar: u1D762
Encoding: 120674 120674 64
Width: 748
VWidth: 999
Flags: W
TopAccentHorizontal: 365
HStem: -3 21<80 121 121 172 540.326 571 650 661> 628 20<91 158 158 218.351 567 620 620 671>
VStem: 96 70<2.6778 455.532> 580 81<208 642.32>
DStem2: 202 647 176 455 0.64035 -0.768084<130.823 574.98>
LayerCount: 2
Fore
SplineSet
101 445 m 2
 103 520 99 588 91 645 c 1
 93 648 l 1
 93 648 129.7 645 153 645 c 0
 171.3 645 202 648 202 648 c 1
 314 500.9 459.2 331.9 584 200.3 c 1
 587 200 l 1
 587 445 l 1
 584.9 520 582 588 574 645 c 1
 576 648 l 1
 576 648 601.7 645 626 645 c 0
 648.3 645 675 648 675 648 c 1
 677 645 l 1
 669 592 667 520 667 445 c 1
 661 -3 l 1
 644.8 -1 629 0 613 0 c 0
 596.8 0 573.5 -1.5 557 -3 c 1
 442 144.9 307 303.9 176 455 c 1
 170 455 l 1
 166 200 l 2
 164.8 122 164 57 172 0 c 1
 170 -3 l 1
 170 -3 150.3 0 126 0 c 0
 103.7 0 81 -3 81 -3 c 1
 80 0 l 1
 88 53 92.8 122.2 96 200 c 1
 101 445 l 2
EndSplineSet
Colour: ff00ff
EndChar

StartChar: u1D763
Encoding: 120675 120675 65
Width: 648
VWidth: 487
Flags: W
TopAccentHorizontal: 324
HStem: -11 21G<45 76.5 571.5 603> 0 109<50.6799 597.32> 284 75.9<153.508 500.98> 536 109<50.6799 597.32> 635 20G<45 74.5 573.5 603>
LayerCount: 2
Fore
SplineSet
151 274 m 1x20
 148 276 l 1
 148 276 151 302 151 317 c 0
 151 332 148 369 148 369 c 1
 151 370 l 1
 200.9 362.5 270.5 359.9 322.3 359.9 c 0
 409 359.9 481 367.1 502 370 c 1
 505 368 l 1
 505 368 502 332 502 317 c 0
 502 302 505 275 505 275 c 1
 502 274 l 1
 489.6 275.8 417.8 284 325.6 284 c 0
 274.4 284 204.2 281.5 151 274 c 1x20
400 536 m 2x30
 248 536 l 2x30
 173 536 105 533 48 525 c 1
 45 527 l 1
 45 527 48 555 48 589 c 0
 48 624 45 654 45 654 c 1
 48 655 l 1x28
 101 647 173 645 248 645 c 2
 400 645 l 2x30
 475 645 547 647 600 655 c 1x28
 603 654 l 1
 603 654 600 624 600 589 c 0
 600 555 603 527 603 527 c 1
 600 525 l 1
 543 533 475 536 400 536 c 2x30
400 0 m 2x60
 248 0 l 2x60
 173 0 105 -3 48 -11 c 1xa0
 45 -9 l 1
 45 -9 48 19 48 53 c 0
 48 88 45 118 45 118 c 1
 48 119 l 1
 101 111 173 109 248 109 c 2
 400 109 l 2x60
 475 109 547 111 600 119 c 1
 603 118 l 1
 603 118 600 88 600 53 c 0
 600 19 603 -9 603 -9 c 1
 600 -11 l 1xa0
 543 -3 475 0 400 0 c 2x60
EndSplineSet
EndChar

StartChar: u1D764
Encoding: 120676 120676 66
Width: 799
VWidth: 999
Flags: W
TopAccentHorizontal: 385
HStem: -10 55<326.227 500.597> 603 55<304.21 483.294>
VStem: 52 161<195.41 434.488> 586 161<199.404 453.39>
LayerCount: 2
Fore
SplineSet
384 603 m 0
 288 603 213 537 213 327 c 0
 213 135 298 45 418 45 c 0
 532 45 586 131 586 310 c 0
 586 518 525 603 384 603 c 0
747 329 m 0
 747 129 612.1 -10 398 -10 c 0
 200 -10 52 122 52 310 c 0
 52 506 194 658 397 658 c 0
 610 658 747 527 747 329 c 0
EndSplineSet
Colour: ff00ff
EndChar

StartChar: u1D765
Encoding: 120677 120677 67
Width: 784
VWidth: 999
Flags: W
TopAccentHorizontal: 392
HStem: -3 21G<90 174 174 255 529 622 622 694> 585 60<253.326 530.674>
VStem: 101 144<2.67992 570.83> 539 144<2.67992 570.83>
LayerCount: 2
Fore
SplineSet
622 645 m 2
 656 645 692 648 692 648 c 1
 693 645 l 1
 685 591 683 520 683 445 c 2
 683 200 l 2
 683 125 686 57 694 0 c 1
 692 -3 l 1
 692 -3 656 0 622 0 c 0
 587 0 530 -3 530 -3 c 1
 529 0 l 1
 537 53 539 125 539 200 c 2
 539 445 l 2
 539 462 538 548 531 572 c 1
 524 581 520 585 505 585 c 2
 279 585 l 2
 264 585 260 581 253 572 c 1
 246 548 245 462 245 445 c 2
 245 200 l 2
 245 125 247 53 255 0 c 1
 254 -3 l 1
 254 -3 209 0 174 0 c 0
 140 0 92 -3 92 -3 c 1
 90 0 l 1
 98 57 101 125 101 200 c 2
 101 445 l 2
 101 520 99 591 91 645 c 1
 92 648 l 1
 92 648 140 645 174 645 c 2
 622 645 l 2
EndSplineSet
EndChar

StartChar: u1D766
Encoding: 120678 120678 68
Width: 598
VWidth: 999
Flags: W
TopAccentHorizontal: 296
HStem: -3 21<81 165 165 247> 274 51<235.835 380.582> 604 48<202.526 387.538>
VStem: 93 142<2.67993 284 329.159 597.193> 422 151<399.424 566.15>
LayerCount: 2
Fore
SplineSet
235 560 m 2
 235 335 l 1
 248 328 289 325 314 325 c 0
 372.1 325 422 367 422 468 c 0
 422 587 374 604 315 604 c 0
 243 604 235 589 235 560 c 2
93 445 m 2
 93 520 89 588 81 645 c 1
 83 648 l 1
 83 648 131 645 165 645 c 0
 195 645 316 652 342 652 c 0
 413.1 652 467.7 642.6 503 618 c 0
 559 579 573 522.3 573 486 c 0
 573 383 507 274 325 274 c 0
 290 274 257 277 235 284 c 1
 235 200 l 2
 235 125 239 57 247 0 c 1
 245 -3 l 1
 245 -3 199 0 165 0 c 0
 130 0 82 -3 82 -3 c 1
 81 0 l 1
 89 54 93 125 93 200 c 2
 93 445 l 2
EndSplineSet
Colour: ff00ff
EndChar

StartChar: u1D768
Encoding: 120680 120680 70
Width: 590
VWidth: 487
Flags: W
TopAccentHorizontal: 295
HStem: 0 81<295.013 538.245> 0 69<145.049 491.711> 576 69<224.718 505.333>
DStem2: 41 48 145 63 0.685025 0.728519<82.1704 334.249> 224.718 574.5 69 576 0.577032 -0.816722<0 246.857>
LayerCount: 2
Fore
SplineSet
123 645 m 1x60
 460 645 l 2
 481 645 504 646 520 648 c 1
 522 645 l 1
 521 631 520 616 520 606 c 0
 520 596 521 566 522 558 c 1
 520 554 l 1
 520 554 368 569 271 576 c 0
 253 577 224.7 574.5 224.7 574.5 c 1
 397 331 l 1
 145 63 l 1
 145 63 213 67 257 69 c 0x60
 367 74 539 81 539 81 c 1xa0
 541 87 l 1
 540 79 539 64 539 54 c 0
 539 44 540 14 541 0 c 1x60
 539 -3 l 1
 523 -1 500 0 479 0 c 2xa0
 92 0 l 2
 64 0 22 -2 22 -2 c 1
 20 0 l 1
 20 24 l 1
 22 27 l 1
 31.5 36.5 32 37 41 48 c 2
 262 299 l 1
 264 300 l 1
 69 576 l 2
 48 605 50 604 33 618 c 1
 31 620 l 1
 31 645 l 1
 33 646 l 1
 123 645 l 1x60
EndSplineSet
EndChar

StartChar: u1D769
Encoding: 120681 120681 71
Width: 602
VWidth: 999
Flags: W
TopAccentHorizontal: 302
HStem: -3 21<219 301 301 383> 567 78<17.7551 224.565 377.435 584.245>
VStem: 229 144<2.67992 565.827>
LayerCount: 2
Fore
SplineSet
229 436 m 2
 229 453 228 543 221 567 c 1
 87 567 17 545 17 545 c 1
 15 549 l 1
 17 564 17 617 15 645 c 1
 17 648 l 1
 33 646 56 645 77 645 c 2
 525 645 l 2
 546 645 569 646 585 648 c 1
 587 645 l 1
 585 617 585 564 587 549 c 1
 585 545 l 1
 585 545 515 567 381 567 c 1
 374 543 373 453 373 436 c 2
 373 200 l 2
 373 125 375 57 383 0 c 1
 381 -3 l 1
 381 -3 335 0 301 0 c 0
 266 0 220 -3 220 -3 c 1
 219 0 l 1
 227 54 229 125 229 200 c 2
 229 436 l 2
EndSplineSet
Colour: ff00ff
EndChar

StartChar: u1D76A
Encoding: 120682 120682 72
Width: 653
VWidth: 999
Flags: W
TopAccentHorizontal: 347
HStem: -3 21G<251.85 257 406 411.85> 628 20G<24.5 36 183.5 217.4 497.35 527 570.25 619.5>
VStem: 256 150.2<2.08708 307.353>
LayerCount: 2
Fore
SplineSet
406.2 304.2 m 1
 406.9 205.1 409.7 48 414 -3 c 1
 398 0 346 0 331 0 c 0
 316 0 265 0 249 -3 c 1
 254.7 52.5 255.8 177.5 256 275.1 c 1
 217.9 340.2 56 588 16 648 c 1
 33 645 97 645 114 645 c 0
 131 645 175 645 192 648 c 1
 242.8 548.3 297.9 458.8 357.2 357.5 c 1
 412.3 445.1 473.7 549.7 521 648 c 1
 533 645 566 645 579 645 c 0
 591 645 613 645 626 648 c 1
 514.5 477.5 448 380.9 406.2 304.2 c 1
EndSplineSet
Comment: "Geschwungen?" 
Colour: ff00ff
EndChar

StartChar: u1D76B
Encoding: 120683 120683 73
Width: 752
VWidth: 487
Flags: W
TopAccentHorizontal: 364
HStem: -3 21<291 375 375 459> 105 47<262.739 501.424> 495 47<244.503 500.922> 628 20<291 375 375 459>
VStem: 35 140<229.517 404.069> 303 144<2.67992 642.32> 577 140<244.901 416.301>
LayerCount: 2
Fore
SplineSet
287.8 107.6 m 1
 85.2 125.8 35 231 35 324 c 0
 35 408.8 108.1 514 287.8 537.8 c 1
 285.8 576.6 282.6 612.6 278 645 c 1
 280 648 l 1
 280 648 328 645 362 645 c 0
 397 645 445 648 445 648 c 1
 446 645 l 1
 441.6 615.7 438.4 580.5 436.4 542.2 c 1
 618.1 532.1 717 447.9 717 331 c 0
 717 216 618 122.5 436.3 106.4 c 1
 438.3 67.9 441.5 32.2 446 0 c 1
 444 -3 l 1
 444 -3 396 0 362 0 c 0
 327 0 279 -3 279 -3 c 1
 278 0 l 1
 282.6 31.1 285.8 67.8 287.8 107.6 c 1
289.6 160.7 m 1
 289.8 173.6 290 186.8 290 200 c 2
 290 445 l 2
 290 460 289.8 474.7 289.5 489.1 c 1
 224.7 475.9 175 439.2 175 331 c 0
 175 227.4 219.6 180.1 289.6 160.7 c 1
434.5 154 m 1
 577 173.6 577 256.7 577 324 c 0
 577 444.2 522.3 479.7 434.5 491.9 c 1
 434.1 476.5 434 460.8 434 445 c 2
 434 200 l 2
 434 184.4 434.2 169 434.5 154 c 1
EndSplineSet
EndChar

StartChar: u1D76C
Encoding: 120684 120684 74
Width: 672
VWidth: 999
Flags: W
TopAccentHorizontal: 351
HStem: -2 28<4 61 169 190 398 420 570 617> 586 27<411 444 538 597>
DStem2: 122 99 155 73 0.593199 0.805056<-35.2356 230.04 328.87 586.289> 191 543 249 326 0.578967 -0.815351<-35.4928 216.477 291.97 559.314>
LayerCount: 2
Fore
SplineSet
661 -3 m 1
 641 0 593 0 573 0 c 0
 553 0 487 0 467 -3 c 1
 419.7 78.2 359.5 176.4 311.3 250.7 c 0
 308.3 256.6 305.9 255.2 303.7 252.3 c 0
 250.1 177.8 184.2 79.8 134 -3 c 1
 122 0 94 0 81 0 c 0
 69 0 23 0 11 -3 c 1
 113.5 132.7 196.4 239.9 253.5 314 c 1
 193.5 402.2 119.3 505.9 15 648 c 1
 34 645 105 645 124 645 c 0
 143 645 186 645 206 648 c 1
 234.3 595.4 275.1 532.8 340.9 437 c 0
 349 426.3 351 424 356.4 428.9 c 1
 426.9 520.9 454.1 559.4 508 648 c 1
 520 645 562 645 574 645 c 0
 586 645 620 645 632 648 c 1
 585.8 590 500.5 489.9 404.3 365 c 1
 466.8 275 559.2 144.7 661 -3 c 1
EndSplineSet
Colour: ff00ff
EndChar

StartChar: u1D76D
Encoding: 120685 120685 75
Width: 694
VWidth: 487
Flags: W
ItalicCorrection: 78
TopAccentHorizontal: 365
HStem: -3 21<293 377 377 461> 197 44<286.837 469.431> 580 36<3.77384 53.0469 699.747 750.022> 628 20<293 377 377 461>
VStem: 77 125<351.434 559.228> 305 144<2.67992 642.32> 553 125<363.075 560.695>
LayerCount: 2
Fore
SplineSet
292 445 m 2
 292 520 288 588 280 645 c 1
 282 648 l 1
 282 648 330 645 364 645 c 0
 399 645 447 648 447 648 c 1
 448 645 l 1
 440 592 436 520 436 445 c 2
 436 244.9 l 1
 551.2 283.9 553 440.8 553 477 c 0
 553 555 571 616 644 616 c 2
 730 616 l 2
 742 616 752 599 752 589 c 0
 752 582 745.9 580.2 738 578 c 0
 713 571 678 575 678 473 c 0
 678 290.9 538.3 216.5 436 198.6 c 1
 436 124.1 440 56.7 448 0 c 1
 446 -3 l 1
 446 -3 398 0 364 0 c 0
 329 0 281 -3 281 -3 c 1
 280 0 l 1
 288 54 292 125 292 200 c 2
 292 205.5 l 1
 194.3 230 77 300.6 77 450 c 0
 77 578 37 574 15 580 c 0
 7 582 2 584 2 589 c 0
 2 600 11 616 22 616 c 2
 110 616 l 2
 171 616 202 564 202 466 c 0
 202 344.5 243.4 287.2 292 259.4 c 1
 292 445 l 2
EndSplineSet
EndChar

StartChar: u1D76E
Encoding: 120686 120686 76
Width: 766
VWidth: 487
Flags: W
TopAccentHorizontal: 383
HStem: 0 79<71.7551 263 506 697.245> 609 49<293.137 473.392>
VStem: 50 147<274.079 483.301> 569 147<272.717 492.392>
LayerCount: 2
Fore
SplineSet
131 0 m 2
 110 0 87 -1 71 -3 c 1
 69 0 l 1
 71 28 71 82 69 97 c 1
 71 101 l 1
 71 101 129 79 263 79 c 1
 257 137 l 1
 130 162 50 249 50 377 c 0
 50 540 186 658 383 658 c 0
 582 658 716 560 716 377 c 0
 716 257 640 160 509 137 c 1
 506 79 l 1
 640 79 698 101 698 101 c 1
 700 97 l 1
 698 82 698 28 700 0 c 1
 698 -3 l 1
 682 -1 659 0 638 0 c 2
 470 0 l 2
 458 0 448 5 448 14 c 2
 456 163 l 1
 538 204 569 269 569 377 c 0
 569 518 513 609 383 609 c 0
 244 609 197 506 197 378 c 0
 197 266 218 225 310 163 c 1
 318 15 l 2
 318 6 307 0 296 0 c 2
 131 0 l 2
EndSplineSet
EndChar

StartChar: u1D770
Encoding: 120688 120688 77
Width: 648
Flags: W
TopAccentHorizontal: 324
HStem: -10 77<506.286 581.572> -10 42<227.849 321.646> 402 42<234.07 318.519>
VStem: 36 140<102.54 312.035>
LayerCount: 2
Fore
SplineSet
390 206 m 1x70
 382 241 l 1
 362 335 324 402 277 402 c 0
 236.2 402 176 336 176 226 c 0
 176 146 200 32 276 32 c 0
 330.5 32 350.9 91.8 377 168 c 2
 390 206 l 1x70
277 444 m 0
 381 444 417 392 441 312 c 1
 508 446 l 1
 540 441 553 440 565 440 c 0
 579 440 613 442 642 445 c 1
 485.1 130.8 l 1
 497.5 83.5 529.1 67 540 67 c 0
 557.4 67 579.6 68.3 597.3 90.4 c 1
 607.1 88.4 620.3 78.1 628.9 70.3 c 1
 604.5 28.5 570.6 -10 525 -10 c 0xb0
 484 -10 453 16 436 63 c 1
 394 13 333 -10 268 -10 c 0
 117 -10 36 78 36 202 c 0
 36 388 183 444 277 444 c 0
EndSplineSet
EndChar

StartChar: u1D771
Encoding: 120689 120689 78
Width: 582
Flags: W
TopAccentHorizontal: 291
HStem: -237 21G<184 218.875> -10 50<299.494 376.247> 370 59<275 333.406> 649 49<228.672 327.058>
VStem: 74 130<-186.061 54 61 527.603> 363 122<486.695 611.586> 395 137<96.1447 284.772>
AnchorPoint: "unten_punkt" 275 -114 basechar 0
LayerCount: 2
Fore
SplineSet
204 489 m 2xfc
 204 61 l 1
 204 61 226 91 271 105 c 1
 281 82 308 40 337 40 c 0
 380 40 395 88 395 147 c 0xfa
 395 276 387 362 257 370 c 1
 275 429 l 1
 335 432 363 462 363 537 c 0
 363 604 326 649 273 649 c 0
 242 649 204 639 204 489 c 2xfc
74 0 m 2
 74 416 l 2
 74 503 113 598 177 652 c 0
 212 681 241 698 313 698 c 0
 405 698 485 657 485 557 c 0xfc
 485 485 419 421 358 399 c 1
 358 395 l 1
 418 373 532 331 532 195 c 0
 532 127 502 58 450 20 c 0
 418 -3 371 -10 332 -10 c 0
 273 -10 223 16 204 54 c 1
 204 0 l 2
 204 -124 214 -173 226 -205 c 1
 207 -237 l 1
 161 -229 120 -213 84 -188 c 1
 75 -147 74 -83 74 0 c 2
EndSplineSet
EndChar

StartChar: u1D772
Encoding: 120690 120690 79
Width: 628
Flags: W
TopAccentHorizontal: 314
HStem: -238 21G<255.5 323> 355 89<88.9032 202.5>
VStem: 318 58<-166.406 -69.6634> 480 81<262.396 387.5>
LayerCount: 2
Fore
SplineSet
561 366 m 0
 561 265 488 132.2 370 10 c 1
 375 -14 376 -69 376 -96 c 0
 376 -131 362 -238 284 -238 c 0
 227 -238 214 -205 214 -174 c 0
 214 -130 235 -72 289 1 c 1
 296 12 l 1
 264 156 221 233 169 321 c 0
 160 336 143 355 126 355 c 0
 117 355 70 354.2 53 315.2 c 1
 40.1 315.5 28.2 319.5 18 330 c 1
 35 381 84 444 163 444 c 0
 242 444 258.9 417.6 279 372.2 c 0
 313 295.4 344 171 361 65 c 1
 413 132.2 480 245 480 296 c 0
 480 317 466 334 459 337 c 0
 442 345 420 376 420 399 c 0
 420 431 445 444 480 444 c 0
 525 444 561 409 561 366 c 0
278 -188 m 0
 295.3 -192.7 307.7 -185.7 315 -167 c 1
 317.7 -154.3 318.7 -141.3 318 -128 c 0
 318 -108 316.3 -91.7 313 -79 c 2
 310 -68 l 1
 282 -96.7 264.7 -122 258 -144 c 0
 252 -167.3 258.7 -182 278 -188 c 0
EndSplineSet
EndChar

StartChar: u1D773
Encoding: 120691 120691 80
Width: 540
Flags: W
TopAccentHorizontal: 270
HStem: -10 42<225.135 330.185> 658 40<212.601 298.753>
VStem: 38 130<107.135 289.126> 111 89<559.164 646.131> 322 128<581.339 638.095> 379 131<124.582 305.537>
LayerCount: 2
Fore
SplineSet
303 377 m 1xe4
 281 396 l 1
 222 370 168 321 168 217 c 0
 168 139 198 32 275 32 c 0
 317 32 379 56 379 214 c 0
 379 267 353 338 303 377 c 1xe4
243 427 m 1
 229 438 l 1
 149 503 111 540 111 587 c 0
 111 666 188 698 267 698 c 0
 378 698 450 637 450 603 c 0
 450 571 414 563 391 563 c 0
 375 563 341 571 322 608 c 0
 303 645 276 658 260 658 c 0
 223 658 200 637 200 597 c 0xd8
 200 569 250.8 531.4 298 498 c 0
 418 413 510 330 510 226 c 0
 510 62 380 -10 264 -10 c 0
 128 -10 38 83 38 200 c 0
 38 328 151 394 243 427 c 1
EndSplineSet
EndChar

StartChar: u1D774
Encoding: 120692 120692 81
Width: 466
Flags: W
TopAccentHorizontal: 233
HStem: -10 58<205.3 352.096> 196 44<224.649 321.658> 394 45<219.454 327.679>
VStem: 54 140<59.665 167.142> 74 133<259.196 383.089>
LayerCount: 2
Fore
SplineSet
266 394 m 0xe8
 243 394 207 386.3 207 328 c 0xe8
 207 264.5 214.8 240 334 240 c 1
 334 230.5 327.6 209.9 317 196 c 1
 257 196 194 193 194 111 c 0
 194 64 221.5 48 258 48 c 0
 294 48 353.5 49.5 403.5 83.5 c 1
 416 77.8 420.5 69.3 426 55 c 1
 391.5 24.3 325 -10 239 -10 c 0
 85 -10 54 56 54 108 c 0xf0
 54 131 66 192 162 227 c 1
 162 230 l 1
 107.5 239 74 260.5 74 325 c 0
 74 389.6 133 439 267 439 c 0
 317 439 375 430 406 414 c 1
 408 411 l 1
 412.5 383 398.5 341 383.5 314 c 1
 376 313 l 1
 365.7 333.6 352.2 354.4 335 367.5 c 0
 311.2 385.6 282.5 394 266 394 c 0xe8
EndSplineSet
EndChar

StartChar: u1D775
Encoding: 120693 120693 82
Width: 496
Flags: W
TopAccentHorizontal: 248
HStem: -224 47<228.5 358.92> -6 89<209.41 371.188> 540 42<169.411 238.129> 553 105<327.529 407.177> 678 20G<116.5 138>
VStem: 44 130<113.255 291.539> 388 76<-144.864 -22.2615>
LayerCount: 2
Fore
SplineSet
171 540 m 0xee
 113 540 45 590 32 658 c 1xde
 52.5 678.5 104.5 694 129 698 c 1
 138 698 l 1
 137 692 137 685 137 678 c 0
 137 621 178 582 206 582 c 0xee
 226 582 253 582.5 272 588 c 1
 312 630 352 658 385 658 c 0
 427 658 441 639 441 613 c 0
 441 585 403 564 316 553 c 1xde
 182 382 174 279 174 203 c 0
 174 133 180 83 303 83 c 0
 405 83 464 13 464 -72 c 0
 464 -129 418 -224 252 -224 c 0
 186.5 -224 109.4 -197.1 109.4 -148.8 c 0
 109.4 -122.3 122.3 -101.5 166 -101.5 c 0
 207.4 -101.5 229.4 -116.7 240.6 -132.8 c 0
 255 -153.6 272 -177 304 -177 c 0
 372 -177 388 -130 388 -73 c 0
 388 -35 366 -6 315 -6 c 0
 98 -6 44 89 44 193 c 0
 44 284 107 398 239 548 c 1
 217 541 190 540 171 540 c 0xee
EndSplineSet
EndChar

StartChar: u1D776
Encoding: 120694 120694 83
Width: 621
Flags: W
TopAccentHorizontal: 310
HStem: -237 21G<506 540.875> -10 454<101.254 220.961> 368 77<321.252 381.228> 379 32<31.5013 83.817>
VStem: 98.2 130.3<-3.78162 339.842> 396 130<-186.061 354.825>
LayerCount: 2
Fore
SplineSet
228.5 43.4 m 2xac
 228.6 9.5 220.5 -10 176 -10 c 0xcc
 119.5 -10 98.2 -1.4 98.2 25.7 c 2
 98.2 25.7 98 215.1 98 309 c 0
 98 366 87.5 373.9 33 379 c 1
 31.3 384.2 28.3 403 31 411 c 1x9c
 100 420 160 434 197 444 c 1xcc
 211 444 217.5 437.9 220 427 c 0
 223.3 412.7 226 392.6 227.3 366.1 c 1
 260.5 392 343.5 444 391 445 c 0
 472 446.6 526 402 526 284 c 2
 526 0 l 2
 526 -124 536 -173 548 -205 c 1
 529 -237 l 1
 483 -228.5 442.1 -212.9 406 -188 c 1
 397 -147 396 -83 396 0 c 2
 396 267 l 2
 396 329 384 368 341 368 c 0
 307.2 368 263.5 351.5 228 326.2 c 1
 228 324.6 228 322.9 228 321.3 c 0
 228 228.7 228.5 43.4 228.5 43.4 c 2xac
EndSplineSet
EndChar

StartChar: u1D777
Encoding: 120695 120695 84
Width: 569
Flags: W
TopAccentHorizontal: 284
HStem: -10 42<248.594 323.626> 311 50<179 390> 639 42<243.666 319.62>
VStem: 39 140<178.386 311 361 485.672> 390 140<179.831 311 361 489.41>
CounterMasks: 1 e0
LayerCount: 2
Fore
SplineSet
390 311 m 1
 179 311 l 1
 180 171 223 32 286 32 c 0
 349 32 389 170 390 311 c 1
281 639 m 0
 214 639 180 486 179 361 c 1
 390 361 l 1
 389 512 342 639 281 639 c 0
39 334 m 0
 39 565 159.5 681 287 681 c 0
 395.5 681 530 594 530 334 c 0
 530 76 389 -10 282 -10 c 0
 167 -10 39 86 39 334 c 0
EndSplineSet
EndChar

StartChar: u1D778
Encoding: 120696 120696 85
Width: 334
VWidth: 999
Flags: W
TopAccentHorizontal: 167
HStem: -9.9 64<148 300.556> 411 20G<66 71 206.5 214.417>
VStem: 83 132<59.4248 427.353>
AnchorPoint: "unten_punkt" 199 -106.9 basechar 0
LayerCount: 2
Fore
SplineSet
85 261.1 m 2
 84 322 l 2
 83.5 350 83 394 66 429 c 1
 68 431 l 1
 74 430 100 429 112 429 c 0
 131 429 199 433 214 439 c 1
 214 439 216 375 216 343 c 2
 216 272 l 2
 216 212.1 215 161.1 215 131.1 c 0
 215 90.1 225 54.1 252 54.1 c 0
 278 54.1 288 55.1 310 66.1 c 1
 321 59.1 327 41.1 327 25.1 c 1
 284 -0.9 232 -9.9 180 -9.9 c 0
 116 -9.9 83 41.1 83 88.1 c 0
 83 118.1 86 201.7 85 261.1 c 2
EndSplineSet
EndChar

StartChar: u1D779
Encoding: 120697 120697 86
Width: 595
VWidth: 999
Flags: W
TopAccentHorizontal: 297
HStem: -3 21G<80 92.3333 220.667 232 335.75 370.667 542.5 549> 205 40<218 225.801> 337.5 101.9<390.324 496.037> 412 20<80 91.8333 216.167 226>
VStem: 90 132<2.6647 421.2>
DStem2: 262 275 341.3 257.203 0.572191 0.820121<21.298 143.153>
LayerCount: 2
Fore
SplineSet
346 238 m 0xe8
 415.5 147 474.6 78.6 549 0 c 1
 547 -3 l 1
 538 -1.2 465.7 0 449 0 c 0
 432 0 378.3 -1.2 363 -3 c 1
 308.5 91 279.5 129 226 199 c 1
 221.6 202.7 239 204.8 222 205 c 1
 222 180 l 2
 222 104 224 57 232 0 c 1
 230 -3 l 1
 211.3 -1 190 0 156 0 c 0
 121 0 102.7 -0.7 82 -3 c 1
 80 0 l 1
 88 54 90 105 90 180 c 2
 90 235 l 2
 90 310 88 385 80 428 c 1
 83 432 l 1xd8
 100.7 430.7 128 429 154 429 c 0
 182 429 209.3 432 223 434 c 0
 229 434 232 431 232 424 c 0
 225.7 364 222 321 222 246 c 2
 222 245.2 l 1
 239.7 247.1 251.2 261.6 262 275 c 0
 283.8 302 322.5 356 322.5 356 c 1
 369.5 414.2 414.8 439.4 468.5 439.4 c 0
 493 439.4 527.8 431.1 544.9 422.1 c 1
 548 417.4 l 1
 488.3 313.2 l 1
 480.1 312.8 l 1
 469.9 326.8 446.8 337.5 424.5 337.5 c 0
 414.1 337.5 392.3 330.4 371.3 300.2 c 2
 341.3 257.2 l 2
 338.4 253.1 337.3 253.2 337.3 248.2 c 0
 337.3 243.2 340.3 246 346 238 c 0xe8
EndSplineSet
Comment: "Ist das so richtig? In Times anders" 
EndChar

StartChar: u1D77A
Encoding: 120698 120698 87
Width: 557
VWidth: 999
Flags: W
TopAccentHorizontal: 132
HStem: -11 81<430.827 516.182> 617 81<80.132 174.209>
DStem2: 278 569 230 478 0.288585 -0.957454<-59.8055 103.64 223.588 523.338>
LayerCount: 2
Fore
SplineSet
550 75 m 1
 537 11 493 -11 464 -11 c 0
 414 -11 364 33 336 126 c 2
 273.6 334.2 l 1
 142 0 l 1
 115 -2 50 -6 27 -12 c 1
 -8 0 l 1
 239 449 l 1
 230 478 l 1
 189 616 150 617 122 617 c 0
 97 617 69 609 51 592 c 1
 43.7 594.4 36.1 606.2 34 619 c 1
 53 655 92 698 131 698 c 0
 161 698 243 687 278 569 c 2
 385 214 l 2
 424 82 436 70 468 70 c 0
 489 70 509 75 530 101 c 1
 541.3 98.6 546.7 84 550 75 c 1
EndSplineSet
EndChar

StartChar: u1D77B
Encoding: 120699 120699 88
Width: 598
Flags: W
TopAccentHorizontal: 299
HStem: -237 21G<175.85 198.6> -10 81<220.249 314.195> -10 54<504.694 553.22> 412 20G<65 135 135 213 364 434 434 512>
VStem: 72 132<88.5957 426.381> 371 132<102.337 426.381>
LayerCount: 2
Fore
SplineSet
204 248 m 2xdc
 204 171 l 2
 204 108 222 71 257 71 c 0xdc
 298 71 334.5 87.5 371 118 c 1
 371 250 l 2
 371 326 371 373 364 429 c 1
 366 432 l 1
 366 432 400 429 434 429 c 0
 469 429 511 432 511 432 c 1
 512 429 l 1
 503 376 503 324 503 249 c 2
 503 80 l 2
 503 47 522 44 562 44 c 1
 568 39 571 32 572 23 c 1
 542 0 492 -10 453 -10 c 0xbc
 410 -10 388 7 374 58 c 1
 372 58 l 1
 326.5 10 283 -10 228 -10 c 0
 206 -10 175.5 0 163 20 c 1
 163 -104 199.3 -175.7 215 -205 c 1
 206.7 -215.4 201.2 -226.6 196 -237 c 1
 155.7 -230.7 121.3 -216.7 93 -198 c 1
 84 -157 72 47 72 130 c 2
 72 249 l 2
 72 325 72 373 65 429 c 1
 67 432 l 1
 67 432 101 429 135 429 c 0
 170 429 212 432 212 432 c 1
 213 429 l 1
 204 376 204 323 204 248 c 2xdc
EndSplineSet
EndChar

StartChar: u1D77C
Encoding: 120700 120700 89
Width: 524
VWidth: 999
Flags: W
TopAccentHorizontal: 262
HStem: 370 37<19.8225 91.3777> 422 20G<185.75 204.25 421.295 461>
VStem: 408 82<269.269 401>
DStem2: 213 429 102 331 0.311177 -0.950352<13.3017 344.102>
LayerCount: 2
Fore
SplineSet
102 331 m 2
 93 360 82.2 366.7 59 368 c 2
 22 370 l 1
 18 378 17.2 399 19 407 c 1
 78.5 420.5 170.5 429 201 442 c 1
 207.5 442 209.9 440 213 429 c 2
 307.9 98 l 2
 310.5 89.1 311 91.8 317.5 101.5 c 0
 389.5 209.5 408 252.5 408 286 c 0
 408 352 369 350 369 401 c 0
 369 418 396.6 443 446 443 c 0
 476 443 500 415 500 387 c 0
 500 313 439 181 302 -8 c 1
 292.3 -12.3 222.7 -11.7 213 -8 c 1
 102 331 l 2
EndSplineSet
EndChar

StartChar: u1D77D
Encoding: 120701 120701 90
Width: 485
Flags: W
TopAccentHorizontal: 242
HStem: -224 47<203.246 345.909> -12 87<187.134 355.975> 301 73<272.346 390.941> 540 42<177.291 218.485> 566.7 104.6<331.356 380.059> 678 20G<126.75 148>
VStem: 35 130<97.6903 220.851> 77.4 120.1<352.129 454.969> 372 76<-142.731 -27.1524>
LayerCount: 2
Fore
SplineSet
372 -73 m 0xee80
 372 -27 340 -12 289 -12 c 0
 96 -12 35 73 35 157 c 0xee80
 35 212 93 278 156 306 c 1
 101 319 77.4 357.1 77.4 396.4 c 0
 77.4 452 139.5 506.1 219 548 c 1
 203 542 190.5 540 181 540 c 0
 123 540 55 590 42 658 c 1
 62.5 678.5 114.5 694 139 698 c 1
 148 698 l 1
 147 692 147 685 147 678 c 0
 147 621 188 582 216 582 c 0xf580
 236 582 241 582.3 258.3 591.9 c 1
 307.2 645.5 360 671.3 409.9 671.3 c 0
 430.7 671.3 448.6 661.1 448.6 639.2 c 0
 448.6 613.8 399.3 591.2 313.9 566.7 c 1
 245.5 506.6 197.5 471.7 197.5 396.8 c 0xed80
 197.5 362.6 220.9 346 236 346 c 0
 277.5 346 307.8 374 351 374 c 0
 383 374 397 363 397 343 c 0
 397 314 371 301 324 301 c 0
 300.5 301 221 297 203 288 c 0
 175 274 165 208 165 162 c 0
 165 107 180 75 277 75 c 0
 374 75 448 21 448 -73 c 0
 448 -130 402 -224 236 -224 c 0
 170.5 -224 93.5 -197.1 93.5 -148.8 c 0
 93.5 -122.3 106.3 -101.5 150 -101.5 c 0
 191.4 -101.5 213.4 -116.7 224.6 -132.8 c 0
 239 -153.6 256 -177 288 -177 c 0
 356 -177 372 -130 372 -73 c 0xee80
EndSplineSet
EndChar

StartChar: u1D77E
Encoding: 120702 120702 91
Width: 566
VWidth: 999
Flags: W
TopAccentHorizontal: 283
HStem: -10 50<234.308 349.488> 389 50<218.541 339.619>
VStem: 41 142<105.349 313.144> 383 142<109.544 320.837>
LayerCount: 2
Fore
SplineSet
41 205 m 0
 41 360 142 439 285 439 c 0
 454 439 525 340 525 214 c 0
 525 75.8 436 -10 283 -10 c 0
 134 -10 41 72 41 205 c 0
278 389 m 0
 192 389 183 315 183 228 c 0
 183 151 193 40 297 40 c 0
 342 40 383 72 383 187 c 0
 383 326 363 389 278 389 c 0
EndSplineSet
Colour: ff00ff
EndChar

StartChar: u1D77F
Encoding: 120703 120703 92
Width: 592
VWidth: 999
Flags: MW
TopAccentHorizontal: 296
HStem: -10 125<383 480.17> -10 114.5<70.5 128.756> 321 115<91.7714 177 242 348 417.975 521.912>
VStem: 19 39<278.666 300.555> 177 65<175.233 321> 334 83<54 317.643>
LayerCount: 2
Fore
SplineSet
561 436 m 1x7c
 572 424 l 1
 555 388 523 321 480 321 c 2
 420 321 l 1
 417 285 417 316 417 178 c 0
 417 136 436 115 459 115 c 0
 472 115 509.5 117 549 146 c 1
 559.5 145.2 567 127 567 110 c 1
 542.8 42 462 -10 415 -10 c 0xbc
 351 -10 334 16 334 92 c 0
 334 150 338.8 212 348 321 c 1
 242 321 l 1
 242 79 206 -10 108 -10 c 0
 86 -10 49.5 26 49.5 55 c 0
 49.5 73 61.4 97.9 87 104.5 c 0
 123.8 114 172.8 131 177 321 c 1
 144 321 l 2
 94 321 72.8 306 58 272 c 1
 47 268 20.4 277.8 19 286 c 1
 27 346 68 436 162 436 c 2
 561 436 l 1x7c
EndSplineSet
EndChar

StartChar: u1D780
Encoding: 120704 120704 93
Width: 561
Flags: W
TopAccentHorizontal: 280
HStem: -10 42<217.481 338.633> 402 42<226.61 337.506>
VStem: 55 130<-202.723 1 60.6202 318.469> 386 140<133.055 338.571>
LayerCount: 2
Fore
SplineSet
381 200 m 0
 381 329 335 402 267 402 c 0
 227 402 185 374 185 232 c 2
 185 119 l 1
 202 82 248 32 285 32 c 0
 349 32 381 97 381 200 c 0
177 -194 m 1
 51 -238 l 1
 33 -208 l 1
 45 -177 55 -118 55 7 c 2
 55 186 l 2
 55 319 95.9 363.2 127 391 c 0
 173 432 239 444 292 444 c 0
 424 444 521 353 521 222 c 0
 521 68 416 -10 271 -10 c 0
 239 -10 206 0 185 11 c 1
 185 -16.8 186 -47.7 186 -77 c 0
 186 -124 184 -167 177 -194 c 1
EndSplineSet
EndChar

StartChar: u1D781
Encoding: 120705 120705 94
Width: 441
VWidth: 999
Flags: W
TopAccentHorizontal: 220
HStem: 322 92<163 282>
VStem: 38 75<195 213> 291 57<-41.5 -41>
LayerCount: 2
Fore
SplineSet
340 -98 m 0
 340 -155 310 -185 264 -185 c 0
 243 -185 225 -161.6 210.6 -140.8 c 0
 199.4 -124.7 177.4 -109.5 136 -109.5 c 0
 92.3 -109.5 79.5 -130.3 79.5 -156.8 c 0
 79.5 -205.1 146.5 -232 212 -232 c 0
 392.2 -232 421.9 -132 421.9 -35.9 c 0
 421.9 11.1 407.1 41.9 380 69 c 0
 361 88 316.8 106.6 281 116 c 0
 155 149 97 176 97 225 c 0
 97 302 133 351 209 351 c 0
 250 351 282 335 297 320 c 0
 312 305 329 295 346 295 c 0
 374 295 401 344 401 370 c 0
 401 397 369 442 269 442 c 0
 110 442 22 304 22 198 c 0
 22 103 57 32 174 0 c 0
 277.4 -28.3 340 -38 340 -98 c 0
EndSplineSet
EndChar

StartChar: u1D782
Encoding: 120706 120706 95
Width: 570
VWidth: 999
Flags: W
TopAccentHorizontal: 285
HStem: -11 43<199.218 319.78> 341 95<201.845 324.15 354 517.342>
VStem: 11 140<116.211 289.606> 358 140<94.4201 248.924>
LayerCount: 2
Fore
SplineSet
480 341 m 2
 354 341 l 1
 424 317.5 498 261 498 172 c 0
 498 84.5 421 -11 262 -11 c 0
 125 -11 11 78 11 204 c 0
 11 265 34 324 76 366 c 0
 111 401 208 436 299 436 c 2
 540 436 l 1
 551 424 l 1
 533 390 517 341 480 341 c 2
269 32 m 0
 325 32 358 81 358 175 c 0
 358 266 349 301.5 304 341 c 1
 175 341 151 283 151 188 c 0
 151 120 166 32 269 32 c 0
EndSplineSet
EndChar

StartChar: u1D783
Encoding: 120707 120707 96
Width: 441
VWidth: 999
Flags: W
TopAccentHorizontal: 220
HStem: -10 125<218 315.17> 321 113<90.17 183 255 390.931>
VStem: 27 23<275.681 291.452> 169 83<54 317.605>
LayerCount: 2
Fore
SplineSet
183 321 m 1
 134 321 l 2
 85 321 70.5 316.5 50 273 c 1
 40 273 31 275 27 281 c 1
 34 334 61 434 154 434 c 2
 421 434 l 1
 432 422 l 1
 420.5 383.5 391 321 350 321 c 2
 255 321 l 1
 252 285 252 210.4 252 178 c 0
 252 136 271 115 294 115 c 0
 307 115 344.5 117 384 146 c 1
 394.5 145.2 402 127 402 110 c 1
 377.8 42 297 -10 250 -10 c 0
 186 -10 169 16 169 92 c 0
 169 150 173.8 212 183 321 c 1
EndSplineSet
EndChar

StartChar: u1D784
Encoding: 120708 120708 97
Width: 550
Flags: W
TopAccentHorizontal: 261
HStem: -10 42<273.504 379.831> 345 99<356.597 433.526>
VStem: 86 133<90.7784 347.384> 103 142<245.208 415.5> 451 68<131.201 326.478>
LayerCount: 2
Fore
SplineSet
519 250 m 0xe8
 519 80 409 -10 308 -10 c 0
 233 -10 200 -7 155 21 c 0
 101 54.6 86 118 86 175 c 0xe8
 86 220 91 258 96 291 c 0
 99 316 103 326 103 341 c 0
 103 352 97 362 91 365 c 0
 81.8 369.6 49 369 36 370 c 1
 31 376 27 391 27 401 c 1
 53 417 157 444 190 444 c 0
 226 444 245 432 245 399 c 0xd8
 245 366 236 330 231 297 c 0
 225 263 219 226 219 172 c 0
 219 92 274 32 328 32 c 0
 362.5 32 391.2 55.4 414 91 c 0
 440.1 131.6 451 187.9 451 238 c 0
 451 284.6 444.5 309.8 434 325 c 0
 424 339.5 407.2 342.1 396 345 c 0
 387.5 347.2 368.6 352.1 356 363 c 0
 345.3 372.2 340 389.3 340 404 c 0
 340 423 358 444 389 444 c 0
 424 444 460.8 433.5 480 410 c 0
 506.8 377.2 519 321.1 519 250 c 0xe8
EndSplineSet
EndChar

StartChar: u1D785
Encoding: 120709 120709 98
Width: 677
Flags: W
TopAccentHorizontal: 338
HStem: -237 21G<285.2 367.833> -8 42<235.701 281> 402 43<399.853 470.232>
VStem: 37 130<120.301 306.808> 281 100<-212 -6.2984 35 376.768> 509 130<136.565 328.03>
LayerCount: 2
Fore
SplineSet
509 224 m 0
 509 358 471 402 424 402 c 0
 400 402 381 358 381 248 c 2
 381 35 l 1
 454 58 509 135 509 224 c 0
302 -237 m 1
 281 -212 l 1
 281 -8 l 1
 111 8 37 93 37 229 c 0
 37 343 171 419 226 446 c 1
 255 414 l 1
 221 387 167 343 167 220 c 0
 167 127 201 54 281 34 c 1
 281 261 l 2
 281 331 289 372 333 416 c 0
 355 438 401 445 435 445 c 0
 560 445 639 341 639 239 c 0
 639 60 483 5 381 -7 c 1
 381 -213 l 1
 302 -237 l 1
EndSplineSet
EndChar

StartChar: u1D786
Encoding: 120710 120710 99
Width: 565
VWidth: 487
Flags: W
TopAccentHorizontal: 282
HStem: -232 69<431.8 504.706> 370 69<69.5334 129.323>
DStem2: 23 -208 187 -126 0.525718 0.850659<67.8426 300.507> 282 261 179 234 0.320807 -0.947145<-153.621 74.9314 232.891 446.736>
LayerCount: 2
Fore
SplineSet
179 234 m 2
 152.7 304.7 130 370 102 370 c 0
 91 370 62 364 46 348 c 1
 38.6 350 31.9 363.5 30 376 c 1
 54 408 88 439 121 439 c 0
 211 439 248.9 374.5 282 261 c 2
 303 189 l 1
 421 436 l 1
 421 436 441 433 448 433 c 0
 472 433 550 439 550 439 c 1
 477 332 l 1
 322 124 l 1
 387 -49 l 2
 425.2 -150.6 442 -163 469 -163 c 0
 487 -163 515 -151 528 -136 c 1
 539 -137 545.4 -153.6 547 -162 c 1
 538.8 -179.8 519.9 -200.1 505 -210 c 0
 487 -222 460.8 -232 445 -232 c 0
 378 -232 322.8 -207 284 -72 c 2
 261 8 l 1
 187 -126 l 1
 140 -235 l 1
 46 -225 l 1
 20 -224 l 1
 23 -208 l 1
 230 97 l 1
 179 234 l 2
EndSplineSet
EndChar

StartChar: u1D787
Encoding: 120711 120711 100
Width: 697
Flags: W
TopAccentHorizontal: 364
HStem: -220 21G<292 426> -7 42<417 460.265> 424 20G<137.492 172 545 599.5> 588 20G<325 396.698>
VStem: 54 133<105.184 353.834> 67 142<175.812 415.5> 292 134<-220 -72.3> 302 115<-114.5 -9 36 226> 329 67<407.45 608> 552 96<182.415 357.5>
LayerCount: 2
Fore
SplineSet
54 175 m 0xf940
 54 220 55 258 60 291 c 0
 63 316 67 326 67 341 c 0
 67 352 61 362 55 365 c 0
 45.8 369.6 13 369 0 370 c 1
 -5 376 -9 391 -9 401 c 1
 17 417 121 444 154 444 c 0
 190 444 209 432 209 399 c 0xf440
 209 366 200 330 195 297 c 0
 189 263 187 226 187 172 c 0
 187 125 224 58 304 36 c 1
 313 205 321 439 329 608 c 1
 396 608 l 1xf8c0
 416 35 l 1
 511 61 552 159 552 212 c 0
 552 250 540 281 524 311 c 0
 508.2 340.7 500 372 500 399 c 0
 500 420 529 444 561 444 c 0
 638 444 648 387 648 328 c 0
 648 166 581 18 417 -7 c 1xf140
 420 -77 423 -151 426 -220 c 1
 292 -220 l 1xf240
 302 -9 l 1
 222.1 -9.5 162.2 7.2 122 37 c 0
 74.6 72.1 54 133.9 54 175 c 0xf940
EndSplineSet
EndChar

StartChar: u1D788
Encoding: 120712 120712 101
Width: 760
Flags: W
TopAccentHorizontal: 380
HStem: -10 42<221.168 306.659 457.28 542.11>
VStem: 41 140<78.9828 264.974> 326 113<141.514 297.845> 579 140<103.068 292.248>
LayerCount: 2
Fore
SplineSet
719 207 m 0
 719 79 639 -10 503 -10 c 0
 454 -10 406 5 374 53 c 1
 344 10 298 -10 236 -10 c 0
 136 -10 41 33 41 179 c 0
 41 277 131 390 265 456 c 1
 277.8 448.7 285 440 286 423 c 1
 255 407 181 332 181 196 c 0
 181 75 225 32 263 32 c 0
 301 32 326 65 346 133 c 1
 329 181 326 229 326 247 c 0
 326 279 342 308 382 308 c 0
 423 308 439 286 439 253 c 0
 439 230 435 188 415 134 c 1
 434 73 461 32 500 32 c 0
 559 32 579 110 579 204 c 0
 579 251 572 341 477 423 c 1
 480.3 437.8 489.5 446.1 500 453 c 1
 547 434 719 351 719 207 c 0
EndSplineSet
EndChar

StartChar: u1D78B
Encoding: 120715 120715 102
Width: 618
Flags: W
TopAccentHorizontal: 309
HStem: -10 50<246.688 330.74> 232 62<70.4372 189> 339 69<243.317 379> 637.6 43.4<218.07 315.753>
VStem: 78.6 117.4<457.929 597.944> 95 132<59.7591 229.856> 379 142<170.955 335 408 528.598> 558 43.5<269 326.169>
LayerCount: 2
Fore
SplineSet
240 432 m 0xfb
 263 413 298 408 379 408 c 1
 378.1 567.3 325 637.6 267.5 637.6 c 0
 211.9 637.6 196 590.9 196 525 c 0
 196 492 214 453 240 432 c 0xfb
558 269 m 1
 558 311 539 329 521 335 c 1
 520 144 452 -10 276 -10 c 0
 187 -10 95 27 95 142 c 0
 95 208 92 232 81 232 c 0
 69 232 51.5 226 38 218 c 1
 26.5 247 l 1
 57 267.5 102.6 294 162.5 294 c 0
 215.5 294 227 234 227 151 c 0xf7
 227 68 254 40 286 40 c 0
 378 40 379 213 379 339 c 1
 199.4 344.4 78.6 410.8 78.6 518.6 c 0
 78.6 636.9 186.6 681 281 681 c 0
 458 681 520 538 521 407 c 1
 549 405 568 399 582 390 c 1
 582 391 l 1
 596.4 380.8 601.5 359.3 601.5 331.5 c 0
 601.5 313 599.3 291.7 596 269 c 1
 558 269 l 1
EndSplineSet
EndChar

StartChar: u1D7EC
Encoding: 120812 120812 103
Width: 514
Flags: W
HStem: -10 43<215.163 293.556> 565 45<217.721 295.796>
VStem: 30 143<159.625 439.077> 342 142<157.964 454.537>
LayerCount: 2
Fore
SplineSet
260 565 m 0
 220 565 173 530 173 287 c 0
 173 202 172 33 256 33 c 0
 296.4 33 342 86.8 342 327 c 0
 342 503.8 298.8 565 260 565 c 0
255 -10 m 0
 109 -10 30 134 30 298 c 0
 30 498 131 610 260 610 c 0
 360.7 610 484 542.7 484 307 c 0
 484 69 354 -10 255 -10 c 0
EndSplineSet
Substitution2: "'sups' Hochgestellte 1" u1D7EC.superior
Substitution2: "'sinf' Wissenschaftliche Indices 1" u1D7EC.inferior
EndChar

StartChar: u1D7ED
Encoding: 120813 120813 104
Width: 514
VWidth: 999
Flags: W
HStem: -3 21G<220 298 298 379> 492 43<104 187.913>
VStem: 231 136<2.80533 495.947>
LayerCount: 2
Fore
SplineSet
367 189 m 2
 367 110 370 60 379 0 c 1
 377 -3 l 1
 377 -3 334 0 298 0 c 0
 261 0 221 -3 221 -3 c 1
 220 0 l 1
 229 56 231 111 231 189 c 2
 231 433 l 2
 231 469 230 498 213 498 c 0
 193 498 148 498 104 492 c 1
 102 535 l 1
 195 556 306 589 371 610 c 1
 375 610 378 610 378 605 c 0
 376 591 367 550 367 442 c 2
 367 189 l 2
EndSplineSet
Substitution2: "'sups' Hochgestellte 1" u1D7ED.superior
Substitution2: "'sinf' Wissenschaftliche Indices 1" u1D7ED.inferior
EndChar

StartChar: u1D7EE
Encoding: 120814 120814 105
Width: 514
VWidth: 487
Flags: W
HStem: 0 100<194 454.031> 471 21G<66 126.5> 556 54<160.372 269.431>
VStem: 302 155<375.178 523.963>
LayerCount: 2
Fore
SplineSet
226 556 m 0
 177 556 143 530 110 471 c 1
 66 472 l 1
 45 551 l 1
 48 555 l 1
 73 577 162 610 234 610 c 0
 353 610 457 561 457 453 c 0
 457 377 408 338 351 283 c 2
 251 186 l 2
 230 166 194 116 194 100 c 1
 276 100 l 2
 376 100 404 105 462 109 c 1
 459 96 456 56 456 43 c 0
 456 30 459 9 462 -4 c 1
 387 -1 363 0 288 0 c 0
 212 0 136.1 -2.4 39 -4 c 1
 38 0 l 1
 38 59 68 105 166 205 c 1
 240 278 l 1
 299 338 302 390 302 454 c 0
 302 516 262 556 226 556 c 0
EndSplineSet
Substitution2: "'sups' Hochgestellte 1" u1D7EE.superior
Substitution2: "'sinf' Wissenschaftliche Indices 1" u1D7EE.inferior
EndChar

StartChar: u1D7EF
Encoding: 120815 120815 106
Width: 514
VWidth: 487
Flags: W
HStem: -11 42<148.621 265.088> 292 40<153 238.195> 568 42<163.811 272.43>
VStem: 311 127<402.012 529.108> 315 152<96.8234 254.248>
LayerCount: 2
Fore
SplineSet
213 31 m 0xe8
 248 31 315 61 315 177 c 0xe8
 315 272 259 294 202 294 c 0
 193 294 165 294 153 292 c 1
 153 332 l 1
 255 339 311 383 311 466 c 0
 311 519 268 568 229 568 c 0
 161.6 568 142.6 531.6 113 470 c 1
 69 471 l 1
 48 550 l 1
 51 554 l 1
 76 576 150 610 238 610 c 0
 360 610 438 576 438 482 c 0xf0
 438 398 382 348 309 329 c 1
 309 326 l 1
 383 319 467 276 467 180 c 0
 467 58 354.6 -11 211 -11 c 0
 117.6 -11 65 23 40 45 c 1
 36 50 l 1
 58 129 l 1
 102 130 l 1
 135 71 138 31 213 31 c 0xe8
EndSplineSet
Substitution2: "'sups' Hochgestellte 1" u1D7EF.superior
Substitution2: "'sinf' Wissenschaftliche Indices 1" u1D7EF.inferior
EndChar

StartChar: u1D7F0
Encoding: 120816 120816 107
Width: 514
Flags: W
HStem: -3 21G<251 322 322 396> 162 47<76.8153 261 385 495.734> 590 20G<249.33 387>
VStem: 261 124<2.47862 162 209 498>
LayerCount: 2
Fore
SplineSet
261 498 m 1
 208 426 126 293 76 209 c 1
 261 209 l 1
 261 498 l 1
261 162 m 1
 84 162 l 2
 60 162 56 164 51 169 c 2
 36 187 l 1
 30 198 17 206 17 210 c 0
 17 213 22 219 24 223 c 0
 106 347 216.7 513 282 610 c 1
 302 608.2 348.2 607.8 385 610 c 1
 387 608 l 1
 385.8 593.2 385 209 385 209 c 1
 483 209 l 2
 494 209 498 203 498 193 c 0
 498 181 483 162 469 162 c 2
 385 162 l 1
 386 98 389 53 396 0 c 1
 394 -3 l 1
 394 -3 354 0 322 0 c 0
 289 0 252 -3 252 -3 c 1
 251 0 l 1
 258 49 261 98 261 162 c 1
EndSplineSet
Substitution2: "'sups' Hochgestellte 1" u1D7F0.superior
Substitution2: "'sinf' Wissenschaftliche Indices 1" u1D7F0.inferior
EndChar

StartChar: u1D7F1
Encoding: 120817 120817 108
Width: 514
VWidth: 487
Flags: W
HStem: -10 49<150.017 277.346> 327 53<155.543 282.882> 505 94<163.244 434.427> 511 99<162 245.242 249.509 295.837 299.432 435>
VStem: 324 142<112.507 282.815>
LayerCount: 2
Fore
SplineSet
242 -10 m 0xe8
 147 -10 91 0 50 35 c 1
 47 40 l 1
 68 119 l 1
 102 120 l 1
 135 61 165 39 224 39 c 0
 269 39 324 80 324 178 c 0
 324 239.3 313.9 283.8 280 307.5 c 0
 264.7 318.2 243.2 327 218 327 c 0
 169.1 327 146.1 313.7 112.5 286 c 1
 88.5 293.5 l 1
 103.6 329.5 115 563.5 103 606 c 1
 105 609 l 1
 140 606 210 599 247 599 c 0xe8
 300 599 387 604 444 610 c 1
 450 607 l 1
 435 511 l 1xd8
 394 507 328 505 298 505 c 0
 252 505 196 509 162 513 c 1
 155 366 l 1
 177 374 219.5 380 274 380 c 0
 320 380 369.3 363.9 402.5 337.5 c 0
 439 308.5 466 258.9 466 206 c 0
 466 76 362 -10 242 -10 c 0xe8
EndSplineSet
Substitution2: "'sups' Hochgestellte 1" u1D7F1.superior
Substitution2: "'sinf' Wissenschaftliche Indices 1" u1D7F1.inferior
EndChar

StartChar: u1D7F2
Encoding: 120818 120818 109
Width: 514
Flags: W
HStem: -10 39<224.347 310.848> 315 50<204.23 295.75> 569 41<339.203 447.96>
VStem: 44 126<115.719 300.126> 343 134<109.662 262.764>
LayerCount: 2
Fore
SplineSet
171 289 m 1
 170 278 170 253 170 242 c 0
 170 68 225 29 275 29 c 0
 311 29 343 78 343 186 c 0
 343 245.5 303 315 245 315 c 0
 227 315 209.5 312.5 171 289 c 1
450 569 m 1
 393 566 324 557 265 509 c 0
 217.9 470.7 184 402.5 176.5 330.5 c 1
 212.5 349.5 255 362 279 365 c 1
 442.5 361.5 477 253 477 204 c 0
 477 115.5 419 -10 263 -10 c 0
 162 -10 44 32 44 246 c 0
 44 342 75.7 447.2 152 513 c 0
 228 578.5 303 605.5 444 610 c 1
 451.8 600.4 453.1 581.2 450 569 c 1
EndSplineSet
Substitution2: "'sups' Hochgestellte 1" u1D7F2.superior
Substitution2: "'sinf' Wissenschaftliche Indices 1" u1D7F2.inferior
EndChar

StartChar: u1D7F3
Encoding: 120819 120819 110
Width: 514
VWidth: 487
Flags: MW
HStem: -13 22G<144 235> 511 89<120 359>
LayerCount: 2
Fore
SplineSet
375 496 m 1
 316 496 207 488 79 481 c 1
 81 496 84 540 84 555 c 0
 84 570 81 594 79 609 c 1
 121 603 250 599 399 599 c 0
 430 599 448 603 463 607 c 1
 477 587 l 1
 365 315 308 161 251 -9 c 1
 133 -13 l 1
 130 -6 l 1
 194 139 300 310 375 496 c 1
EndSplineSet
Substitution2: "'sups' Hochgestellte 1" u1D7F3.superior
Substitution2: "'sinf' Wissenschaftliche Indices 1" u1D7F3.inferior
EndChar

StartChar: u1D7F4
Encoding: 120820 120820 111
Width: 514
VWidth: 487
Flags: MW
HStem: -10 40<207.247 320.903> 570 40<212.547 309.439>
VStem: 41 125<74.9761 221.889> 72 119<424.763 534.717> 331 118<415.364 547.734> 351 127<77.6549 220.249>
DStem2: 249 391 161 326 0.880271 -0.474472<-62.088 -26.0335 22.5203 41.7435 91.6355 165.746>
LayerCount: 2
Fore
SplineSet
261 570 m 0xc0
 209 570 185 533 185 487 c 0
 185 456 207.6 415.3 249 391 c 2
 278 374 l 1
 303 394 338 422 338 476 c 0
 338 522 317 570 261 570 c 0xc0
449 484 m 0xd8
 449 420 408 382 331 350 c 1xd8
 390 315 l 1
 439 281 478 219 478 161 c 0
 478 105 456 57 403 22 c 0
 369 0 301 -10 252 -10 c 0
 149 -10 41 44 41 146 c 0xe4
 41 222 94 271 179 316 c 1
 161 326 l 2
 101.5 359.1 72 407 72 463 c 0
 72 547 147 610 267 610 c 0
 373 610 449 561 449 484 c 0xd8
254 30 m 0
 305 30 351 46 351 141 c 0
 351 198 333 231 275 269 c 1
 232 292 l 1
 172 247 166 194 166 146 c 0xe4
 166 73 212 30 254 30 c 0
EndSplineSet
Substitution2: "'sups' Hochgestellte 1" u1D7F4.superior
Substitution2: "'sinf' Wissenschaftliche Indices 1" u1D7F4.inferior
EndChar

StartChar: u1D7F5
Encoding: 120821 120821 112
Width: 514
VWidth: 487
Flags: W
HStem: -10 41<74.0399 182.797> 235 50<226.25 317.77> 571 39<211.152 297.653>
VStem: 45 134<337.236 490.338> 352 126<299.874 484.281>
LayerCount: 2
Fore
SplineSet
351 311 m 1
 352 322 352 347 352 358 c 0
 352 532 297 571 247 571 c 0
 211 571 179 522 179 414 c 0
 179 354.5 219 285 277 285 c 0
 295 285 312.5 287.5 351 311 c 1
72 31 m 1
 129 34 198 43 257 91 c 0
 304.1 129.3 338 197.5 345.5 269.5 c 1
 309.5 250.5 267 238 243 235 c 1
 79.5 238.5 45 347 45 396 c 0
 45 484.5 103 610 259 610 c 0
 360 610 478 568 478 354 c 0
 478 258 446.3 152.8 370 87 c 0
 294 21.5 219 -5.5 78 -10 c 1
 70.2 -0.4 68.9 18.8 72 31 c 1
EndSplineSet
Substitution2: "'sups' Hochgestellte 1" u1D7F5.superior
Substitution2: "'sinf' Wissenschaftliche Indices 1" u1D7F5.inferior
Colour: ff00ff
EndChar

StartChar: u1D5EE.inferior
Encoding: 1114112 -1 113
Width: 372
Flags: W
HStem: -110 47<114 205.786> -90 23<342.58 361.71> 124 45<110.702 217.765>
VStem: 34 103<-61.1481 6.66126> 224 99<-42.7163 26 67.0635 117.591>
LayerCount: 2
Fore
SplineSet
321 -45 m 2xb8
 321 -54.3 324 -60.7 330 -64 c 0
 334.7 -66 344 -67 358 -67 c 1
 361.3 -69.7 363.3 -77.3 364 -90 c 1x78
 346.7 -103.3 319.3 -110 282 -110 c 0
 250.7 -110 231 -98.3 223 -75 c 1
 222 -75 l 1
 198.7 -98.3 167.7 -110 129 -110 c 0
 99 -110 76 -104.3 60 -93 c 0
 42.7 -80.3 34 -64 34 -44 c 0
 34 2.7 69 33.7 139 49 c 2
 220 67 l 2
 222.7 68.3 224 71 224 75 c 0
 224 107.7 206.7 124 172 124 c 0
 137.3 124 109 108 87 76 c 1
 67 76 l 1
 55 134 l 1
 56 137 l 1
 80.7 158.3 121 169 177 169 c 0
 226.3 169.7 263.7 161.7 289 145 c 1
 311.7 127 323 100.3 323 65 c 2
 321 -45 l 2xb8
175 13 m 2
 149.7 6.3 137 -7.7 137 -29 c 0
 137 -37.7 140 -45.3 146 -52 c 0
 152 -59.3 159.3 -63 168 -63 c 0xb8
 184.7 -63 200 -56.3 214 -43 c 0
 220 -37 223 -27.7 223 -15 c 2
 224 26 l 1
 175 13 l 2
EndSplineSet
EndChar

StartChar: u1D5EF.inferior
Encoding: 1114113 -1 114
Width: 435
Flags: W
HStem: -106 40<187.77 276.179> 120 53<198.736 281.133>
VStem: 80 101<-56.8074 107.711 139 302.711> 296 101<-37.9858 107.08>
LayerCount: 2
Fore
SplineSet
181 139 m 1
 211 161.7 239 173 265 173 c 0
 308.3 173 341.3 162.7 364 142 c 0
 386 121.3 397 89.7 397 47 c 0
 397 -4.3 380 -44.7 346 -74 c 1
 317.3 -95.3 282 -106 240 -106 c 0
 213.3 -106 193.7 -104.7 181 -102 c 0
 153.7 -96.7 138.7 -94 136 -94 c 0
 132.7 -94 122 -96 104 -100 c 1
 82 -107 l 1
 79.3 -106.3 77 -105.3 75 -104 c 1
 78.3 -87.3 80 -59 80 -19 c 2
 80 189 l 2
 80 238.3 77.7 276.7 73 304 c 1
 74 305 l 1
 112 307.7 148.3 314.3 183 325 c 0
 186.3 325 188 323 188 319 c 0
 183.3 280.3 181 242.3 181 205 c 2
 181 139 l 1
238 -66 m 0
 258 -66 272.7 -56.3 282 -37 c 0
 291.3 -18.3 296 5.7 296 35 c 0
 296 91.7 276.7 120 238 120 c 0
 224.7 120 205.7 111.3 181 94 c 1
 181 -24 l 2
 181 -42 184.3 -53 191 -57 c 0
 200.3 -63 216 -66 238 -66 c 0
EndSplineSet
Colour: ff00ff
EndChar

StartChar: u1D5F0.inferior
Encoding: 1114114 -1 115
Width: 355
Flags: W
HStem: -109 41<172.344 290.225> 79 71<270.249 308> 129 41<168.564 261.615>
VStem: 42 104<-35.0596 99.2461>
LayerCount: 2
Fore
SplineSet
162 100 m 0xb0
 152 84 146.7 62.7 146 36 c 0
 144.7 8 150 -16 162 -36 c 0
 176 -57.3 194.7 -68 218 -68 c 1
 254 -70.7 283 -59.3 305 -34 c 1
 319 -37 l 1
 319 -44.3 320 -57.3 322 -76 c 1
 296 -98 256 -109 202 -109 c 0
 141.3 -109 99 -96 75 -70 c 0
 53 -46 42 -16 42 20 c 0
 42 66 56.3 104 85 134 c 1
 112.3 158 154 170 210 170 c 0xb0
 258 170 295 163.3 321 150 c 1
 322 148 l 1
 308 79 l 1xd0
 281 78 l 1
 267 112 245.3 129 216 129 c 0
 192 129 174 119.3 162 100 c 0xb0
EndSplineSet
Colour: ff00ff
EndChar

StartChar: u1D5F1.inferior
Encoding: 1114115 -1 116
Width: 425
Flags: W
HStem: -107 45<161.784 244.824> -101 426<262.569 358.441> 130 42<162.351 246.613>
VStem: 44 102<-48.2944 110.352> 260 99<-47.1289 118.574 144 301.711>
LayerCount: 2
Fore
SplineSet
260 -68 m 1x58
 244.7 -94 215.3 -107 172 -107 c 0
 128.7 -107 96.3 -94.7 75 -70 c 0
 54.3 -46 44 -15 44 23 c 0
 44 77.7 61.3 118 96 144 c 1
 126 162.7 161.3 172 202 172 c 0xb8
 227.3 172 246.7 162.7 260 144 c 1
 260 188 l 2
 260 237.3 257.3 275.7 252 303 c 1
 254 305 l 1
 290.7 307 326 313.7 360 325 c 1
 364.7 325 367 323 367 319 c 0
 361.7 280.3 359 242 359 204 c 2
 359 16 l 2
 359 -20.7 363 -59.7 371 -101 c 1
 370 -103 l 1
 362 -101.7 344.7 -101 318 -101 c 0
 295.3 -101 279 -101.7 269 -103 c 0
 265.7 -103 264 -102.3 264 -101 c 2
 261 -68 l 1
 260 -68 l 1x58
260 78 m 1
 252.7 112.7 233.3 130 202 130 c 0
 164.7 130 146 98 146 34 c 0
 146 -30 164.3 -62 201 -62 c 0
 227 -62 246.7 -46.3 260 -15 c 1
 260 78 l 1
EndSplineSet
Colour: ff00ff
EndChar

StartChar: u1D5F2.inferior
Encoding: 1114116 -1 117
Width: 377
Flags: W
HStem: -111 53<158.619 286.203> 35 28<141 239> 130 41<156.479 227.355>
VStem: 40 98<-33.2778 35 63 101.397> 239 93<49.6666 121.785>
LayerCount: 2
Fore
SplineSet
334 -45 m 1
 304 -89 259.3 -111 200 -111 c 1
 150.7 -113.7 111 -103.3 81 -80 c 1
 53.7 -55.3 40 -22.7 40 18 c 0
 40 62.7 54 99 82 127 c 1
 108 156.3 146 171 196 171 c 0
 250.7 171 288 157.7 308 131 c 1
 324 112.3 332 87.7 332 57 c 0
 332 42.3 326 35 314 35 c 2
 138 35 l 1
 138 26 l 1
 136.7 1.3 142.7 -18.7 156 -34 c 0
 171.3 -50 195 -58 227 -58 c 1
 261 -56 293.7 -45.3 325 -26 c 1
 331 -26 334 -32.3 334 -45 c 1
238 63 m 2
 238.7 63.7 239 68 239 76 c 1
 233 112 217.3 130 192 130 c 0
 178 130 167 124.3 159 113 c 0
 147 98.3 141 81.7 141 63 c 1
 238 63 l 2
EndSplineSet
EndChar

StartChar: u1D5F3.inferior
Encoding: 1114117 -1 118
Width: 260
Flags: W
ItalicCorrection: 42
HStem: 126 40<22 65 166 237> 271 54<175.42 254.15>
VStem: 65 101<-99.7397 126 166 258.312>
LayerCount: 2
Fore
SplineSet
163 166 m 1
 232 166 l 2
 235.3 166 237 164.7 237 162 c 2
 237 134 l 2
 237 128.7 232.3 126 223 126 c 2
 166 126 l 1
 166 21 l 2
 166 -33.7 167.7 -74.3 171 -101 c 1
 169 -103 l 1
 155 -101.7 137.7 -101 117 -101 c 0
 96.3 -101 78 -101.7 62 -103 c 1
 61 -101 l 1
 63.7 -80.3 65 -39.7 65 21 c 2
 65 126 l 1
 25 126 l 2
 23 126 22 127.3 22 130 c 2
 22 153 l 2
 22 161.7 26.7 166 36 166 c 2
 65 166 l 1
 65 173 l 2
 65.7 217.7 78 253.3 102 280 c 0
 128.7 310 168.3 325 221 325 c 0
 254.3 325 274.3 323.3 281 320 c 1
 282 318 l 1
 279.3 310.7 278 287.7 278 249 c 1
 258 245 l 1
 245.3 262.3 229 271 209 271 c 0
 185.7 271 171 252.7 165 216 c 0
 161.7 196 161 179.3 163 166 c 1
EndSplineSet
Colour: ff00ff
EndChar

StartChar: u1D5F4.inferior
Encoding: 1114118 -1 119
Width: 407
Flags: W
HStem: -246 37<139.061 250.249> -121 60<156.053 272.406> -20 35<160.062 220.226> 137 34<156.098 221.715>
VStem: 32 92<-196.06 -126.684> 45 101<26.2228 132.214> 48 108<-63.6504 -20.7692> 230 101<19.7168 120.007> 275 100<-188.681 -127.558>
LayerCount: 2
Fore
SplineSet
124 -164 m 0xf880
 124 -176 131.7 -187 147 -197 c 0
 159 -205 172 -209 186 -209 c 0
 212 -209 233.3 -203 250 -191 c 0
 266.7 -179.7 275 -166.3 275 -151 c 0
 275 -131 250 -121 200 -121 c 1
 157 -122 l 2
 154.3 -122 149.7 -121.7 143 -121 c 1
 130.3 -134.3 124 -148.7 124 -164 c 0xf880
222 120 m 0
 216 131.3 204.3 137 187 137 c 0
 159.7 137 146 116.7 146 76 c 0
 146 55.3 148.3 40.3 153 31 c 0
 159 20.3 171 15 189 15 c 0
 216.3 15 230 35 230 75 c 0xf5
 230 95.7 227.3 110.7 222 120 c 0
297 4 m 1
 274.3 -12 238.3 -20 189 -20 c 0
 182.3 -20 173.7 -18 163 -14 c 1
 158.3 -24 156 -34.7 156 -46 c 0xf3
 156 -58.7 167.7 -65 191 -65 c 1
 203 -64 l 2
 218.3 -62 231 -61 241 -61 c 0
 330.3 -61 375 -88 375 -142 c 0
 375 -175.3 354 -202.3 312 -223 c 0
 280.7 -238.3 233 -246 169 -246 c 0
 124.3 -246 91.3 -241 70 -231 c 0
 44.7 -219 32 -200.7 32 -176 c 0xf880
 31.3 -160 34.5 -147.5 41.5 -138.5 c 0
 48.5 -129.5 58.7 -122 72 -116 c 0
 84 -110.7 92.3 -106.3 97 -103 c 1
 64.3 -98.3 48 -82.7 48 -56 c 0xf2
 48 -46 53.7 -35.7 65 -25 c 0
 75.7 -15 88.3 -6.7 103 0 c 1
 93 2.7 85 6.3 79 11 c 0
 56.3 26.3 45 47 45 73 c 0
 45 101.7 57 126 81 146 c 1
 103.7 162.7 138.3 171 185 171 c 0
 203 171 217.7 169.3 229 166 c 1
 240.3 166.7 267.7 167.3 311 168 c 0
 334.3 169.3 351.3 170.3 362 171 c 1
 364 169 l 1
 362.7 163.7 362 156.3 362 147 c 0
 362 137.7 362.7 130.3 364 125 c 1
 362 123 l 1
 300 128 l 1
 320.7 114 331 96.3 331 75 c 0
 331 47.7 319.7 24 297 4 c 1
EndSplineSet
Colour: ff00ff
EndChar

StartChar: u1D5F5.inferior
Encoding: 1114119 -1 120
Width: 460
Flags: W
HStem: 114 58<217.219 320.667>
VStem: 74 111<-101 8.97314 196.366 313> 81 101<-99.5269 89.2808 153.667 309.71> 286 100<-99.7729 111.266>
LayerCount: 2
Fore
SplineSet
81 194 m 2xb0
 81 244.7 78.7 283.7 74 311 c 1xd0
 75 313 l 1
 105.7 315 141.3 321.7 182 333 c 1
 186 333 188 331 188 327 c 0
 184 294.3 182 255.3 182 210 c 2
 182 172 l 1
 179 117 l 1
 182 116 l 1
 210.7 153.3 246 172 288 172 c 0
 353.3 172 386 141.3 386 80 c 2
 386 11 l 2
 386 -37.7 388 -75 392 -101 c 1
 391 -103 l 1
 379.7 -101.7 361 -101 335 -101 c 0
 320.3 -101 303 -101.7 283 -103 c 1
 282 -101 l 1
 284.7 -79 286 -41.7 286 11 c 2
 286 66 l 2
 286 98 275.3 114 254 114 c 0
 230.7 114 206.7 97.3 182 64 c 1
 182 11 l 2xb0
 182 -35.7 183 -73 185 -101 c 1
 184 -103 l 1
 170.7 -101.7 150.7 -101 124 -101 c 0
 110 -101 93.7 -101.7 75 -103 c 1
 74 -101 l 1xd0
 78.7 -69.7 81 -32.3 81 11 c 2
 81 194 l 2xb0
EndSplineSet
Colour: ff00ff
EndChar

StartChar: u1D5F6.inferior
Encoding: 1114120 -1 121
Width: 271
Flags: W
HStem: -101 262<86.2412 186.75> 226 95<98.4702 170.53>
VStem: 86 101<-99.6504 154.697 239.47 307.53>
LayerCount: 2
Fore
SplineSet
86 42 m 2
 86 98.7 84 138 80 160 c 1
 82 162 l 1
 135 161 l 2
 152.3 161 169.7 162 187 164 c 0
 191 164 193 161.7 193 157 c 0
 189 107.7 187 71.7 187 49 c 2
 187 9 l 2
 187 -35.7 189 -72.3 193 -101 c 1
 192 -103 l 1
 173.3 -101.7 154.7 -101 136 -101 c 0
 118 -101 99.7 -101.7 81 -103 c 1
 80 -101 l 1
 84 -73.7 86 -37 86 9 c 2
 86 42 l 2
98 308 m 1
 108 316.7 120 321 134 321 c 0
 148.7 321 161 316.7 171 308 c 1
 180.3 298 185 286.7 185 274 c 0
 185 260.7 180.3 249 171 239 c 1
 161 230.3 148.7 226 134 226 c 0
 120 226 108 230.3 98 239 c 1
 88.7 249 84 260.7 84 274 c 0
 84 286.7 88.7 298 98 308 c 1
EndSplineSet
Colour: ff00ff
EndChar

StartChar: u1D5F7.inferior
Encoding: 1114121 -1 122
Width: 256
Flags: W
HStem: -230 62<-1.06738 61.8845> 221 100<86.4702 156.561>
VStem: 72 100<-76 158.896 235.47 306.53>
LayerCount: 2
Fore
SplineSet
74 46 m 2
 74.7 98.7 72.7 136.7 68 160 c 1
 70 163 l 1
 112 161 l 1
 133.3 161 152.7 162 170 164 c 0
 173.3 164 175 162 175 158 c 0
 171.7 118 170 83 170 53 c 2
 168 -76 l 2
 168 -122.7 158.3 -159.3 139 -186 c 1
 107.7 -215.3 69.7 -230 25 -230 c 0
 -0.299999 -230 -15.7 -228.3 -21 -225 c 1
 -22 -223 l 1
 -20 -216.3 -19 -191 -19 -147 c 1
 -3 -143 l 1
 6.3 -159.7 19 -168 35 -168 c 0
 52.3 -168 63.7 -153.3 69 -124 c 0
 71.7 -108.7 73 -75.3 73 -24 c 2
 74 46 l 2
86 307 m 0
 96 316.3 108 321 122 321 c 0
 136 321 147.7 316.3 157 307 c 0
 167 297 172 285 172 271 c 0
 172 257 167 245 157 235 c 0
 147.7 225.7 136 221 122 221 c 0
 108 221 96 225.7 86 235 c 0
 76.7 245 72 257 72 271 c 0
 72 285 76.7 297 86 307 c 0
EndSplineSet
Colour: ff00ff
EndChar

StartChar: u1D5F8.inferior
Encoding: 1114122 -1 123
Width: 422
Flags: W
VStem: 76 100<-99.4641 20 51 301.711>
LayerCount: 2
Fore
SplineSet
76 188 m 2
 76 237.3 73.7 275.7 69 303 c 1
 70 304 l 1
 106.7 306.7 142 313.7 176 325 c 1
 180.7 325 183 323 183 319 c 0
 178.3 279.7 176 241.3 176 204 c 2
 176 51 l 1
 187.3 52.3 196.3 55.3 203 60 c 0
 235.7 87.3 267 121 297 161 c 1
 359 161 393.7 161.3 401 162 c 1
 402 161 l 1
 395.3 155 357.3 116 288 44 c 1
 337.3 -15.3 379.7 -63.7 415 -101 c 1
 414 -103 l 1
 408 -101.7 382.3 -101 337 -101 c 0
 315 -101 299 -101.7 289 -103 c 1
 243 -43 211.3 -3.7 194 15 c 0
 190.7 17.7 184.7 19.3 176 20 c 1
 176 16 l 2
 176 -29.3 178.3 -68.3 183 -101 c 1
 182 -103 l 1
 165.3 -101.7 147 -101 127 -101 c 0
 105.7 -101 86.7 -101.7 70 -103 c 1
 69 -101 l 1
 73.7 -70.3 76 -29.7 76 21 c 2
 76 188 l 2
EndSplineSet
Colour: ff00ff
EndChar

StartChar: u1D5F9.inferior
Encoding: 1114123 -1 124
Width: 261
Flags: W
HStem: -101 434<81.0873 183>
VStem: 80 100<-99.6511 312.854>
LayerCount: 2
Fore
SplineSet
80 154 m 2
 80.7 236.7 79 290 75 314 c 1
 76 315 l 1
 115.3 317 150.3 323 181 333 c 1
 185 333 187 331.3 187 328 c 0
 183 293.3 180.7 240 180 168 c 2
 180 6 l 2
 180 -36.7 182 -72.3 186 -101 c 1
 185 -103 l 1
 169.7 -101.7 151.3 -101 130 -101 c 0
 108 -101 89.7 -101.7 75 -103 c 1
 74 -101 l 1
 78 -74.3 80 -38.7 80 6 c 2
 80 154 l 2
EndSplineSet
Colour: ff00ff
EndChar

StartChar: u1D5FA.inferior
Encoding: 1114124 -1 125
Width: 650
Flags: W
HStem: -101 263<75.3594 175.471> 114 58<210.718 270.486 404.222 472.328>
VStem: 75 101<-99.4351 88.1699 119 161.292> 276 101<-99.3428 74.7803> 476 100<-99.7729 109.744>
LayerCount: 2
Fore
SplineSet
476 66 m 2xb8
 476 98 464.7 114 442 114 c 0x78
 421.3 114 399.3 101 376 75 c 1
 376.7 70.3 377 64.3 377 57 c 2
 377 9 l 2
 377 -29 379.3 -65.7 384 -101 c 1
 383 -103 l 1
 367 -101.7 348.7 -101 328 -101 c 0
 307.3 -101 288 -101.7 270 -103 c 1
 269 -101 l 1xb8
 273.7 -67.7 276 -31 276 9 c 2
 276 64 l 2
 276 84 273 97.7 267 105 c 0
 261.7 111 252.7 114 240 114 c 0x78
 224.7 114 203.3 97.3 176 64 c 1
 176 9 l 2
 176 -35 178 -71.7 182 -101 c 1
 181 -103 l 1
 164.3 -101.7 146 -101 126 -101 c 0
 104.7 -101 85.7 -101.7 69 -103 c 1
 68 -101 l 1
 72.7 -67.7 75 -31 75 9 c 2
 75 42 l 2
 75 96 73 135.7 69 161 c 1
 70 162 l 1xb8
 107.3 160.7 140.3 161.3 169 164 c 0
 171.7 164 173.3 162 174 158 c 0
 175.3 154 176 141 176 119 c 1
 178 117 l 1
 206.7 153.7 237 172 269 172 c 0
 301 172 323.7 167.7 337 159 c 1
 353.7 151.7 365.3 139.7 372 123 c 1
 403.3 155.7 435.7 172 469 172 c 0x78
 540.3 172 576 138 576 70 c 2
 576 11 l 2
 576 -37.7 578 -75 582 -101 c 1
 581 -103 l 1
 569.7 -101.7 551 -101 525 -101 c 0
 510.3 -101 493 -101.7 473 -103 c 1
 472 -101 l 1
 474.7 -79 476 -41.7 476 11 c 2
 476 66 l 2xb8
EndSplineSet
Colour: ff00ff
EndChar

StartChar: u1D5FB.inferior
Encoding: 1114125 -1 126
Width: 452
Flags: W
HStem: -101 263<75.3438 175.809> 114 57<211.312 306.512>
VStem: 75 101<-99.6812 88.4258> 275 102<-99.6812 113.017>
LayerCount: 2
Fore
SplineSet
377 9 m 2x70
 377 -36.3 379.3 -73 384 -101 c 1
 383 -103 l 1
 365 -101.7 346.7 -101 328 -101 c 0
 304 -101 285.3 -101.7 272 -103 c 1
 271 -101 l 1xb0
 273.7 -79.7 275 -43 275 9 c 2
 275 63 l 2
 275 97 265.7 114 247 114 c 0x70
 224.3 114 200.7 97.7 176 65 c 1
 176 9 l 2
 176 -36.3 177.3 -73 180 -101 c 1
 178 -103 l 1
 166.7 -101.7 149.7 -101 127 -101 c 0
 107.7 -101 88.3 -101.7 69 -103 c 1
 68 -101 l 1
 72.7 -73 75 -36.3 75 9 c 2
 75 42 l 2
 75 96 72.7 135.7 68 161 c 1
 69 162 l 1xb0
 107.7 160.7 141.3 161.3 170 164 c 0
 172.7 164 174.3 162 175 158 c 0
 175.7 154 176 140.7 176 118 c 1
 179 116 l 1
 207 152.7 237.3 171 270 171 c 0
 341.3 171 377 139.3 377 76 c 2
 377 9 l 2x70
EndSplineSet
Colour: ff00ff
EndChar

StartChar: u1D5FC.inferior
Encoding: 1114126 -1 127
Width: 417
Flags: W
HStem: -109 41<169.93 255.929> 128 42<161.846 251.346>
VStem: 41 107<-48.1628 107.934> 270 106<-52.0148 111.396>
LayerCount: 2
Fore
SplineSet
157 99 m 0
 151 85 148 64 148 36 c 0
 148 -33.3 171 -68 217 -68 c 0
 252.3 -68 270 -41.7 270 11 c 0
 270 51.7 265.7 81 257 99 c 0
 247.7 118.3 230.7 128 206 128 c 0
 182 128 165.7 118.3 157 99 c 0
83 134 m 1
 109 158 151.3 170 210 170 c 0
 272 170 316 156.7 342 130 c 1
 364.7 102.7 376 68.7 376 28 c 0
 376 -14.7 363 -48 337 -72 c 0
 311 -96.7 268.3 -109 209 -109 c 0
 149.7 -109 107 -97.3 81 -74 c 0
 54.3 -50.7 41 -18.7 41 22 c 0
 41 68 55 105.3 83 134 c 1
EndSplineSet
EndChar

StartChar: u1D5FD.inferior
Encoding: 1114127 -1 128
Width: 440
Flags: W
HStem: -244 413<76.1094 176.448> -108 42<178.663 270.368> 121 50<206.023 278.121>
VStem: 76 101<-242.709 -91 -58.2441 97.2656> 292 106<-40.6699 109.858>
LayerCount: 2
Fore
SplineSet
180 121 m 1x38
 204 154.3 232.3 171 265 171 c 0
 304.3 171 333.3 163.7 352 149 c 1
 382.7 121 398 85.3 398 42 c 0
 398 -0.700001 385 -36.3 359 -65 c 0
 332.3 -93.7 293.3 -108 242 -108 c 0x78
 216.7 -108 195 -102.3 177 -91 c 1
 177 -122 l 2
 177 -176 179 -216.7 183 -244 c 1
 182 -246 l 1
 165.3 -244.7 146.3 -244 125 -244 c 0
 104.3 -244 86 -244.7 70 -246 c 1
 70 -244 l 1
 74 -218.7 76 -178 76 -122 c 2
 76 42 l 2
 76 96 73.7 137 69 165 c 1
 70 167 l 1
 112 165 145.3 165.7 170 169 c 0x98
 173.3 169 175.3 166.7 176 162 c 0
 176.7 158 177 145 177 123 c 1
 180 121 l 1x38
177 -44 m 1
 194.3 -58.7 212.3 -66 231 -66 c 0
 249 -66 263.7 -57.3 275 -40 c 0
 286.3 -22 292 1.3 292 30 c 0
 292 90.7 275.3 121 242 121 c 0
 231.3 121 219.7 115.7 207 105 c 0
 193.7 93.7 183.7 80.3 177 65 c 1
 177 -44 l 1
EndSplineSet
Colour: ff00ff
EndChar

StartChar: u1D5FE.inferior
Encoding: 1114128 -1 129
Width: 456
Flags: W
HStem: -244 412<279.359 379.861> -108 47<183.306 269.102> 130 42<181.449 278.309>
VStem: 58 107<-42.8164 107.477> 279 101<-242.709 -79 -50.74 124.791>
LayerCount: 2
Fore
SplineSet
386 168 m 1x98
 387 166 l 1
 382.3 137.3 380 96 380 42 c 2
 380 -122 l 2
 380 -176 382 -216.7 386 -244 c 1
 385 -246 l 1
 369.7 -244.7 351.3 -244 330 -244 c 0
 308.7 -244 289.7 -244.7 273 -246 c 1
 273 -244 l 1x98
 277 -218.7 279 -178 279 -122 c 2
 279 -79 l 1
 255.7 -98.3 231 -108 205 -108 c 0
 150.3 -108 113.3 -97.7 94 -77 c 0
 67.3 -49.7 55.3 -15.7 58 25 c 1
 58 65.7 71 101 97 131 c 1
 123.7 158.3 158 172 200 172 c 0x78
 224.7 172 255.3 170.7 292 168 c 0
 322 166.7 353.3 166.7 386 168 c 1x98
279 117 m 1
 264.3 125.7 244.7 130 220 130 c 0
 183.3 130 165 98 165 34 c 0
 165 -29.3 187 -61 231 -61 c 0x78
 241 -61 257 -52.7 279 -36 c 1
 279 117 l 1
EndSplineSet
Colour: ff00ff
EndChar

StartChar: u1D5FF.inferior
Encoding: 1114129 -1 130
Width: 316
Flags: W
HStem: 102 69<214.93 280.397>
VStem: 85 100<-99.6194 91.997 117 163.802>
LayerCount: 2
Fore
SplineSet
187 115 m 1
 211.7 152.3 236.7 171 262 171 c 0
 273.3 171 284 169.7 294 167 c 1
 296 164 l 1
 284 91 l 1
 272 90 l 1
 262 98 250.3 102 237 102 c 0
 227 102 217 98.7 207 92 c 0
 192.3 82 185 70 185 56 c 2
 185 10 l 2
 185 -34.7 187 -71.7 191 -101 c 1
 189 -103 l 1
 169.7 -101.7 147 -101 121 -101 c 0
 106.3 -101 92.3 -101.7 79 -103 c 1
 79 -101 l 1
 83 -73 85 -36 85 10 c 2
 85 45 l 2
 85 99.7 82.7 139.7 78 165 c 1
 79 167 l 1
 114.3 165 147.3 165.7 178 169 c 0
 180.7 169 182.3 166.7 183 162 c 0
 183.7 158 184 143 184 117 c 1
 187 115 l 1
EndSplineSet
Colour: ff00ff
EndChar

StartChar: u1D600.inferior
Encoding: 1114130 -1 131
Width: 307
Flags: W
HStem: -109 37<91.7233 167.952> -93 70<48 82.2717> 85 67<211.913 245> 131 38<142.719 207.418>
VStem: 51 91<78.7174 130.14> 175 92<-68.896 -14.1971>
LayerCount: 2
Fore
SplineSet
69 -23 m 1x4c
 86.3 -55.7 107.7 -72 133 -72 c 0
 147 -72 157 -70.7 163 -68 c 0
 171 -64 175 -58.7 175 -52 c 0
 175 -40 171 -30 163 -22 c 0
 155.7 -14.7 140.3 -4.3 117 9 c 0
 73 33 51 61.3 51 94 c 0
 51 116.7 61.3 135 82 149 c 0
 102 162.3 132.7 169 174 169 c 0x9c
 209.3 169 236.7 163.3 256 152 c 1
 257 151 l 1
 245 85 l 1x2c
 225 84 l 1
 210.3 115.3 192.7 131 172 131 c 0
 152 131 142 124 142 110 c 0
 142 96 154.3 82.3 179 69 c 0
 211.7 51.7 232 39.7 240 33 c 0
 258 17 267 -3.3 267 -28 c 0
 267 -51.3 258 -70.3 240 -85 c 0
 219.3 -101 187.7 -109 145 -109 c 0x9c
 103.7 -109 68 -103.7 38 -93 c 1
 48 -23 l 1
 69 -23 l 1x4c
EndSplineSet
Colour: ff00ff
EndChar

StartChar: u1D601.inferior
Encoding: 1114131 -1 132
Width: 249
Flags: W
HStem: -109 49<119 218.216> 122 42<15.1252 59 159 228.557>
VStem: 56 100<-59.8655 122 164 222>
LayerCount: 2
Fore
SplineSet
20 122 m 2
 14.7 122 12 125.3 12 132 c 0
 11.3 144 12.3 152.3 15 157 c 0
 17.7 161.7 20.7 164 24 164 c 2
 59 164 l 1
 59 184.7 57.7 203.3 55 220 c 1
 56 222 l 1
 72.7 226 105.7 235.3 155 250 c 1
 159 250 161 248 161 244 c 0
 159 214 158 187.3 158 164 c 1
 223 164 l 2
 226.3 164 228 162.7 228 160 c 2
 229 130 l 2
 229 124.7 224 122 214 122 c 2
 159 122 l 1
 157 63 l 2
 156.3 41 156 12.3 156 -23 c 0
 156 -47.7 163.7 -60 179 -60 c 0
 192.3 -60 204 -57.7 214 -53 c 1
 220.7 -60.3 224 -72 224 -88 c 1
 200.7 -102 171 -109 135 -109 c 0
 103 -109 81.3 -102.7 70 -90 c 0
 60.7 -78.7 56 -65 56 -49 c 0
 56 -27.7 56.3 7.3 57 56 c 1
 60 122 l 1
 20 122 l 2
EndSplineSet
Colour: ff00ff
EndChar

StartChar: u1D602.inferior
Encoding: 1114132 -1 133
Width: 450
Flags: W
HStem: -110 273<94.1298 191.995 277.001 371.289> -110 58<153.439 244.816>
VStem: 72 101<-50.3508 161.127> 272 100<-31.5625 161.927> 273 109<-105.333 -65>
LayerCount: 2
Fore
SplineSet
272 -65 m 1xb0
 244 -95 211.3 -110 174 -110 c 1
 130.7 -108.7 102.3 -99.7 89 -83 c 0
 77 -69 71.3 -48.7 72 -22 c 2
 73 53 l 2
 73.7 86.3 72 123 68 163 c 1
 69 165 l 1
 83.7 163.7 101.7 163 123 163 c 0
 143.7 163 162.3 163.7 179 165 c 1
 179 163 l 2xb0
 178.3 155 176.7 118.3 174 53 c 1
 173 -2 l 2
 172.3 -35.3 182.7 -52 204 -52 c 0x70
 218.7 -52 233.3 -46 248 -34 c 0
 264 -21.3 272 -6.7 272 10 c 2
 272 53 l 2
 272 103.7 270.7 140.3 268 163 c 1
 269 165 l 1
 283 163.7 301 163 323 163 c 0
 341.7 163 359.7 163.7 377 165 c 1
 377 163 l 1
 373.7 141 372 104.3 372 53 c 2
 372 18 l 2xb0
 372 -22.7 375.3 -63.3 382 -104 c 1
 381 -106 l 1
 373 -104.7 356 -104 330 -104 c 0
 307.3 -104 291.3 -104.7 282 -106 c 0
 278.7 -106 277 -105.3 277 -104 c 2
 273 -65 l 1xa8
 272 -65 l 1xb0
EndSplineSet
Colour: ff00ff
EndChar

StartChar: u1D603.inferior
Encoding: 1114133 -1 134
Width: 371
Flags: W
HStem: -102 265
VStem: 20 331
LayerCount: 2
Fore
SplineSet
20 163 m 1
 26.7 162.3 47 162 81 162 c 0
 109 162 125.7 162.3 131 163 c 1
 156.3 87 179.7 23 201 -29 c 1
 203 -29 l 1
 231 43 231 43 277 163 c 1
 280.3 162.3 293.3 162 316 162 c 0
 336 162 347.7 162.3 351 163 c 1
 299 53 259.7 -35.3 233 -102 c 1
 229 -100.7 209.7 -100 175 -100 c 0
 148.3 -100 133 -100.7 129 -102 c 1
 87.7 6.7 51.3 95 20 163 c 1
EndSplineSet
Colour: ff00ff
EndChar

StartChar: u1D604.inferior
Encoding: 1114134 -1 135
Width: 524
Flags: W
HStem: -104 268
LayerCount: 2
Fore
SplineSet
18 164 m 1
 24 163.3 45.7 163 83 163 c 0
 109 163 124.3 163.3 129 164 c 1
 192 -39 l 1
 240 92 l 1
 214 165 l 1
 220 163.7 237 163 265 163 c 0
 295 163 312.3 163.7 317 165 c 1
 371 -16 l 1
 431 165 l 1
 434.3 163.7 445.3 163 464 163 c 0
 488.7 163 502.7 163.7 506 165 c 1
 454.7 43.7 418.7 -46 398 -104 c 1
 394.7 -103.3 381.3 -103 358 -103 c 0
 332 -103 317 -103.3 313 -104 c 1
 266 24 l 1
 216 -105 l 1
 212.7 -103.7 198 -103 172 -103 c 0
 144.7 -103 129 -103.7 125 -105 c 1
 115.7 -76.3 80 13.3 18 164 c 1
EndSplineSet
Colour: ff00ff
EndChar

StartChar: u1D605.inferior
Encoding: 1114135 -1 136
Width: 367
Flags: W
HStem: -105 270
VStem: 20 327
LayerCount: 2
Fore
SplineSet
20 165 m 1
 34.7 163 58.3 162 91 162 c 0
 114.3 162 132.7 163 146 165 c 1
 161.3 140.3 178 115.7 196 91 c 1
 226 132 226 132 249 165 c 1
 258.3 163 274 162 296 162 c 0
 310 162 321.3 163 330 165 c 1
 232 49 l 1
 281 -19 281 -19 347 -105 c 1
 333 -103 314.7 -102 292 -102 c 0
 258.7 -102 235.7 -103 223 -105 c 1
 210.3 -84.3 191 -56 165 -20 c 1
 107 -105 l 1
 99 -103 86 -102 68 -102 c 0
 49.3 -102 36.3 -103 29 -105 c 1
 128 23 l 1
 20 165 l 1
EndSplineSet
EndChar

StartChar: u1D606.inferior
Encoding: 1114136 -1 137
Width: 371
Flags: W
HStem: -231 21G<82.3333 85 162.667 175.333>
VStem: 79 87<-231 -190.346>
LayerCount: 2
Fore
SplineSet
90 163 m 0
 114.7 163 129.3 163.7 134 165 c 1
 149.3 118.3 171.7 60 201 -10 c 1
 221.7 36 243 94.3 265 165 c 1
 269 163.7 283.3 163 308 163 c 0
 327.3 163 339 163.7 343 165 c 1
 243.7 -37.7 184.7 -169.7 166 -231 c 1
 159.3 -229.7 146.3 -229 127 -229 c 0
 101.7 -229 85.7 -229.7 79 -231 c 1
 91 -211.7 111 -169 139 -103 c 1
 137 -98 l 1
 107.7 -20.7 71.3 67 28 165 c 1
 33.3 163.7 54 163 90 163 c 0
EndSplineSet
Colour: ff00ff
EndChar

StartChar: u1D607.inferior
Encoding: 1114137 -1 138
Width: 336
Flags: W
HStem: -101 46<157 296.627> 114 47<45.9062 166>
VStem: 22 283
LayerCount: 2
Fore
SplineSet
166 114 m 1
 125.3 113.3 84.7 111.3 44 108 c 1
 43 110 l 1
 43.7 116 44 124.7 44 136 c 2
 43 161 l 1
 44 162 l 1
 53.3 161.3 64.7 161 78 161 c 2
 252 161 l 2
 259.3 161 269.3 161.3 282 162 c 2
 301 164 l 2
 303.7 164 305 163 305 161 c 1
 301.7 157.7 295.3 149 286 135 c 2
 157 -55 l 1
 201 -55 248.3 -52.7 299 -48 c 1
 300 -50 l 1
 299.3 -56.7 299 -65.7 299 -77 c 2
 300 -101 l 1
 299 -103 l 1
 289.7 -101.7 278.3 -101 265 -101 c 2
 107 -101 l 2
 95.7 -101 67.3 -101.7 22 -103 c 1
 21 -97 l 1
 26.3 -91.7 30.7 -86.7 34 -82 c 2
 166 114 l 1
EndSplineSet
Colour: ff00ff
EndChar

StartChar: u1D7EC.inferior
Encoding: 1114138 -1 139
Width: 340
VWidth: 407
Flags: W
HStem: -171.2 25.9<139.496 191.392> 163.2 25.9<141.918 193.124>
VStem: 31 91<-97.9848 107.876> 210 91<-90.9479 119.24>
LayerCount: 2
Fore
SplineSet
167 163.2 m 0
 115 163.2 122 61.6 122 4.4 c 0
 122 -56.1 115 -145.3 165 -145.3 c 0
 217 -145.3 210 -57.2 210 26 c 0
 210 84.3 215 163.2 167 163.2 c 0
164 -171.2 m 0
 132.5 -171.2 102.4 -162.6 78.9 -138 c 0
 50.1 -107.8 31 -55.6 31 9.8 c 0
 31 69.3 54 124.7 87 157 c 0
 110.3 179.8 138.4 189.1 167 189.1 c 0
 193 189.1 222.7 184.4 247.5 163 c 0
 277.9 136.7 301 87.2 301 15.2 c 0
 301 -64.1 271.3 -120.5 234.7 -149 c 0
 212 -166.7 186.6 -171.2 164 -171.2 c 0
EndSplineSet
EndChar

StartChar: u1D7ED.inferior
Encoding: 1114139 -1 140
Width: 340
VWidth: 944
Flags: W
HStem: -166 30<77.5037 137.126 248.861 296.153>
VStem: 151 88<-127.049 110.993>
LayerCount: 2
Fore
SplineSet
228 -62 m 2
 228 -105 230 -133 236 -166 c 1
 235 -168 l 1
 235 -168 207 -166 184 -166 c 0
 160 -166 134 -168 134 -168 c 1
 133 -166 l 1
 139 -135 140 -105 140 -62 c 2
 140 79 l 2
 140 99 139 113.5 129 115 c 0
 116.1 116.9 86 115.5 58 117 c 1
 57 150 l 1
 117 162 189 180 231 192 c 0
 234 192 236 192 236 189 c 0
 235 181 228 158 228 99 c 2
 228 -62 l 2
EndSplineSet
Colour: ff00ff
EndChar

StartChar: u1D7EE.inferior
Encoding: 1114140 -1 141
Width: 340
VWidth: 487
Flags: W
HStem: -165 66<124 248.58> 152 37<112.732 176.309>
VStem: 33 77.7<67.8461 133.829> 185 96<33.7266 142.301> 272 28<-64.2356 -39.7085>
LayerCount: 2
Fore
SplineSet
151 153 m 0xe0
 119 153 107 123 86 90 c 1
 58 91 l 1
 44 156 l 1
 46 158 l 1
 64 168.5 109 189 156 189 c 0
 233 189 291 152 291 91 c 0
 291 48 272 26 235 -5 c 2
 170 -60 l 2
 156 -71 134 -99 134 -108 c 1
 187 -108 l 2
 252 -108 256 -105 294 -103 c 1
 292 -110 290 -134 290 -141 c 0
 290 -148 292 -160 294 -167 c 1
 245 -165 243 -165 194 -165 c 0
 145 -165 95.8 -166.2 33 -167 c 1
 33 -165 l 2
 33 -132 52 -106 115 -49 c 1
 163 -8 l 1
 201 26 200 56 200 92 c 0
 200 127 174 153 151 153 c 0xe0
EndSplineSet
Colour: ff00ff
EndChar

StartChar: u1D7EF.inferior
Encoding: 1114141 -1 142
Width: 340
Flags: W
HStem: -171 30<94.2837 179.877> -1 30<105 166.727> 100 57<45 82.1453> 159 30<104.016 182.083>
VStem: 201 82<52.524 145.866> 204 98<-120.855 -14.008>
LayerCount: 2
Fore
SplineSet
138 -141 m 0xf4
 161 -141 204 -131 204 -65 c 0xf4
 204 -11 168 -1 131 -1 c 0
 125 -1 113 -1 105 -2 c 1
 105 29 l 1
 168 32 201 57 201 104 c 0
 201 134 173 159 148 159 c 0
 102 159 94 133 73 100 c 1
 45 100 l 1
 31 155 l 1
 33 157 l 1
 49 169 97 189 154 189 c 0
 233 189 283 166 283 113 c 0xf8
 283 65 254.5 34.5 210 21 c 1
 210 19 l 1
 258 15 302 -9 302 -63 c 0
 302 -132 230 -171 137 -171 c 0
 77 -171 42 -152 26 -140 c 1
 23 -137 l 1
 38 -82 l 1
 66 -81 l 1
 87 -114 89 -141 138 -141 c 0xf4
EndSplineSet
Colour: ff00ff
EndChar

StartChar: u1D7F0.inferior
Encoding: 1114142 -1 143
Width: 340
VWidth: 407
Flags: W
HStem: -57 42<80 175 258 315>
VStem: 175 83<-161.457 -57 -15 111.667>
DStem2: 17 -45 80 -15 0.599999 0.800001<61.8 220.134>
LayerCount: 2
Fore
SplineSet
175 111.7 m 1
 80 -15 l 1
 175 -15 l 1
 175 111.7 l 1
175 -59 m 2
 175 -57 l 1
 29 -57 l 1
 17 -45 l 1
 62 21 155 134 196 191 c 1
 246 191 l 2
 251 191 258 190 258 181 c 2
 258 -15 l 1
 318 -15 l 1
 315 -57 l 1
 258 -57 l 1
 258 -59 l 2
 258 -102 260 -130 266 -163 c 1
 265 -165 l 1
 265 -165 239 -163 216 -163 c 0
 192 -163 169 -165 169 -165 c 1
 168 -163 l 1
 174 -132 175 -102 175 -59 c 2
EndSplineSet
EndChar

StartChar: u1D7F1.inferior
Encoding: 1114143 -1 144
Width: 340
VWidth: 404
Flags: W
HStem: -170.4 31.3<113.042 168.548> 117.5 65.1<111 253>
VStem: 183 89<-115.466 -9.74707>
DStem2: 61 29.7998 104 67.2803 0.13619 0.990683<42.9874 93.6728>
LayerCount: 2
Fore
SplineSet
183 -60.1 m 0
 183 -35 167 0 123 13 c 0
 101.9 19.2 90 22 66 25.5 c 1
 61 29.8 l 1
 82 182.6 l 1
 267 182.6 l 1
 253 117.5 l 1
 111 117.5 l 1
 104 67.3 l 1
 178.5 66.1 215.5 53.8 235 39 c 0
 264 17 272 -17.6 272 -49.3 c 0
 272 -114.1 214 -170.4 145 -170.4 c 0
 62.5 -170.4 39.2 -145.5 39.2 -128.3 c 0
 39.2 -112.9 55.6 -94.6 74.8 -94.6 c 0
 90.4 -94.6 100 -110.1 109.6 -120.5 c 0
 120.4 -132.2 124.9 -139.1 141 -139.1 c 0
 173 -139.1 183 -104.4 183 -60.1 c 0
EndSplineSet
EndChar

StartChar: u1D7F2.inferior
Encoding: 1114144 -1 145
Width: 340
Flags: W
HStem: -171.2 32.2<137.159 192.831> 14.6 29.2<124.64 186.595> 167.6 21.6<241.477 273>
VStem: 34 82<-119.086 12.1855> 204 85<-121.804 5.10372>
LayerCount: 2
Fore
SplineSet
204 -63.2 m 0
 204 -41.6 199 14.6 158 14.6 c 0
 141 14.6 131 12 116 0 c 1
 116 -5.4 116 -21 116 -26.4 c 0
 116 -111.7 139 -139 168 -139 c 0
 200 -139 204 -101 204 -63.2 c 0
289 -57.8 m 0
 289 -98.8 257 -171.2 168 -171.2 c 0
 129 -171.2 101.3 -163 75 -142 c 0
 50 -122 34 -82.7 34 -24.3 c 0
 34 65.3 98 175.2 273 189.2 c 1
 273 167.6 l 1
 180 150.3 140 89.1 124 35.1 c 1
 138 40.5 154 43.8 169 43.8 c 0
 212.4 43.8 239.2 38.5 257 22 c 0
 284.7 -3.6 289 -46 289 -57.8 c 0
EndSplineSet
EndChar

StartChar: u1D7F3.inferior
Encoding: 1114145 -1 146
Width: 340
Flags: W
HStem: 123 60<94.8158 232.909>
VStem: 94 67<-167 -119.04>
LayerCount: 2
Fore
SplineSet
234 123 m 1
 160 123 l 2
 128 123 89 115 72 64 c 1
 41 66 l 1
 49 111 60 146 61 187 c 0
 61 190 62 189 65 189 c 0
 83 186 81 183 115 183 c 2
 221 183 l 2
 259 183 281 186 298 190 c 1
 314 179 l 1
 261 89 193 -58 161 -167 c 1
 94 -169 l 1
 139 -52 208 80 234 123 c 1
EndSplineSet
EndChar

StartChar: u1D7F4.inferior
Encoding: 1114146 -1 147
Width: 340
Flags: W
HStem: -171 28<133.17 206.236> 163 26<139.657 206.212>
VStem: 36 73<-126.564 -31.9721> 57 70<91.8504 148.546> 219 63<77.8748 157.549> 225 84<-117.476 -35.0641>
DStem2: 190 67 118 16 0.854616 -0.51926<-86.1355 -31.4477 34.7364 101.326>
LayerCount: 2
Fore
SplineSet
176 163 m 0xd8
 150 163 127 145 127 130 c 0
 127 113 136 98 165 81 c 0
 171 78 183 71 190 67 c 1
 207 74 219 94 219 116 c 0
 219 141 204 163 176 163 c 0xd8
179 -18 m 0
 171.5 -14.8 155.7 -7.9 149 -5 c 1
 134 -17 109 -47 109 -78 c 0
 109 -113 138 -143 167 -143 c 0
 200 -143 225 -122 225 -82 c 0xe4
 225 -55 211 -35 179 -18 c 0
282 116 m 0xd8
 282 88 257 72 214 51 c 1
 244 33 l 1
 283 11 309 -17 309 -56 c 0
 309 -102 270 -171 166 -171 c 0
 116 -171 36 -152 36 -84 c 0xe4
 36 -48 47 -32 121 14 c 1
 119 15 119 15 118 16 c 0
 72 40 57 68 57 99 c 0
 57 150 119 189 179 189 c 0
 232 189 282 161 282 116 c 0xd8
EndSplineSet
EndChar

StartChar: u1D7F5.inferior
Encoding: 1114147 -1 148
Width: 340
Flags: W
HStem: -171 21<50 81.5232> -26 29<137.608 198.36> 157 32<130.169 185.865>
VStem: 34 85<13.3691 139.861> 207 82<5.59552 136.952>
LayerCount: 2
Fore
SplineSet
119 81 m 0
 119 59 124 3 165 3 c 0
 182 3 192 6 207 18 c 1
 207 23 207 39 207 44 c 0
 207 129 184 157 155 157 c 0
 123 157 119 119 119 81 c 0
34 76 m 0
 34 117 66 189 155 189 c 0
 194 189 222 181 248 160 c 0
 273 140 289 100 289 42 c 0
 289 -48 225 -157 50 -171 c 1
 50 -150 l 1
 143 -133 183 -71 199 -17 c 1
 185 -22 169 -26 154 -26 c 0
 43 -26 34 57 34 76 c 0
EndSplineSet
EndChar

StartChar: u1D5EE.superior
Encoding: 1114148 -1 149
Width: 372
Flags: W
HStem: 356 47<114 205.786> 376 23<342.58 361.71> 590 45<110.702 217.765>
VStem: 34 103<404.852 472.661> 224 99<423.284 492 533.063 583.591>
LayerCount: 2
Fore
SplineSet
321 421 m 2xb8
 321 411.7 324 405.3 330 402 c 0
 334.7 400 344 399 358 399 c 1
 361.3 396.3 363.3 388.7 364 376 c 1x78
 346.7 362.7 319.3 356 282 356 c 0
 250.7 356 231 367.7 223 391 c 1
 222 391 l 1
 198.7 367.7 167.7 356 129 356 c 0
 99 356 76 361.7 60 373 c 0
 42.7 385.7 34 402 34 422 c 0
 34 468.7 69 499.7 139 515 c 2
 220 533 l 2
 222.7 534.3 224 537 224 541 c 0
 224 573.7 206.7 590 172 590 c 0
 137.3 590 109 574 87 542 c 1
 67 542 l 1
 55 600 l 1
 56 603 l 1
 80.7 624.3 121 635 177 635 c 0
 226.3 635.7 263.7 627.7 289 611 c 1
 311.7 593 323 566.3 323 531 c 2
 321 421 l 2xb8
175 479 m 2
 149.7 472.3 137 458.3 137 437 c 0
 137 428.3 140 420.7 146 414 c 0
 152 406.7 159.3 403 168 403 c 0xb8
 184.7 403 200 409.7 214 423 c 0
 220 429 223 438.3 223 451 c 2
 224 492 l 1
 175 479 l 2
EndSplineSet
Colour: ff00ff
EndChar

StartChar: u1D5EF.superior
Encoding: 1114149 -1 150
Width: 435
Flags: W
HStem: 359 40<187.77 276.179> 585 53<198.736 281.133>
VStem: 80 101<408.193 572.711 604 767.711> 296 101<427.014 572.08>
LayerCount: 2
Fore
SplineSet
181 604 m 1
 211 626.7 239 638 265 638 c 0
 308.3 638 341.3 627.7 364 607 c 0
 386 586.3 397 554.7 397 512 c 0
 397 460.7 380 420.3 346 391 c 1
 317.3 369.7 282 359 240 359 c 0
 213.3 359 193.7 360.3 181 363 c 0
 153.7 368.3 138.7 371 136 371 c 0
 132.7 371 122 369 104 365 c 1
 82 358 l 1
 79.3 358.7 77 359.7 75 361 c 1
 78.3 377.7 80 406 80 446 c 2
 80 654 l 2
 80 703.3 77.7 741.7 73 769 c 1
 74 770 l 1
 112 772.7 148.3 779.3 183 790 c 0
 186.3 790 188 788 188 784 c 0
 183.3 745.3 181 707.3 181 670 c 2
 181 604 l 1
238 399 m 0
 258 399 272.7 408.7 282 428 c 0
 291.3 446.7 296 470.7 296 500 c 0
 296 556.7 276.7 585 238 585 c 0
 224.7 585 205.7 576.3 181 559 c 1
 181 441 l 2
 181 423 184.3 412 191 408 c 0
 200.3 402 216 399 238 399 c 0
EndSplineSet
EndChar

StartChar: u1D5F0.superior
Encoding: 1114150 -1 151
Width: 355
Flags: W
HStem: 357 41<172.344 290.225> 412 20G<294 319> 545 71<270.249 308> 595 41<168.564 261.615>
VStem: 42 104<430.94 565.246>
LayerCount: 2
Fore
SplineSet
162 566 m 0xd8
 152 550 146.7 528.7 146 502 c 0
 144.7 474 150 450 162 430 c 0
 176 408.7 194.7 398 218 398 c 1
 254 395.3 283 406.7 305 432 c 1
 319 429 l 1
 319 421.7 320 408.7 322 390 c 1
 296 368 256 357 202 357 c 0
 141.3 357 99 370 75 396 c 0
 53 420 42 450 42 486 c 0
 42 532 56.3 570 85 600 c 1
 112.3 624 154 636 210 636 c 0xd8
 258 636 295 629.3 321 616 c 1
 322 614 l 1
 308 545 l 1xe8
 281 544 l 1
 267 578 245.3 595 216 595 c 0
 192 595 174 585.3 162 566 c 0xd8
EndSplineSet
EndChar

StartChar: u1D5F1.superior
Encoding: 1114151 -1 152
Width: 425
Flags: W
HStem: 358 45<161.784 244.824> 364 426<262.569 358.441> 595 42<162.351 246.613>
VStem: 44 102<416.706 575.352> 260 99<417.871 583.574 609 766.711>
LayerCount: 2
Fore
SplineSet
260 397 m 1x58
 244.7 371 215.3 358 172 358 c 0
 128.7 358 96.3 370.3 75 395 c 0
 54.3 419 44 450 44 488 c 0
 44 542.7 61.3 583 96 609 c 1
 126 627.7 161.3 637 202 637 c 0xb8
 227.3 637 246.7 627.7 260 609 c 1
 260 653 l 2
 260 702.3 257.3 740.7 252 768 c 1
 254 770 l 1
 290.7 772 326 778.7 360 790 c 1
 364.7 790 367 788 367 784 c 0
 361.7 745.3 359 707 359 669 c 2
 359 481 l 2
 359 444.3 363 405.3 371 364 c 1
 370 362 l 1
 362 363.3 344.7 364 318 364 c 0
 295.3 364 279 363.3 269 362 c 0
 265.7 362 264 362.7 264 364 c 2
 261 397 l 1
 260 397 l 1x58
260 543 m 1
 252.7 577.7 233.3 595 202 595 c 0
 164.7 595 146 563 146 499 c 0
 146 435 164.3 403 201 403 c 0
 227 403 246.7 418.7 260 450 c 1
 260 543 l 1
EndSplineSet
EndChar

StartChar: u1D5F2.superior
Encoding: 1114152 -1 153
Width: 377
Flags: W
HStem: 355 53<158.618 286.203> 420 20G<309.333 328> 501 28<141 239> 596 41<156.479 227.355>
VStem: 40 98<432.722 501 529 567.397> 239 93<515.667 587.785>
LayerCount: 2
Fore
SplineSet
334 421 m 1
 304 377 259.3 355 200 355 c 1
 150.7 352.3 111 362.7 81 386 c 1
 53.7 410.7 40 443.3 40 484 c 0
 40 528.7 54 565 82 593 c 1
 108 622.3 146 637 196 637 c 0
 250.7 637 288 623.7 308 597 c 1
 324 578.3 332 553.7 332 523 c 0
 332 508.3 326 501 314 501 c 2
 138 501 l 1
 138 492 l 1
 136.7 467.3 142.7 447.3 156 432 c 0
 171.3 416 195 408 227 408 c 1
 261 410 293.7 420.7 325 440 c 1
 331 440 334 433.7 334 421 c 1
238 529 m 2
 238.7 529.7 239 534 239 542 c 1
 233 578 217.3 596 192 596 c 0
 178 596 167 590.3 159 579 c 0
 147 564.3 141 547.7 141 529 c 1
 238 529 l 2
EndSplineSet
Colour: ff00ff
EndChar

StartChar: u1D5F3.superior
Encoding: 1114153 -1 154
Width: 260
Flags: W
ItalicCorrection: 42
HStem: 591 40<22 65 166 237> 736 54<175.42 254.15>
VStem: 65 101<365.26 591 631 723.312>
LayerCount: 2
Fore
SplineSet
163 631 m 1
 232 631 l 2
 235.3 631 237 629.7 237 627 c 2
 237 599 l 2
 237 593.7 232.3 591 223 591 c 2
 166 591 l 1
 166 486 l 2
 166 431.3 167.7 390.7 171 364 c 1
 169 362 l 1
 155 363.3 137.7 364 117 364 c 0
 96.3 364 78 363.3 62 362 c 1
 61 364 l 1
 63.7 384.7 65 425.3 65 486 c 2
 65 591 l 1
 25 591 l 2
 23 591 22 592.3 22 595 c 2
 22 618 l 2
 22 626.7 26.7 631 36 631 c 2
 65 631 l 1
 65 638 l 2
 65.7 682.7 78 718.3 102 745 c 0
 128.7 775 168.3 790 221 790 c 0
 254.3 790 274.3 788.3 281 785 c 1
 282 783 l 1
 279.3 775.7 278 752.7 278 714 c 1
 258 710 l 1
 245.3 727.3 229 736 209 736 c 0
 185.7 736 171 717.7 165 681 c 0
 161.7 661 161 644.3 163 631 c 1
EndSplineSet
EndChar

StartChar: u1D5F4.superior
Encoding: 1114154 -1 155
Width: 407
Flags: MW
HStem: 217 37<139.061 250.249> 342 60<156.053 272.406> 444 35<160.062 220.226> 601 34<156.098 221.715>
VStem: 32 92<266.94 336.316> 45 101<490.223 596.214> 48 108<399.35 443.207> 230 101<483.717 584.007> 275 100<274.319 335.442>
LayerCount: 2
Fore
SplineSet
124 299 m 0xf880
 124 287 131.7 276 147 266 c 0
 159 258 172 254 186 254 c 0
 212 254 233.3 260 250 272 c 0
 266.7 283.3 275 296.7 275 312 c 0
 275 332 250 342 200 342 c 1
 157 341 l 2
 154.3 341 149.7 341.3 143 342 c 1
 130.3 328.7 124 314.3 124 299 c 0xf880
222 584 m 0
 216 595.3 204.3 601 187 601 c 0
 159.7 601 146 580.7 146 540 c 0
 146 519.3 148.3 504.3 153 495 c 0
 159 484.3 171 479 189 479 c 0
 216.3 479 230 499 230 539 c 0xf5
 230 559.7 227.3 574.7 222 584 c 0
297 468 m 1
 274.3 452 238.3 444 189 444 c 0
 182.3 444 173.7 446 163 450 c 1
 158.3 440 156 429 156 417 c 0xf3
 156 404.3 167.7 398 191 398 c 1
 203 399 l 2
 218.3 401 231 402 241 402 c 0
 330.3 402 375 375 375 321 c 0
 375 287.7 354 260.7 312 240 c 0
 280.7 224.7 233 217 169 217 c 0
 124.3 217 91.3 222 70 232 c 0
 44.7 244 32 262.3 32 287 c 0xf880
 31.3 303 34.5 315.5 41.5 324.5 c 0
 48.5 333.5 58.7 341 72 347 c 0
 84 352.3 92.3 356.7 97 360 c 1
 64.3 364.7 48 380.3 48 407 c 0xf2
 48 417 53.7 427.7 65 439 c 0
 75.7 449 88.3 457.3 103 464 c 1
 93 466.7 85 470.3 79 475 c 0
 56.3 490.3 45 511 45 537 c 0
 45 565.7 57 590 81 610 c 1
 103.7 626.7 138.3 635 185 635 c 0
 203 635 217.7 633.3 229 630 c 1
 240.3 630.7 267.7 631.3 311 632 c 0
 334.3 633.3 351.3 634.3 362 635 c 1
 364 633 l 1
 362.7 627.7 362 620.3 362 611 c 0
 362 601.7 362.7 594.3 364 589 c 1
 362 587 l 1
 300 592 l 1
 320.7 578 331 560.3 331 539 c 0
 331 511.7 319.7 488 297 468 c 1
EndSplineSet
EndChar

StartChar: u1D5F5.superior
Encoding: 1114155 -1 156
Width: 460
Flags: MW
TeX: 57 0
HStem: 579 58<217.219 320.667>
VStem: 74 111<364 473.973 661.366 778> 81 101<365.473 554.281 618.667 774.71> 286 100<365.227 576.266>
LayerCount: 2
Fore
SplineSet
81 659 m 2xb0
 81 709.7 78.7 748.7 74 776 c 1xd0
 75 778 l 1
 105.7 780 141.3 786.7 182 798 c 1
 186 798 188 796 188 792 c 0
 184 759.3 182 720.3 182 675 c 2
 182 637 l 1
 179 582 l 1
 182 581 l 1
 210.7 618.3 246 637 288 637 c 0
 353.3 637 386 606.3 386 545 c 2
 386 476 l 2
 386 427.3 388 390 392 364 c 1
 391 362 l 1
 379.7 363.3 361 364 335 364 c 0
 320.3 364 303 363.3 283 362 c 1
 282 364 l 1
 284.7 386 286 423.3 286 476 c 2
 286 531 l 2
 286 563 275.3 579 254 579 c 0
 230.7 579 206.7 562.3 182 529 c 1
 182 476 l 2xb0
 182 429.3 183 392 185 364 c 1
 184 362 l 1
 170.7 363.3 150.7 364 124 364 c 0
 110 364 93.7 363.3 75 362 c 1
 74 364 l 1xd0
 78.7 395.3 81 432.7 81 476 c 2
 81 659 l 2xb0
EndSplineSet
Comment: "Anfang{Spacing modifying letters}" 
Colour: ff00ff
EndChar

StartChar: u1D5F6.superior
Encoding: 1114156 -1 157
Width: 271
Flags: W
HStem: 364 262<86.2413 186.75> 691 95<91.8041 177.101>
VStem: 86 101<365.35 619.697 700.687 776.278>
LayerCount: 2
Fore
SplineSet
86 507 m 2
 86 563.7 84 603 80 625 c 1
 82 627 l 1
 82 627 117 626 135 626 c 0
 152.3 626 169.7 627 187 629 c 0
 191 629 193 626.7 193 622 c 0
 189 572.7 187 536.7 187 514 c 2
 187 474 l 2
 187 429.3 189 392.7 193 364 c 1
 192 362 l 1
 173.3 363.3 154.7 364 136 364 c 0
 118 364 99.7 363.3 81 362 c 1
 80 364 l 1
 84 391.3 86 428 86 474 c 2
 86 507 l 2
134 786 m 0
 162.7 786 185 766.5 185 739 c 0
 185 710.7 163.3 691 134 691 c 0
 105.5 691 84 711.2 84 739 c 0
 84 765.9 106.1 786 134 786 c 0
EndSplineSet
EndChar

StartChar: u1D5F7.superior
Encoding: 1114157 -1 158
Width: 256
Flags: MW
TeX: 57 0
HStem: 235 62<-1.06739 61.8846> 691 95<86.4702 158.53>
VStem: 72 101<302.367 623.896 704.47 772.53>
LayerCount: 2
Fore
SplineSet
86 773 m 1
 96 781.7 108 786 122 786 c 0
 136.7 786 149 781.7 159 773 c 1
 168.3 763 173 751.7 173 739 c 0
 173 725.7 168.3 714 159 704 c 1
 149 695.3 136.7 691 122 691 c 0
 108 691 96 695.3 86 704 c 1
 76.7 714 72 725.7 72 739 c 0
 72 751.7 76.7 763 86 773 c 1
74 511 m 2
 74.7 563.7 72.7 601.7 68 625 c 1
 70 628 l 1
 112 626 l 1
 133.3 626 152.7 627 170 629 c 0
 173.3 629 175 627 175 623 c 0
 171.7 583 170 548 170 518 c 2
 168 389 l 2
 168 342.3 158.3 305.7 139 279 c 1
 107.7 249.7 69.7 235 25 235 c 0
 -0.299999 235 -15.7 236.7 -21 240 c 1
 -22 242 l 1
 -20 248.7 -19 274 -19 318 c 1
 -3 322 l 1
 6.3 305.3 19 297 35 297 c 0
 52.3 297 63.7 311.7 69 341 c 0
 71.7 356.3 73 389.7 73 441 c 2
 74 511 l 2
EndSplineSet
Colour: ff00ff
EndChar

StartChar: u1D5F8.superior
Encoding: 1114158 -1 159
Width: 422
Flags: W
VStem: 76 100<365.536 485 516 766.711>
LayerCount: 2
Fore
SplineSet
76 653 m 2
 76 702.3 73.7 740.7 69 768 c 1
 70 769 l 1
 106.7 771.7 142 778.7 176 790 c 1
 180.7 790 183 788 183 784 c 0
 178.3 744.7 176 706.3 176 669 c 2
 176 516 l 1
 187.3 517.3 196.3 520.3 203 525 c 0
 235.7 552.3 267 586 297 626 c 1
 359 626 393.7 626.3 401 627 c 1
 402 626 l 1
 395.3 620 357.3 581 288 509 c 1
 337.3 449.7 379.7 401.3 415 364 c 1
 414 362 l 1
 408 363.3 382.3 364 337 364 c 0
 315 364 299 363.3 289 362 c 1
 243 422 211.3 461.3 194 480 c 0
 190.7 482.7 184.7 484.3 176 485 c 1
 176 481 l 2
 176 435.7 178.3 396.7 183 364 c 1
 182 362 l 1
 165.3 363.3 147 364 127 364 c 0
 105.7 364 86.7 363.3 70 362 c 1
 69 364 l 1
 73.7 394.7 76 435.3 76 486 c 2
 76 653 l 2
EndSplineSet
EndChar

StartChar: u1D5F9.superior
Encoding: 1114159 -1 160
Width: 261
Flags: W
HStem: 364 434<81.0873 183>
VStem: 80 100<365.349 777.854>
LayerCount: 2
Fore
SplineSet
80 619 m 2
 80.7 701.7 79 755 75 779 c 1
 76 780 l 1
 115.3 782 150.3 788 181 798 c 1
 185 798 187 796.3 187 793 c 0
 183 758.3 180.7 705 180 633 c 2
 180 471 l 2
 180 428.3 182 392.7 186 364 c 1
 185 362 l 1
 169.7 363.3 151.3 364 130 364 c 0
 108 364 89.7 363.3 75 362 c 1
 74 364 l 1
 78 390.7 80 426.3 80 471 c 2
 80 619 l 2
EndSplineSet
Colour: ff00ff
EndChar

StartChar: u1D5FA.superior
Encoding: 1114160 -1 161
Width: 650
Flags: MW
HStem: 364 263<75.3594 175.471> 579 58<210.718 270.486 404.222 472.328>
VStem: 75 101<365.565 553.17 584 626.292> 276 101<365.657 539.78> 476 100<365.227 574.744>
LayerCount: 2
Fore
SplineSet
476 531 m 2xb8
 476 563 464.7 579 442 579 c 0x78
 421.3 579 399.3 566 376 540 c 1
 376.7 535.3 377 529.3 377 522 c 2
 377 474 l 2
 377 436 379.3 399.3 384 364 c 1
 383 362 l 1
 367 363.3 348.7 364 328 364 c 0
 307.3 364 288 363.3 270 362 c 1
 269 364 l 1xb8
 273.7 397.3 276 434 276 474 c 2
 276 529 l 2
 276 549 273 562.7 267 570 c 0
 261.7 576 252.7 579 240 579 c 0x78
 224.7 579 203.3 562.3 176 529 c 1
 176 474 l 2
 176 430 178 393.3 182 364 c 1
 181 362 l 1
 164.3 363.3 146 364 126 364 c 0
 104.7 364 85.7 363.3 69 362 c 1
 68 364 l 1
 72.7 397.3 75 434 75 474 c 2
 75 507 l 2
 75 561 73 600.7 69 626 c 1
 70 627 l 1xb8
 107.3 625.7 140.3 626.3 169 629 c 0
 171.7 629 173.3 627 174 623 c 0
 175.3 619 176 606 176 584 c 1
 178 582 l 1
 206.7 618.7 237 637 269 637 c 0
 301 637 323.7 632.7 337 624 c 1
 353.7 616.7 365.3 604.7 372 588 c 1
 403.3 620.7 435.7 637 469 637 c 0x78
 540.3 637 576 603 576 535 c 2
 576 476 l 2
 576 427.3 578 390 582 364 c 1
 581 362 l 1
 569.7 363.3 551 364 525 364 c 0
 510.3 364 493 363.3 473 362 c 1
 472 364 l 1
 474.7 386 476 423.3 476 476 c 2
 476 531 l 2xb8
EndSplineSet
EndChar

StartChar: u1D5FB.superior
Encoding: 1114161 -1 162
Width: 452
Flags: W
HStem: 364 263<75.3438 175.809> 579 57<211.312 306.512>
VStem: 75 101<365.319 553.426> 275 102<365.319 578.016>
LayerCount: 2
Fore
SplineSet
377 474 m 2x70
 377 428.7 379.3 392 384 364 c 1
 383 362 l 1
 365 363.3 346.7 364 328 364 c 0
 304 364 285.3 363.3 272 362 c 1
 271 364 l 1xb0
 273.7 385.3 275 422 275 474 c 2
 275 528 l 2
 275 562 265.7 579 247 579 c 0x70
 224.3 579 200.7 562.7 176 530 c 1
 176 474 l 2
 176 428.7 177.3 392 180 364 c 1
 178 362 l 1
 166.7 363.3 149.7 364 127 364 c 0
 107.7 364 88.3 363.3 69 362 c 1
 68 364 l 1
 72.7 392 75 428.7 75 474 c 2
 75 507 l 2
 75 561 72.7 600.7 68 626 c 1
 69 627 l 1xb0
 107.7 625.7 141.3 626.3 170 629 c 0
 172.7 629 174.3 627 175 623 c 0
 175.7 619 176 605.7 176 583 c 1
 179 581 l 1
 207 617.7 237.3 636 270 636 c 0
 341.3 636 377 604.3 377 541 c 2
 377 474 l 2x70
EndSplineSet
EndChar

StartChar: u1D5FC.superior
Encoding: 1114162 -1 163
Width: 417
Flags: W
HStem: 357 41<169.93 255.929> 594 42<161.846 251.345>
VStem: 41 107<417.837 573.934> 270 106<413.985 577.396>
LayerCount: 2
Fore
SplineSet
157 565 m 0
 151 551 148 530 148 502 c 0
 148 432.7 171 398 217 398 c 0
 252.3 398 270 424.3 270 477 c 0
 270 517.7 265.7 547 257 565 c 0
 247.7 584.3 230.7 594 206 594 c 0
 182 594 165.7 584.3 157 565 c 0
83 600 m 1
 109 624 151.3 636 210 636 c 0
 272 636 316 622.7 342 596 c 1
 364.7 568.7 376 534.7 376 494 c 0
 376 451.3 363 418 337 394 c 0
 311 369.3 268.3 357 209 357 c 0
 149.7 357 107 368.7 81 392 c 0
 54.3 415.3 41 447.3 41 488 c 0
 41 534 55 571.3 83 600 c 1
EndSplineSet
Colour: ff00ff
EndChar

StartChar: u1D5FD.superior
Encoding: 1114163 -1 164
Width: 440
Flags: W
HStem: 222 413<76.1094 176.448> 358 42<178.663 270.368> 587 50<206.023 278.121>
VStem: 76 101<223.291 375 407.756 563.266> 292 106<425.33 575.858>
LayerCount: 2
Fore
SplineSet
180 587 m 1x38
 204 620.3 232.3 637 265 637 c 0
 304.3 637 333.3 629.7 352 615 c 1
 382.7 587 398 551.3 398 508 c 0
 398 465.3 385 429.7 359 401 c 0
 332.3 372.3 293.3 358 242 358 c 0x78
 216.7 358 195 363.7 177 375 c 1
 177 344 l 2
 177 290 179 249.3 183 222 c 1
 182 220 l 1
 165.3 221.3 146.3 222 125 222 c 0
 104.3 222 86 221.3 70 220 c 1
 70 222 l 1
 74 247.3 76 288 76 344 c 2
 76 508 l 2
 76 562 73.7 603 69 631 c 1
 70 633 l 1
 112 631 145.3 631.7 170 635 c 0x98
 173.3 635 175.3 632.7 176 628 c 0
 176.7 624 177 611 177 589 c 1
 180 587 l 1x38
177 422 m 1
 194.3 407.3 212.3 400 231 400 c 0
 249 400 263.7 408.7 275 426 c 0
 286.3 444 292 467.3 292 496 c 0
 292 556.7 275.3 587 242 587 c 0
 231.3 587 219.7 581.7 207 571 c 0
 193.7 559.7 183.7 546.3 177 531 c 1
 177 422 l 1
EndSplineSet
EndChar

StartChar: u1D5FE.superior
Encoding: 1114164 -1 165
Width: 456
Flags: W
HStem: 222 412<279.359 379.861> 358 47<183.306 269.102> 596 42<181.449 278.309>
VStem: 58 107<423.184 573.477> 279 101<223.291 387 415.26 590.791>
LayerCount: 2
Fore
SplineSet
386 634 m 1x98
 387 632 l 1
 382.3 603.3 380 562 380 508 c 2
 380 344 l 2
 380 290 382 249.3 386 222 c 1
 385 220 l 1
 369.7 221.3 351.3 222 330 222 c 0
 308.7 222 289.7 221.3 273 220 c 1
 273 222 l 1x98
 277 247.3 279 288 279 344 c 2
 279 387 l 1
 255.7 367.7 231 358 205 358 c 0
 150.3 358 113.3 368.3 94 389 c 0
 67.3 416.3 55.3 450.3 58 491 c 1
 58 531.7 71 567 97 597 c 1
 123.7 624.3 158 638 200 638 c 0x78
 224.7 638 255.3 636.7 292 634 c 0
 322 632.7 353.3 632.7 386 634 c 1x98
279 583 m 1
 264.3 591.7 244.7 596 220 596 c 0
 183.3 596 165 564 165 500 c 0
 165 436.7 187 405 231 405 c 0x78
 241 405 257 413.3 279 430 c 1
 279 583 l 1
EndSplineSet
EndChar

StartChar: u1D5FF.superior
Encoding: 1114165 -1 166
Width: 316
Flags: W
TeX: 57 0
HStem: 567 69<214.93 280.397>
VStem: 85 100<365.381 556.997 582 628.802>
LayerCount: 2
Fore
SplineSet
187 580 m 1
 211.7 617.3 236.7 636 262 636 c 0
 273.3 636 284 634.7 294 632 c 1
 296 629 l 1
 284 556 l 1
 272 555 l 1
 262 563 250.3 567 237 567 c 0
 227 567 217 563.7 207 557 c 0
 192.3 547 185 535 185 521 c 2
 185 475 l 2
 185 430.3 187 393.3 191 364 c 1
 189 362 l 1
 169.7 363.3 147 364 121 364 c 0
 106.3 364 92.3 363.3 79 362 c 1
 79 364 l 1
 83 392 85 429 85 475 c 2
 85 510 l 2
 85 564.7 82.7 604.7 78 630 c 1
 79 632 l 1
 114.3 630 147.3 630.7 178 634 c 0
 180.7 634 182.3 631.7 183 627 c 0
 183.7 623 184 608 184 582 c 1
 187 580 l 1
EndSplineSet
Colour: ff00ff
EndChar

StartChar: u1D600.superior
Encoding: 1114166 -1 167
Width: 307
Flags: W
HStem: 357 37<91.7234 167.952> 373 70<48 82.2718> 551 67<211.913 245> 597 38<142.719 207.418>
VStem: 51 91<544.717 596.14> 175 92<397.104 451.803>
LayerCount: 2
Fore
SplineSet
69 443 m 1x4c
 86.3 410.3 107.7 394 133 394 c 0
 147 394 157 395.3 163 398 c 0
 171 402 175 407.3 175 414 c 0
 175 426 171 436 163 444 c 0
 155.7 451.3 140.3 461.7 117 475 c 0
 73 499 51 527.3 51 560 c 0
 51 582.7 61.3 601 82 615 c 0
 102 628.3 132.7 635 174 635 c 0x9c
 209.3 635 236.7 629.3 256 618 c 1
 257 617 l 1
 245 551 l 1x2c
 225 550 l 1
 210.3 581.3 192.7 597 172 597 c 0
 152 597 142 590 142 576 c 0
 142 562 154.3 548.3 179 535 c 0
 211.7 517.7 232 505.7 240 499 c 0
 258 483 267 462.7 267 438 c 0
 267 414.7 258 395.7 240 381 c 0
 219.3 365 187.7 357 145 357 c 0x9c
 103.7 357 68 362.3 38 373 c 1
 48 443 l 1
 69 443 l 1x4c
EndSplineSet
Colour: ff00ff
EndChar

StartChar: u1D601.superior
Encoding: 1114167 -1 168
Width: 249
Flags: W
HStem: 357 49<119 218.216> 588 42<15.1252 59 159 228.557>
VStem: 56 100<406.135 588 630 688>
LayerCount: 2
Fore
SplineSet
20 588 m 2
 14.7 588 12 591.3 12 598 c 0
 11.3 610 12.3 618.3 15 623 c 0
 17.7 627.7 20.7 630 24 630 c 2
 59 630 l 1
 59 650.7 57.7 669.3 55 686 c 1
 56 688 l 1
 72.7 692 105.7 701.3 155 716 c 1
 159 716 161 714 161 710 c 0
 159 680 158 653.3 158 630 c 1
 223 630 l 2
 226.3 630 228 628.7 228 626 c 2
 229 596 l 2
 229 590.7 224 588 214 588 c 2
 159 588 l 1
 157 529 l 2
 156.3 507 156 478.3 156 443 c 0
 156 418.3 163.7 406 179 406 c 0
 192.3 406 204 408.3 214 413 c 1
 220.7 405.7 224 394 224 378 c 1
 200.7 364 171 357 135 357 c 0
 103 357 81.3 363.3 70 376 c 0
 60.7 387.3 56 401 56 417 c 0
 56 438.3 56.3 473.3 57 522 c 1
 60 588 l 1
 20 588 l 2
EndSplineSet
EndChar

StartChar: u1D602.superior
Encoding: 1114168 -1 169
Width: 450
Flags: MW
HStem: 352 273<94.1298 191.995 277.001 371.289> 352 58<153.439 244.816>
VStem: 72 101<411.649 623.127> 272 100<430.438 623.927> 273 109<356.667 397>
LayerCount: 2
Fore
SplineSet
272 397 m 1xb0
 244 367 211.3 352 174 352 c 1
 130.7 353.3 102.3 362.3 89 379 c 0
 77 393 71.3 413.3 72 440 c 2
 73 515 l 2
 73.7 548.3 72 585 68 625 c 1
 69 627 l 1
 83.7 625.7 101.7 625 123 625 c 0
 143.7 625 162.3 625.7 179 627 c 1
 179 625 l 2xb0
 178.3 617 176.7 580.3 174 515 c 1
 173 460 l 2
 172.3 426.7 182.7 410 204 410 c 0x70
 218.7 410 233.3 416 248 428 c 0
 264 440.7 272 455.3 272 472 c 2
 272 515 l 2
 272 565.7 270.7 602.3 268 625 c 1
 269 627 l 1
 283 625.7 301 625 323 625 c 0
 341.7 625 359.7 625.7 377 627 c 1
 377 625 l 1
 373.7 603 372 566.3 372 515 c 2
 372 480 l 2xb0
 372 439.3 375.3 398.7 382 358 c 1
 381 356 l 1
 373 357.3 356 358 330 358 c 0
 307.3 358 291.3 357.3 282 356 c 0
 278.7 356 277 356.7 277 358 c 2
 273 397 l 1xa8
 272 397 l 1xb0
EndSplineSet
EndChar

StartChar: u1D603.superior
Encoding: 1114169 -1 170
Width: 371
Flags: W
HStem: 364 265
VStem: 20 331
LayerCount: 2
Fore
SplineSet
20 629 m 1
 26.7 628.3 47 628 81 628 c 0
 109 628 125.7 628.3 131 629 c 1
 156.3 553 179.7 489 201 437 c 1
 203 437 l 1
 231 509 231 509 277 629 c 1
 280.3 628.3 293.3 628 316 628 c 0
 336 628 347.7 628.3 351 629 c 1
 299 519 259.7 430.7 233 364 c 1
 229 365.3 209.7 366 175 366 c 0
 148.3 366 133 365.3 129 364 c 1
 87.7 472.7 51.3 561 20 629 c 1
EndSplineSet
EndChar

StartChar: u1D604.superior
Encoding: 1114170 -1 171
Width: 524
Flags: MW
TeX: 57 0
HStem: 362 268
LayerCount: 2
Fore
SplineSet
18 630 m 1
 24 629.3 45.7 629 83 629 c 0
 109 629 124.3 629.3 129 630 c 1
 192 427 l 1
 240 558 l 1
 214 631 l 1
 220 629.7 237 629 265 629 c 0
 295 629 312.3 629.7 317 631 c 1
 371 450 l 1
 431 631 l 1
 434.3 629.7 445.3 629 464 629 c 0
 488.7 629 502.7 629.7 506 631 c 1
 454.7 509.7 418.7 420 398 362 c 1
 394.7 362.7 381.3 363 358 363 c 0
 332 363 317 362.7 313 362 c 1
 266 490 l 1
 216 361 l 1
 212.7 362.3 198 363 172 363 c 0
 144.7 363 129 362.3 125 361 c 1
 115.7 389.7 80 479.3 18 630 c 1
EndSplineSet
Colour: ff00ff
EndChar

StartChar: u1D605.superior
Encoding: 1114171 -1 172
Width: 307
Flags: W
ItalicCorrection: 60
HStem: 361 270
VStem: 20 327
LayerCount: 2
Fore
SplineSet
20 631 m 1
 34.7 629 58.3 628 91 628 c 0
 114.3 628 132.7 629 146 631 c 1
 161.3 606.3 178 581.7 196 557 c 1
 226 598 226 598 249 631 c 1
 258.3 629 274 628 296 628 c 0
 310 628 321.3 629 330 631 c 1
 232 515 l 1
 281 447 281 447 347 361 c 1
 333 363 314.7 364 292 364 c 0
 258.7 364 235.7 363 223 361 c 1
 210.3 381.7 191 410 165 446 c 1
 107 361 l 1
 99 363 86 364 68 364 c 0
 49.3 364 36.3 363 29 361 c 1
 128 489 l 1
 20 631 l 1
EndSplineSet
Colour: ff00ff
EndChar

StartChar: u1D606.superior
Encoding: 1114172 -1 173
Width: 371
Flags: MW
TeX: 57 0
VStem: 79 87<235 275.654>
LayerCount: 2
Fore
SplineSet
90 629 m 0
 114.7 629 129.3 629.7 134 631 c 1
 149.3 584.3 171.7 526 201 456 c 1
 221.7 502 243 560.3 265 631 c 1
 269 629.7 283.3 629 308 629 c 0
 327.3 629 339 629.7 343 631 c 1
 243.7 428.3 184.7 296.3 166 235 c 1
 159.3 236.3 146.3 237 127 237 c 0
 101.7 237 85.7 236.3 79 235 c 1
 91 254.3 111 297 139 363 c 1
 137 368 l 1
 107.7 445.3 71.3 533 28 631 c 1
 33.3 629.7 54 629 90 629 c 0
EndSplineSet
Colour: ff00ff
EndChar

StartChar: u1D607.superior
Encoding: 1114173 -1 174
Width: 336
Flags: W
HStem: 365 46<157 296.627> 580 47<45.9062 166>
VStem: 22 283
LayerCount: 2
Fore
SplineSet
166 580 m 1
 125.3 579.3 84.7 577.3 44 574 c 1
 43 576 l 1
 43.7 582 44 590.7 44 602 c 2
 43 627 l 1
 44 628 l 1
 53.3 627.3 64.7 627 78 627 c 2
 252 627 l 2
 259.3 627 269.3 627.3 282 628 c 2
 301 630 l 2
 303.7 630 305 629 305 627 c 1
 301.7 623.7 295.3 615 286 601 c 2
 157 411 l 1
 201 411 248.3 413.3 299 418 c 1
 300 416 l 1
 299.3 409.3 299 400.3 299 389 c 2
 300 365 l 1
 299 363 l 1
 289.7 364.3 278.3 365 265 365 c 2
 107 365 l 2
 95.7 365 67.3 364.3 22 363 c 1
 21 369 l 1
 26.3 374.3 30.7 379.3 34 384 c 2
 166 580 l 1
EndSplineSet
EndChar

StartChar: u1D7EC.superior
Encoding: 1114174 -1 175
Width: 340
VWidth: 407
Flags: W
HStem: 357.8 25.9<139.512 191.389> 692.2 25.9<141.922 193.131>
VStem: 31 91<431.672 634.285> 210 91<438.088 648.265>
LayerCount: 2
Fore
SplineSet
167 692.2 m 0
 115 692.2 122 590.6 122 533.4 c 0
 122 472.9 115 383.7 165 383.7 c 0
 217 383.7 210 471.8 210 555 c 0
 210 613.3 215 692.2 167 692.2 c 0
164 357.8 m 0
 132.5 357.8 102.4 366.4 78.9 391 c 0
 50.1 421.2 31 473.4 31 538.8 c 0
 31 598.3 54 653.7 87 686 c 0
 110.3 708.8 138.4 718.1 167 718.1 c 0
 193 718.1 222.7 713.4 247.5 692 c 0
 277.9 665.7 301 616.2 301 544.2 c 0
 301 464.9 271.3 408.5 234.7 380 c 0
 212 362.3 186.6 357.8 164 357.8 c 0
EndSplineSet
Colour: ff00ff
EndChar

StartChar: u1D7ED.superior
Encoding: 1114175 -1 176
Width: 340
VWidth: 944
Flags: W
HStem: 647 33<56 126.385>
VStem: 138 88<365.543 644.662>
LayerCount: 2
Fore
SplineSet
226 468 m 2
 226 425 228 397 234 364 c 1
 233 362 l 1
 233 362 205 364 182 364 c 0
 158 364 132 362 132 362 c 1
 131 364 l 1
 137 395 138 425 138 468 c 2
 138 609 l 2
 138 629 137 643.5 127 645 c 0
 114.1 646.9 84 645.5 56 647 c 1
 55 680 l 1
 115 692 187 710 229 722 c 0
 232 722 234 722 234 719 c 0
 233 711 226 688 226 629 c 2
 226 468 l 2
EndSplineSet
EndChar

StartChar: u1D7EE.superior
Encoding: 1114176 -1 177
Width: 340
VWidth: 487
Flags: MW
HStem: 364 57<134 288.871> 673 36<115.76 187.772>
VStem: 200 91<558.043 664.132>
DStem2: 115 480 235 524 0.763386 0.645942<-22.5038 126.234>
LayerCount: 2
Fore
SplineSet
151 682 m 0
 119 682 107 652 86 619 c 1
 58 620 l 1
 44 685 l 1
 46 687 l 1
 64 697.5 109 718 156 718 c 0
 233 718 291 681 291 620 c 0
 291 577 272 555 235 524 c 2
 170 469 l 2
 156 458 134 430 134 421 c 1
 187 421 l 2
 252 421 256 424 294 426 c 1
 292 419 290 395 290 388 c 0
 290 381 292 369 294 362 c 1
 245 364 243 364 194 364 c 0
 145 364 95.8 362.8 33 362 c 1
 33 364 l 2
 33 397 52 423 115 480 c 1
 163 521 l 1
 201 555 200 585 200 621 c 0
 200 656 174 682 151 682 c 0
EndSplineSet
EndChar

StartChar: u1D7EF.superior
Encoding: 1114177 -1 178
Width: 340
Flags: W
HStem: 358 30<94.2837 179.877> 528 30<105 166.727> 629 57<45 82.1453> 688 30<104.016 182.083>
VStem: 201 82<581.524 674.866> 204 98<408.145 514.992>
LayerCount: 2
Fore
SplineSet
138 388 m 0xf4
 161 388 204 398 204 464 c 0xf4
 204 518 168 528 131 528 c 0
 125 528 113 528 105 527 c 1
 105 558 l 1
 168 561 201 586 201 633 c 0
 201 663 173 688 148 688 c 0
 102 688 94 662 73 629 c 1
 45 629 l 1
 31 684 l 1
 33 686 l 1
 49 698 97 718 154 718 c 0
 233 718 283 695 283 642 c 0xf8
 283 594 254.5 563.5 210 550 c 1
 210 548 l 1
 258 544 302 520 302 466 c 0
 302 397 230 358 137 358 c 0
 77 358 42 377 26 389 c 1
 23 392 l 1
 38 447 l 1
 66 448 l 1
 87 415 89 388 138 388 c 0xf4
EndSplineSet
EndChar

StartChar: u1D7F0.superior
Encoding: 1114178 -1 179
Width: 340
VWidth: 407
Flags: W
HStem: 472 42<80 175 258 315>
VStem: 175 83<367.543 472 514 640.667>
DStem2: 17 484 80 514 0.599999 0.800001<61.8 220.134>
LayerCount: 2
Fore
SplineSet
175 640.7 m 1
 80 514 l 1
 175 514 l 1
 175 640.7 l 1
175 470 m 2
 175 472 l 1
 29 472 l 1
 17 484 l 1
 62 550 155 663 196 720 c 1
 246 720 l 2
 251 720 258 719 258 710 c 2
 258 514 l 1
 318 514 l 1
 315 472 l 1
 258 472 l 1
 258 470 l 2
 258 427 260 399 266 366 c 1
 265 364 l 1
 265 364 239 366 216 366 c 0
 192 366 169 364 169 364 c 1
 168 366 l 1
 174 397 175 427 175 470 c 2
EndSplineSet
Colour: ff00ff
EndChar

StartChar: u1D7F1.superior
Encoding: 1114179 -1 180
Width: 340
VWidth: 404
Flags: W
HStem: 357.6 31.3<122.042 177.548> 645.5 65.1<120 262>
VStem: 192 89<412.534 518.253>
DStem2: 70 557.8 113 595.28 0.13619 0.990683<42.9874 93.6728>
LayerCount: 2
Fore
SplineSet
192 467.9 m 0
 192 493 176 528 132 541 c 0
 110.9 547.2 99 550 75 553.5 c 1
 70 557.8 l 1
 91 710.6 l 1
 276 710.6 l 1
 262 645.5 l 1
 120 645.5 l 1
 113 595.3 l 1
 187.5 594.1 224.5 581.8 244 567 c 0
 273 545 281 510.4 281 478.7 c 0
 281 413.9 223 357.6 154 357.6 c 0
 71.5 357.6 48.2 382.5 48.2 399.7 c 0
 48.2 415.1 64.6 433.4 83.8 433.4 c 0
 99.4 433.4 109 417.9 118.6 407.5 c 0
 129.4 395.8 133.9 388.9 150 388.9 c 0
 182 388.9 192 423.6 192 467.9 c 0
EndSplineSet
Colour: ff00ff
EndChar

StartChar: u1D7F2.superior
Encoding: 1114180 -1 181
Width: 340
VWidth: 407
Flags: W
HStem: 357.8 32.2<143.159 198.831> 543.6 29.2<130.64 192.595> 696.6 21.6<247.477 279>
VStem: 40 82<409.914 541.186> 210 85<407.196 534.104>
LayerCount: 2
Fore
SplineSet
210 465.8 m 0
 210 487.4 205 543.6 164 543.6 c 0
 147 543.6 137 541 122 529 c 1
 122 523.6 122 508 122 502.6 c 0
 122 417.3 145 390 174 390 c 0
 206 390 210 428 210 465.8 c 0
295 471.2 m 0
 295 430.2 263 357.8 174 357.8 c 0
 135 357.8 107.3 366 81 387 c 0
 56 407 40 446.3 40 504.7 c 0
 40 594.3 104 704.2 279 718.2 c 1
 279 696.6 l 1
 186 679.3 146 618.1 130 564.1 c 1
 144 569.5 160 572.8 175 572.8 c 0
 218.4 572.8 245.2 567.5 263 551 c 0
 290.7 525.4 295 483 295 471.2 c 0
EndSplineSet
Colour: ff00ff
EndChar

StartChar: u1D7F3.superior
Encoding: 1114181 -1 182
Width: 340
VWidth: 407
Flags: W
HStem: 651 60<90.8158 228.909>
VStem: 90 67<361 408.96>
LayerCount: 2
Fore
SplineSet
230 651 m 1
 156 651 l 2
 124 651 85 643 68 592 c 1
 37 594 l 1
 45 639 56 674 57 715 c 0
 57 718 58 717 61 717 c 0
 79 714 77 711 111 711 c 2
 217 711 l 2
 255 711 277 714 294 718 c 1
 310 707 l 1
 257 617 189 470 157 361 c 1
 90 359 l 1
 135 476 204 608 230 651 c 1
EndSplineSet
Colour: ff00ff
EndChar

StartChar: u1D7F4.superior
Encoding: 1114182 -1 183
Width: 340
VWidth: 407
Flags: W
HStem: 358 28<139.17 212.236> 692 26<145.657 212.212>
VStem: 42 73<402.436 497.028> 63 70<620.85 677.546> 225 63<606.875 686.549> 231 84<411.524 493.936>
DStem2: 196 596 124 545 0.854616 -0.51926<-86.1355 -31.4477 34.7364 101.326>
LayerCount: 2
Fore
SplineSet
182 692 m 0xd8
 156 692 133 674 133 659 c 0
 133 642 142 627 171 610 c 0
 177 607 189 600 196 596 c 1
 213 603 225 623 225 645 c 0
 225 670 210 692 182 692 c 0xd8
185 511 m 0
 177.5 514.2 161.7 521.1 155 524 c 1
 140 512 115 482 115 451 c 0
 115 416 144 386 173 386 c 0
 206 386 231 407 231 447 c 0xe4
 231 474 217 494 185 511 c 0
288 645 m 0xd8
 288 617 263 601 220 580 c 1
 250 562 l 1
 289 540 315 512 315 473 c 0
 315 427 276 358 172 358 c 0
 122 358 42 377 42 445 c 0xe4
 42 481 53 497 127 543 c 1
 125 544 125 544 124 545 c 0
 78 569 63 597 63 628 c 0
 63 679 125 718 185 718 c 0
 238 718 288 690 288 645 c 0xd8
EndSplineSet
Colour: ff00ff
EndChar

StartChar: u1D7F5.superior
Encoding: 1114183 -1 184
Width: 340
VWidth: 407
Flags: W
HStem: 358 21<57 88.5232> 503 29<144.608 205.36> 686 32<137.169 192.865>
VStem: 41 85<542.369 668.861> 214 82<534.596 665.952>
LayerCount: 2
Fore
SplineSet
126 610 m 0
 126 588 131 532 172 532 c 0
 189 532 199 535 214 547 c 1
 214 552 214 568 214 573 c 0
 214 658 191 686 162 686 c 0
 130 686 126 648 126 610 c 0
41 605 m 0
 41 646 73 718 162 718 c 0
 201 718 229 710 255 689 c 0
 280 669 296 629 296 571 c 0
 296 481 232 372 57 358 c 1
 57 379 l 1
 150 396 190 458 206 512 c 1
 192 507 176 503 161 503 c 0
 50 503 41 586 41 605 c 0
EndSplineSet
Colour: ff00ff
EndChar
